{"glyphs":{"0":{"ha":1264,"x_min":-58,"x_max":1221,"o":"m 663 435 q 726 449 663 435 q 790 603 790 463 q 667 776 789 744 q 476 713 544 808 q 471 513 407 618 q 663 435 535 407 m 1103 610 q 1051 873 1119 763 q 848 1065 983 983 q 571 1092 713 1146 q 904 952 747 1082 q 1103 610 1061 822 m 356 597 q 357 470 338 511 q 403 388 376 429 q 479 322 429 346 q 607 299 529 299 q 740 376 685 300 q 545 347 626 325 q 423 430 464 368 q 356 597 382 492 m 196 268 q 269 145 226 192 q 371 62 313 99 q 567 25 429 25 q 340 106 408 50 q 196 268 272 161 m 126 -226 q 117 -228 126 -226 q 89 -231 108 -229 q 50 -215 69 -232 q 43 -215 49 -214 q 24 -214 38 -215 q 11 -208 11 -212 q 39 -193 11 -204 q 30 -169 31 -187 q 46 -135 29 -151 q 88 -117 63 -118 q 121 -119 104 -115 q 131 -101 119 -111 q 154 -96 142 -90 q 150 -67 150 -89 q 175 -21 150 -44 q 237 4 200 3 q 303 -18 274 6 q 335 -74 332 -42 q 357 -70 340 -71 q 392 -83 374 -69 q 409 -121 410 -97 q 396 -160 408 -144 q 435 -172 422 -167 q 442 -187 444 -182 q 445 -197 439 -193 q 461 -204 451 -201 q 466 -209 471 -207 q 451 -212 461 -211 q 435 -212 442 -212 q 427 -215 429 -212 q 422 -225 425 -218 q 311 -232 418 -232 q 217 -217 211 -232 q 175 -221 200 -219 q 126 -226 143 -224 m 132 -210 q 138 -209 132 -210 q 183 -203 144 -208 q 219 -200 204 -201 q 297 -219 213 -211 q 394 -212 389 -215 q 402 -206 400 -210 q 406 -201 404 -201 q 416 -201 408 -201 q 428 -200 424 -201 q 424 -197 432 -199 q 416 -192 417 -196 q 417 -184 415 -187 q 396 -171 419 -181 q 378 -164 388 -167 q 394 -124 396 -147 q 372 -90 392 -101 q 338 -83 351 -79 q 318 -87 324 -86 q 294 -33 318 -54 q 233 -14 269 -12 q 179 -38 197 -15 q 163 -81 161 -61 q 168 -108 165 -100 q 140 -109 149 -100 q 129 -135 131 -118 q 74 -131 94 -118 q 51 -160 54 -144 q 63 -190 47 -176 q 42 -198 47 -193 q 51 -203 36 -203 q 74 -209 65 -203 q 101 -214 83 -215 q 132 -210 119 -212 m 718 1338 q 571 1393 674 1404 l 571 1399 q 701 1393 676 1421 q 794 1497 701 1422 l 801 1496 q 725 1340 743 1449 l 718 1338 m 854 1242 q 967 1283 889 1292 l 967 1289 q 868 1283 888 1304 q 797 1363 868 1306 l 792 1361 q 850 1243 836 1325 l 854 1242 m 600 -165 q 596 -164 597 -165 q 568 -165 585 -158 q 554 -178 560 -168 q 571 -178 563 -179 q 596 -174 585 -175 q 600 -165 596 -169 m 578 -142 q 542 -119 564 -132 q 499 -103 519 -106 q 470 -103 479 -101 q 457 -114 461 -106 q 461 -132 453 -122 q 485 -151 469 -142 q 528 -169 501 -160 l 529 -171 q 539 -158 533 -162 q 567 -142 551 -147 q 578 -142 572 -140 m 693 -153 q 708 -143 699 -147 q 760 -151 736 -128 q 797 -194 783 -175 q 804 -201 800 -199 q 814 -200 810 -201 q 827 -187 824 -196 q 820 -170 831 -179 q 794 -154 810 -161 q 751 -140 778 -147 q 708 -138 725 -133 q 676 -146 690 -143 l 674 -146 l 671 -150 q 693 -153 685 -147 m 708 -175 q 742 -192 722 -182 q 767 -200 754 -197 q 753 -183 758 -193 q 708 -175 733 -158 m 658 1192 q 583 1226 604 1208 q 590 1247 588 1235 q 584 1280 592 1260 q 540 1317 576 1300 q 458 1301 504 1335 q 449 1349 450 1319 q 415 1401 447 1379 q 347 1418 382 1424 q 290 1395 311 1413 q 265 1350 268 1378 q 261 1307 261 1322 q 205 1319 233 1324 q 171 1264 176 1315 q 146 1292 164 1289 q 110 1286 128 1296 q 91 1251 93 1276 q 125 1206 89 1226 q 97 1199 108 1201 q 76 1192 86 1196 q 73 1183 65 1188 q 103 1177 81 1179 q 128 1174 125 1175 q 132 1166 131 1174 q 263 1158 133 1158 q 382 1178 392 1157 q 488 1169 444 1172 q 581 1188 532 1182 q 658 1192 619 1193 m 443 1157 q 394 1163 401 1161 q 254 1143 397 1143 q 108 1153 111 1143 q 101 1164 104 1163 q 89 1166 97 1165 q 69 1167 81 1167 q 50 1172 57 1168 q 41 1183 43 1176 q 45 1194 39 1190 q 60 1199 51 1197 q 97 1210 69 1201 q 82 1223 89 1215 q 76 1253 75 1231 q 91 1290 76 1275 q 128 1307 106 1304 q 165 1292 150 1310 q 200 1332 172 1319 q 247 1325 228 1344 q 251 1358 249 1331 q 282 1414 253 1386 q 365 1438 311 1442 q 441 1407 419 1435 q 467 1358 463 1379 q 468 1326 471 1338 q 497 1338 474 1332 q 554 1332 521 1343 q 603 1293 588 1321 q 604 1232 618 1265 q 689 1192 615 1213 q 928 1117 817 1183 q 1163 852 1086 1024 q 1215 482 1240 681 q 1079 147 1190 283 q 754 -33 974 17 l 690 -121 q 711 -118 700 -119 q 767 -120 742 -112 q 816 -142 792 -128 q 850 -172 840 -156 q 856 -201 860 -189 q 842 -215 853 -210 q 851 -218 846 -217 q 977 -201 893 -224 q 1081 -210 1061 -178 q 1083 -264 1100 -242 q 1099 -309 1067 -286 q 1120 -358 1132 -332 q 1142 -401 1108 -385 q 1175 -403 1157 -408 q 1201 -383 1193 -397 l 1208 -394 q 1174 -422 1200 -411 q 1125 -422 1149 -432 q 1101 -395 1113 -415 q 1097 -357 1090 -375 q 1074 -318 1103 -339 q 1059 -261 1046 -297 q 1045 -217 1072 -225 q 958 -228 1018 -208 q 860 -243 899 -247 q 799 -225 822 -240 l 790 -225 q 736 -212 764 -225 q 696 -192 713 -203 q 681 -200 690 -196 l 763 -301 q 779 -322 789 -301 q 724 -339 753 -349 q 617 -347 694 -329 q 551 -340 567 -347 q 534 -325 538 -340 q 554 -310 531 -310 l 624 -206 q 599 -190 606 -206 q 565 -196 585 -193 l 546 -196 q 544 -203 546 -199 q 525 -253 538 -235 q 495 -278 513 -272 q 464 -285 478 -285 q 406 -272 450 -285 q 342 -267 363 -258 q 315 -293 322 -275 q 302 -334 307 -311 q 274 -373 297 -357 q 228 -382 250 -389 q 190 -361 206 -375 q 144 -316 174 -347 q 87 -299 114 -285 q 42 -330 60 -312 q 8 -350 24 -347 q -24 -350 -8 -353 q -50 -327 -39 -347 q -59 -299 -61 -307 q -51 -290 -57 -290 q -44 -297 -46 -289 q -36 -315 -43 -304 q -12 -329 -29 -326 q 28 -309 6 -332 q 70 -276 50 -286 q 108 -270 90 -267 q 138 -281 126 -274 q 181 -323 150 -287 q 234 -360 213 -358 q 267 -351 256 -361 q 283 -318 278 -340 q 300 -274 288 -296 q 335 -247 313 -253 q 380 -244 358 -240 q 443 -257 401 -247 q 500 -242 485 -267 q 522 -192 515 -217 q 508 -187 515 -190 q 462 -160 483 -176 q 433 -126 440 -143 q 431 -97 425 -108 q 454 -81 436 -85 q 498 -80 472 -76 q 550 -99 524 -83 q 593 -129 576 -114 q 615 -151 606 -140 l 531 -46 q 300 42 410 -29 q 57 382 103 168 q 69 772 11 596 q 258 1056 128 949 q 443 1157 340 1122 z "},"1":{"ha":876,"x_min":-69,"x_max":864,"o":"m 382 94 q 255 89 321 78 q 163 164 189 100 q 181 454 136 228 q 206 172 183 204 q 255 125 228 140 q 382 94 282 110 m 789 -351 q 626 -293 701 -286 l 631 -286 q 769 -297 750 -276 q 861 -203 768 -261 l 864 -207 q 796 -349 782 -271 l 789 -351 m 529 -411 q 642 -369 564 -361 l 642 -364 q 543 -369 563 -349 q 472 -290 543 -347 l 467 -292 q 525 -410 511 -328 l 529 -411 m 569 1178 q 488 1168 560 1175 q 411 1172 415 1161 q 397 1180 407 1182 q 372 1178 386 1178 q 357 1183 358 1179 q 368 1193 356 1186 q 380 1207 381 1200 q 390 1221 379 1214 q 418 1235 400 1228 q 414 1265 411 1239 q 435 1306 417 1290 q 476 1322 453 1321 q 504 1318 500 1322 q 506 1347 503 1328 q 533 1389 510 1365 q 597 1416 557 1413 q 665 1395 638 1419 q 693 1349 692 1371 q 694 1321 694 1326 q 725 1312 713 1322 q 736 1292 738 1301 q 772 1303 753 1306 q 806 1290 792 1301 q 820 1260 819 1279 q 815 1234 821 1242 q 803 1222 810 1226 q 833 1214 824 1215 q 848 1209 842 1213 q 852 1199 854 1206 q 844 1190 850 1193 q 828 1185 839 1186 q 810 1183 818 1183 q 799 1181 801 1182 q 793 1172 796 1181 q 680 1163 790 1164 q 569 1178 569 1161 m 576 1193 q 667 1176 569 1174 q 766 1185 765 1178 q 769 1192 767 1192 q 790 1194 771 1193 q 817 1201 810 1196 q 815 1209 824 1206 q 796 1214 806 1213 q 771 1221 786 1215 q 803 1242 797 1229 q 802 1268 808 1254 q 781 1285 796 1282 q 752 1285 767 1289 q 729 1271 738 1282 q 708 1305 724 1299 q 676 1308 692 1311 q 676 1337 676 1318 q 654 1375 675 1356 q 599 1393 633 1394 q 543 1370 565 1392 q 518 1330 521 1349 q 521 1303 515 1311 q 491 1310 513 1308 q 455 1299 469 1311 q 436 1274 440 1288 q 434 1249 432 1260 q 440 1232 436 1239 q 406 1210 400 1215 q 403 1199 411 1204 q 396 1192 394 1194 q 407 1191 397 1189 q 424 1192 417 1193 q 431 1184 431 1190 q 576 1193 431 1178 m 453 -112 q 451 -112 453 -112 q 422 -89 440 -103 q 374 -70 399 -72 q 325 -72 350 -68 q 286 -84 300 -75 q 271 -105 272 -93 q 282 -128 269 -117 q 317 -150 294 -140 q 332 -154 325 -153 q 301 -164 319 -157 q 253 -133 250 -187 q 197 -85 257 -78 q 125 -174 136 -92 q 83 -283 114 -256 q 28 -308 53 -310 q -29 -312 4 -307 q -69 -347 -62 -318 q -58 -383 -75 -375 q -40 -364 -40 -392 q -6 -335 -39 -336 q 56 -325 26 -335 q 112 -290 86 -315 q 143 -194 138 -265 q 192 -110 149 -122 q 235 -154 235 -97 q 288 -189 236 -211 q 353 -181 340 -167 q 389 -199 365 -196 q 418 -197 406 -200 l 379 -253 q 364 -276 356 -257 q 421 -269 392 -297 q 499 -260 450 -242 q 574 -276 560 -285 q 590 -262 588 -276 q 569 -250 592 -249 l 499 -158 q 521 -144 515 -157 q 551 -147 535 -146 q 594 -137 575 -147 q 596 -140 596 -139 q 622 -190 617 -175 q 647 -211 626 -204 q 695 -196 668 -218 q 743 -153 722 -174 q 781 -135 764 -133 q 802 -148 797 -137 q 808 -166 807 -158 q 813 -173 808 -174 q 821 -165 818 -172 q 814 -140 824 -158 q 790 -119 804 -122 q 762 -118 776 -115 q 731 -136 747 -121 q 681 -176 714 -151 q 629 -158 647 -200 q 614 -128 621 -140 q 642 -107 629 -118 q 667 -76 660 -92 q 668 -50 674 -61 q 646 -35 663 -39 q 606 -38 629 -32 q 560 -59 583 -44 q 522 -89 536 -74 l 521 -90 q 515 -93 518 -92 l 574 -8 l 575 -8 q 813 126 772 17 q 831 506 854 235 q 772 953 808 778 q 535 1140 736 1128 q 202 1101 335 1151 q 37 883 69 1051 q 98 688 4 715 q 119 471 192 660 q 89 154 46 282 q 256 -3 132 26 q 363 -18 303 -15 l 453 -112 m 425 -137 q 408 -137 418 -137 q 369 -139 393 -137 q 328 -133 344 -140 q 306 -118 313 -125 q 300 -104 300 -111 q 313 -93 300 -97 q 340 -89 325 -89 q 380 -92 356 -89 q 417 -106 404 -94 q 432 -118 425 -112 q 425 -131 428 -122 q 425 -137 425 -135 m 603 -111 q 597 -104 600 -107 q 564 -83 582 -90 q 561 -82 563 -82 q 567 -78 564 -79 q 605 -59 586 -62 q 632 -57 624 -56 q 644 -65 640 -58 q 641 -83 649 -72 q 619 -101 633 -93 q 603 -111 613 -106 m 514 -118 q 514 -117 514 -118 q 522 -110 518 -112 l 522 -108 q 556 -103 538 -101 q 583 -122 569 -106 q 544 -131 563 -133 q 522 -129 532 -129 q 514 -118 521 -122 m 497 -128 q 499 -117 489 -131 q 508 -104 503 -111 l 501 -114 q 511 -117 507 -115 q 514 -118 513 -118 q 501 -126 507 -124 l 499 -128 l 497 -128 m 431 -150 q 438 -156 433 -153 q 408 -175 431 -167 q 367 -164 382 -186 q 363 -158 365 -161 l 367 -158 q 414 -156 394 -160 q 431 -150 424 -153 m 233 731 q 151 728 194 724 q 91 762 108 733 q 103 890 74 790 q 119 765 104 779 q 151 744 133 751 q 233 731 168 738 m 389 1028 q 571 1035 476 1051 q 703 927 665 1019 q 678 510 742 835 q 643 915 675 869 q 572 983 611 961 q 389 1028 533 1004 z "},"2":{"ha":1231,"x_min":32,"x_max":1240,"o":"m 244 265 q 228 139 217 196 q 308 30 240 82 q 481 8 375 -22 q 300 76 367 18 q 244 265 233 133 m 1140 217 q 1140 330 1156 281 q 1059 417 1124 379 q 906 418 994 454 q 1053 372 989 415 q 1140 217 1117 329 m 624 385 q 599 319 593 342 q 619 274 606 296 q 659 243 633 253 q 713 240 685 233 q 769 299 742 246 q 690 274 728 267 q 633 322 653 281 q 624 385 614 364 m 915 1160 q 858 1307 935 1238 l 863 1310 q 946 1208 950 1246 q 1085 1208 967 1228 l 1089 1203 q 922 1156 1014 1215 l 915 1160 m 611 1225 q 597 1225 611 1225 q 580 1215 583 1225 q 447 1202 576 1204 q 317 1219 317 1200 q 219 1209 304 1218 q 130 1213 135 1200 q 113 1223 125 1225 q 84 1222 100 1221 q 67 1228 68 1222 q 80 1242 65 1233 q 94 1259 94 1250 q 106 1277 93 1268 q 139 1294 118 1286 q 134 1335 132 1301 q 158 1387 136 1368 q 208 1408 181 1406 q 240 1404 235 1410 q 242 1440 238 1415 q 274 1494 246 1464 q 350 1531 303 1525 q 428 1503 397 1536 q 462 1442 460 1471 q 464 1408 464 1413 q 490 1424 469 1425 q 515 1406 510 1422 q 537 1444 515 1422 q 595 1469 558 1465 q 656 1450 632 1472 q 683 1407 681 1428 q 682 1389 685 1386 q 712 1381 700 1392 q 725 1360 724 1369 q 754 1366 736 1368 q 785 1354 772 1364 q 798 1326 797 1344 q 794 1303 799 1308 q 783 1292 789 1297 q 810 1285 803 1286 q 824 1280 818 1283 q 827 1272 829 1276 q 819 1264 825 1267 q 805 1259 814 1261 q 789 1256 796 1257 q 779 1255 782 1256 q 774 1247 776 1254 q 705 1233 771 1240 q 611 1225 639 1225 m 588 1244 q 749 1258 747 1251 q 752 1265 750 1264 q 771 1268 754 1267 q 794 1273 788 1269 q 790 1278 801 1276 q 773 1283 779 1281 q 754 1290 767 1285 q 778 1310 774 1300 q 776 1331 782 1321 q 760 1344 771 1340 q 738 1344 750 1349 q 713 1322 725 1340 q 695 1367 710 1361 q 656 1365 681 1374 q 665 1397 668 1379 q 644 1431 661 1414 q 597 1447 628 1449 q 545 1426 565 1446 q 522 1372 525 1407 q 484 1401 500 1404 q 449 1376 468 1399 q 443 1426 443 1401 q 417 1476 443 1451 q 351 1500 392 1501 q 285 1470 311 1499 q 256 1418 258 1442 q 258 1385 253 1394 q 224 1392 250 1390 q 181 1379 197 1394 q 160 1346 164 1364 q 157 1315 156 1328 q 165 1292 158 1301 q 125 1263 118 1269 q 121 1249 132 1256 q 112 1239 110 1243 q 125 1238 114 1235 q 144 1238 136 1240 q 153 1228 153 1236 q 325 1240 154 1219 q 431 1219 317 1217 q 557 1224 546 1221 q 588 1244 568 1228 m 726 -143 q 728 -146 728 -144 q 751 -146 739 -144 q 769 -143 760 -147 q 735 -139 749 -133 q 726 -143 731 -142 m 794 -132 q 825 -114 813 -122 q 844 -94 838 -104 q 847 -78 851 -83 q 833 -69 843 -72 q 806 -71 824 -67 q 771 -91 789 -75 q 739 -117 753 -107 q 732 -121 736 -118 l 733 -121 q 775 -119 757 -111 q 794 -132 786 -124 m 638 -139 q 622 -128 631 -133 q 585 -115 610 -117 q 542 -115 560 -114 q 515 -120 525 -115 q 505 -133 504 -125 q 511 -146 506 -140 q 533 -158 517 -151 q 571 -164 549 -167 q 589 -147 579 -156 q 638 -139 613 -126 m 563 -44 q 497 -56 529 -49 q 283 -55 360 -83 q 152 74 206 -26 q 199 325 99 175 q 433 590 300 475 q 513 741 565 704 q 422 669 461 778 q 292 532 382 561 q 107 592 201 503 q 39 801 13 681 q 119 990 65 922 q 261 1113 174 1057 q 479 1184 349 1168 q 722 1180 610 1200 q 917 1088 835 1160 q 1023 912 999 1017 q 1006 701 1047 807 q 797 484 964 594 q 683 339 631 374 q 797 426 735 304 q 997 524 860 549 q 1181 401 1133 499 q 1208 194 1228 303 q 1083 35 1188 85 q 806 -22 978 -15 q 774 -24 789 -22 l 706 -132 q 728 -104 715 -118 q 762 -74 740 -89 q 807 -51 783 -58 q 847 -47 831 -44 q 869 -60 864 -49 q 869 -86 875 -71 q 847 -118 864 -101 q 808 -149 829 -135 l 807 -149 q 817 -189 819 -169 q 865 -235 814 -208 q 874 -303 917 -262 q 869 -368 831 -343 q 965 -349 908 -393 q 1058 -306 1022 -304 q 1121 -326 1094 -308 q 1169 -370 1147 -344 q 1213 -376 1192 -396 q 1240 -376 1235 -357 q 1219 -410 1246 -394 q 1167 -403 1193 -426 q 1126 -358 1142 -379 q 1072 -333 1111 -337 q 963 -376 1032 -328 q 848 -382 893 -425 q 845 -303 803 -339 q 838 -242 888 -267 q 794 -189 789 -217 q 789 -158 799 -171 q 758 -164 774 -162 l 726 -162 q 706 -178 721 -175 l 782 -264 q 801 -277 804 -264 q 785 -292 799 -290 q 711 -278 772 -299 q 633 -292 661 -262 q 578 -300 604 -321 q 592 -278 568 -281 l 650 -183 q 633 -175 644 -183 l 633 -174 q 621 -178 628 -176 q 589 -183 607 -182 q 542 -225 567 -207 q 479 -245 515 -243 q 386 -203 443 -247 q 290 -183 329 -158 q 294 -249 251 -208 q 286 -317 338 -289 q 238 -364 235 -344 q 227 -404 240 -383 q 196 -433 214 -425 q 155 -432 178 -442 q 137 -414 132 -422 q 156 -413 142 -406 q 196 -406 171 -421 q 216 -364 221 -392 q 260 -310 211 -336 q 266 -249 308 -285 q 269 -170 224 -214 q 383 -175 314 -126 q 492 -218 451 -224 q 547 -192 532 -212 q 554 -182 550 -187 q 522 -175 538 -181 q 487 -158 500 -168 q 475 -135 474 -147 q 490 -112 476 -122 q 528 -97 503 -101 q 578 -94 553 -93 q 628 -111 603 -94 q 657 -133 646 -124 l 563 -44 m 129 778 q 119 694 111 732 q 171 624 126 657 q 285 610 215 590 q 180 656 224 618 q 129 778 136 694 m 911 690 q 936 885 954 797 q 814 1053 918 974 q 547 1088 710 1133 q 794 976 692 1065 q 911 690 896 888 z "},"3":{"ha":1290,"x_min":19,"x_max":1322,"o":"m 996 776 q 969 972 1032 900 q 788 1082 906 1043 q 1006 1014 938 1081 q 1065 890 1074 947 q 996 776 1057 833 m 1003 569 q 1131 535 1085 571 q 1179 408 1176 500 q 1088 217 1182 317 q 1125 415 1136 322 q 1003 569 1114 507 m 446 429 q 515 273 478 325 q 622 207 553 221 q 786 249 692 193 q 676 169 744 172 q 565 183 608 165 q 496 236 521 200 q 453 310 471 272 q 446 429 435 347 m 213 1175 q 106 1229 183 1229 l 106 1235 q 203 1218 186 1242 q 282 1290 206 1240 l 288 1288 q 217 1176 239 1257 l 213 1175 m 975 -203 q 1124 -156 1022 -139 l 1125 -149 q 996 -147 1022 -122 q 906 -40 997 -119 l 900 -42 q 968 -199 957 -92 l 975 -203 m 418 1251 q 633 1319 486 1343 l 633 1331 q 446 1332 485 1368 q 317 1486 449 1372 l 308 1485 q 406 1257 390 1413 l 418 1251 m 767 1231 q 756 1230 767 1231 q 722 1226 746 1228 q 674 1246 697 1225 q 665 1247 672 1247 q 642 1247 658 1246 q 626 1253 626 1249 q 661 1272 626 1258 q 649 1301 650 1279 q 669 1344 649 1324 q 719 1367 689 1364 q 761 1363 740 1368 q 773 1385 760 1372 q 801 1392 786 1399 q 797 1427 797 1400 q 828 1483 797 1454 q 903 1514 858 1513 q 984 1487 949 1515 q 1024 1418 1019 1458 q 1050 1423 1029 1422 q 1093 1407 1071 1424 q 1115 1361 1115 1390 q 1097 1314 1114 1332 q 1146 1299 1131 1306 q 1153 1279 1157 1286 q 1158 1267 1150 1272 q 1178 1259 1167 1263 q 1184 1253 1190 1256 q 1166 1249 1178 1250 q 1147 1249 1154 1249 q 1136 1245 1139 1249 q 1129 1233 1133 1242 q 994 1225 1125 1225 q 878 1243 871 1225 q 828 1239 858 1240 q 767 1231 788 1235 m 775 1251 q 783 1253 775 1251 q 838 1261 790 1254 q 882 1264 863 1263 q 976 1240 874 1250 q 1096 1249 1089 1246 q 1106 1258 1103 1253 q 1111 1263 1108 1263 q 1123 1263 1114 1263 q 1137 1264 1132 1263 q 1133 1267 1142 1265 q 1123 1274 1124 1269 q 1124 1283 1122 1279 q 1097 1300 1126 1288 q 1076 1308 1088 1306 q 1095 1357 1097 1329 q 1068 1399 1093 1385 q 1026 1408 1043 1413 q 1003 1401 1010 1403 q 973 1468 1003 1443 q 899 1492 943 1493 q 832 1462 854 1490 q 813 1410 810 1433 q 818 1376 815 1386 q 783 1375 794 1386 q 771 1344 772 1364 q 704 1348 729 1364 q 675 1313 679 1332 q 689 1276 671 1293 q 664 1267 671 1272 q 675 1261 657 1261 q 704 1253 693 1261 q 738 1247 715 1246 q 775 1251 760 1249 m 549 -210 q 551 -203 550 -206 q 589 -169 556 -178 q 594 -171 592 -171 q 621 -179 611 -175 q 625 -181 622 -179 q 624 -190 622 -185 q 621 -192 622 -190 q 595 -205 610 -197 q 556 -210 581 -212 l 549 -210 m 554 -161 q 531 -193 536 -175 q 522 -206 529 -200 q 514 -204 518 -206 q 487 -195 497 -201 q 479 -181 476 -189 q 489 -169 482 -174 q 514 -160 496 -164 q 554 -161 531 -157 m 792 -133 q 774 -129 782 -131 q 722 -140 747 -125 q 708 -150 713 -146 q 731 -119 713 -135 q 764 -95 750 -103 q 790 -85 778 -87 q 806 -87 801 -82 q 808 -102 810 -93 q 796 -126 806 -111 q 792 -133 793 -129 m 774 -149 q 765 -154 769 -151 q 731 -175 744 -167 q 724 -179 728 -178 l 724 -175 q 717 -164 721 -168 q 725 -158 719 -161 q 774 -149 739 -146 m 644 -167 q 638 -168 642 -167 q 635 -164 636 -167 q 590 -146 617 -146 q 581 -147 586 -146 q 557 -142 569 -144 q 506 -141 529 -137 q 468 -153 483 -144 q 452 -174 453 -161 q 463 -199 451 -186 q 497 -218 474 -211 q 489 -221 493 -219 q 444 -267 451 -229 q 408 -301 436 -304 q 338 -259 379 -299 q 263 -208 297 -219 q 197 -201 229 -196 q 134 -221 164 -206 q 91 -210 104 -236 q 67 -199 78 -185 q 73 -239 56 -214 q 123 -253 90 -264 q 178 -230 156 -243 q 240 -228 200 -217 q 340 -291 279 -239 q 435 -322 400 -343 q 469 -272 469 -300 q 507 -236 468 -244 q 532 -228 522 -233 q 544 -229 538 -228 q 596 -222 568 -233 q 632 -204 618 -212 q 638 -210 635 -207 l 638 -211 l 639 -210 q 653 -212 644 -212 l 594 -312 q 576 -328 572 -315 q 593 -339 581 -340 q 665 -311 608 -343 q 744 -312 713 -287 q 801 -312 776 -336 q 785 -292 807 -292 l 704 -206 q 718 -197 713 -201 q 738 -192 726 -194 q 779 -169 757 -185 q 800 -151 790 -161 q 824 -207 849 -161 q 865 -261 796 -253 q 889 -312 933 -269 q 885 -399 844 -356 q 999 -395 925 -442 q 1120 -351 1072 -349 q 1185 -374 1168 -353 q 1234 -421 1203 -396 q 1294 -424 1265 -446 q 1323 -387 1324 -401 q 1296 -399 1322 -372 q 1233 -392 1269 -426 q 1178 -339 1196 -358 q 1099 -326 1161 -319 q 985 -374 1038 -333 q 902 -384 933 -414 q 913 -309 871 -354 q 885 -251 954 -264 q 842 -201 817 -237 q 833 -149 867 -165 q 811 -139 822 -143 q 815 -135 813 -136 q 834 -99 829 -115 q 831 -73 839 -82 q 805 -64 822 -64 q 767 -74 788 -64 q 750 -82 758 -78 l 774 -51 q 1003 19 885 -29 q 1254 370 1243 117 q 1019 660 1265 624 q 1101 1017 1213 828 q 708 1192 989 1207 q 249 1126 426 1178 q 76 872 72 1074 q 257 638 81 669 q 509 685 433 606 q 574 818 585 765 q 660 881 564 871 q 758 821 756 892 q 635 749 761 750 q 482 598 508 747 q 585 449 456 449 q 719 380 715 449 q 638 298 722 311 q 499 433 553 285 q 273 583 446 581 q 47 460 100 585 q 49 199 -7 335 q 221 3 106 64 q 549 -69 336 -58 l 557 -69 l 644 -167 m 110 442 q 185 140 76 240 q 457 4 293 39 q 207 78 311 -1 q 85 247 103 158 q 110 442 67 335 m 163 982 q 231 760 154 826 q 425 694 308 694 q 233 720 308 663 q 144 841 157 778 q 163 982 131 904 m 554 629 q 574 531 546 556 q 668 504 601 507 q 577 506 617 489 q 539 559 538 522 q 554 629 540 596 z "},"4":{"ha":1294,"x_min":22,"x_max":1254,"o":"m 710 807 q 812 991 789 918 q 787 1114 835 1064 q 647 1142 739 1164 q 763 1050 742 1114 q 710 807 783 986 m 256 697 q 135 424 138 563 q 203 245 133 285 q 388 221 272 206 q 185 315 253 228 q 256 697 118 403 m 1144 228 q 1178 419 1200 346 q 1101 535 1156 493 q 929 561 1046 578 q 1078 474 1004 551 q 1144 228 1151 397 m 1079 1118 q 1129 1226 1068 1178 l 1125 1231 q 1060 1157 1058 1186 q 953 1164 1043 1172 l 950 1158 q 1075 1115 1007 1164 l 1079 1118 m 843 1249 q 758 1481 878 1368 l 765 1488 q 892 1328 899 1385 q 1111 1322 926 1356 l 1115 1314 q 856 1243 999 1333 l 843 1249 m 538 -231 q 549 -221 540 -224 l 547 -219 q 528 -202 542 -211 q 496 -177 514 -193 q 460 -157 478 -161 q 433 -155 443 -153 q 419 -163 424 -157 q 422 -180 414 -169 q 443 -199 431 -190 q 477 -222 456 -208 q 514 -233 499 -235 q 538 -231 528 -231 m 629 -225 q 636 -239 635 -229 l 636 -246 q 650 -247 643 -246 q 692 -250 667 -247 l 706 -251 q 711 -244 708 -247 q 756 -229 721 -225 q 761 -218 760 -224 q 751 -206 761 -211 q 724 -201 740 -201 q 683 -202 707 -200 q 644 -214 658 -204 q 629 -225 636 -221 m 669 1214 q 700 1214 678 1214 q 743 1222 732 1215 q 740 1235 754 1229 q 709 1245 725 1242 q 672 1257 693 1249 q 703 1285 696 1275 q 710 1324 711 1294 q 690 1365 708 1353 q 648 1375 671 1376 q 610 1351 625 1374 q 577 1404 603 1392 q 528 1413 551 1417 q 531 1459 531 1428 q 500 1525 532 1490 q 411 1562 468 1560 q 316 1530 354 1564 q 272 1467 278 1496 q 272 1422 267 1439 q 226 1437 261 1433 q 164 1424 190 1440 q 131 1384 138 1407 q 126 1344 125 1361 q 135 1314 126 1328 q 76 1283 65 1292 q 71 1267 86 1274 q 58 1254 56 1260 q 74 1251 60 1249 q 101 1250 89 1253 q 115 1236 114 1247 q 353 1235 115 1225 q 482 1200 339 1208 q 669 1214 563 1224 m 456 1190 q 340 1221 338 1201 q 216 1215 325 1218 q 101 1226 107 1211 q 81 1240 96 1242 q 44 1241 65 1239 q 23 1250 24 1243 q 42 1265 22 1257 q 60 1283 61 1272 q 76 1304 60 1294 q 119 1321 92 1314 q 118 1369 113 1331 q 152 1428 124 1407 q 215 1447 181 1449 q 257 1439 250 1446 q 263 1481 256 1453 q 307 1541 269 1508 q 406 1576 344 1574 q 505 1538 468 1579 q 542 1463 542 1497 q 540 1424 542 1429 q 592 1406 568 1425 q 613 1371 615 1386 q 666 1384 638 1389 q 708 1363 694 1379 q 722 1318 722 1347 q 713 1280 722 1289 q 692 1263 703 1271 q 737 1247 725 1251 q 758 1238 749 1243 q 763 1224 767 1233 q 749 1211 758 1215 q 725 1206 740 1207 l 724 1206 q 931 1065 906 1175 q 789 731 958 942 q 683 513 619 519 q 738 563 746 506 q 922 646 731 621 q 1188 572 1113 671 q 1253 320 1264 472 q 1169 108 1243 168 q 933 54 1094 47 q 836 -121 953 -100 q 704 -129 782 -131 l 611 -217 q 640 -197 622 -208 q 689 -180 664 -182 q 738 -183 714 -178 q 776 -198 763 -187 q 790 -219 789 -208 q 786 -235 792 -226 q 825 -193 833 -243 q 877 -135 815 -139 q 960 -213 939 -131 q 1015 -317 981 -296 q 1074 -334 1049 -339 q 1133 -328 1099 -329 q 1178 -356 1168 -326 q 1170 -396 1188 -385 q 1149 -378 1153 -407 q 1113 -355 1146 -350 q 1047 -356 1079 -360 q 986 -329 1015 -351 q 944 -235 957 -307 q 885 -158 931 -164 q 845 -211 839 -153 q 794 -256 851 -269 q 767 -250 779 -251 q 743 -262 757 -257 q 721 -268 732 -265 q 693 -283 710 -278 q 650 -283 668 -290 q 622 -261 633 -278 q 613 -264 618 -262 l 675 -364 q 689 -387 697 -369 q 633 -378 661 -407 q 556 -364 606 -349 q 481 -376 493 -386 q 465 -362 467 -376 q 485 -351 464 -349 l 536 -292 q 522 -296 529 -294 q 486 -287 507 -297 q 427 -264 465 -278 q 383 -295 389 -250 q 367 -357 376 -340 q 340 -387 357 -374 q 299 -393 324 -400 q 261 -377 274 -386 q 254 -362 249 -368 q 269 -362 260 -356 q 294 -373 278 -369 q 328 -369 311 -376 q 356 -323 346 -362 q 366 -268 365 -283 q 385 -240 367 -253 q 434 -240 403 -226 q 492 -267 465 -254 q 535 -272 519 -281 q 550 -258 546 -267 q 539 -247 543 -254 l 508 -247 q 458 -234 479 -247 q 420 -205 438 -221 q 397 -172 403 -189 q 397 -145 392 -156 q 419 -133 401 -135 q 460 -137 438 -131 q 504 -160 482 -144 q 540 -190 526 -175 q 549 -200 544 -194 l 497 -112 q 482 -111 489 -112 q 306 138 244 -81 q 92 583 -42 182 q 338 1110 225 983 q 456 1190 386 1164 m 361 107 q 351 33 344 67 q 398 -32 358 -1 q 500 -44 438 -62 q 406 -2 444 -36 q 361 107 367 32 m 594 594 q 542 469 535 542 q 634 383 550 396 q 769 463 718 371 q 619 450 674 411 q 594 594 564 489 z "},"5":{"ha":1132,"x_min":36,"x_max":1185,"o":"m 735 631 q 920 440 893 546 q 935 242 947 335 q 990 426 1007 335 q 910 565 974 517 q 735 631 847 613 m 371 604 q 185 740 228 683 q 167 1010 142 796 q 142 740 111 806 q 230 653 174 675 q 371 604 286 631 m 378 47 q 241 119 276 89 q 174 201 206 149 q 101 360 142 253 q 120 234 101 281 q 164 158 139 188 q 220 101 189 129 q 281 65 251 74 q 378 47 310 57 m 201 1251 q 192 1250 201 1251 q 164 1247 183 1249 q 125 1263 144 1246 q 118 1263 124 1264 q 99 1264 113 1263 q 86 1269 86 1265 q 114 1285 86 1274 q 105 1308 106 1290 q 121 1343 104 1326 q 163 1361 138 1360 q 196 1358 179 1363 q 206 1377 194 1367 q 229 1382 217 1388 q 225 1411 225 1389 q 250 1457 225 1433 q 312 1482 275 1481 q 378 1460 349 1483 q 410 1404 407 1436 q 432 1408 415 1407 q 467 1394 449 1408 q 484 1357 485 1381 q 471 1318 483 1333 q 510 1306 497 1311 q 517 1290 519 1296 q 520 1281 514 1285 q 536 1274 526 1276 q 541 1269 546 1271 q 526 1266 536 1267 q 510 1265 517 1265 q 502 1263 504 1265 q 497 1253 500 1260 q 386 1246 493 1246 q 292 1261 286 1246 q 250 1257 275 1258 q 201 1251 218 1254 m 207 1267 q 213 1268 207 1267 q 258 1275 219 1269 q 294 1278 279 1276 q 372 1258 288 1267 q 469 1265 464 1263 q 477 1272 475 1268 q 481 1276 479 1276 q 491 1276 483 1276 q 503 1278 499 1276 q 499 1281 507 1279 q 491 1286 492 1282 q 492 1294 490 1290 q 471 1307 494 1297 q 453 1314 463 1311 q 469 1353 471 1331 q 447 1388 467 1376 q 413 1395 426 1399 q 393 1390 399 1392 q 369 1444 393 1424 q 308 1464 344 1465 q 254 1440 272 1463 q 238 1397 236 1417 q 243 1369 240 1378 q 215 1369 224 1378 q 204 1343 206 1360 q 149 1347 169 1360 q 126 1317 129 1333 q 138 1288 122 1301 q 117 1280 122 1285 q 126 1275 111 1275 q 149 1269 140 1275 q 176 1264 158 1263 q 207 1267 194 1265 m 658 1310 q 511 1365 614 1376 l 511 1371 q 642 1365 617 1393 q 735 1469 642 1394 l 742 1468 q 665 1313 683 1421 l 658 1310 m 821 1446 q 933 1488 856 1496 l 933 1493 q 835 1488 854 1508 q 764 1567 835 1510 l 758 1565 q 817 1447 803 1529 l 821 1446 m 811 1146 q 953 1038 919 1107 q 978 886 988 968 q 998 1038 1026 968 q 923 1130 969 1107 q 811 1146 876 1153 m 671 -143 q 672 -146 672 -144 q 696 -146 683 -144 q 714 -143 704 -147 q 679 -139 693 -133 q 671 -143 675 -142 m 739 -132 q 769 -114 757 -122 q 789 -94 782 -104 q 792 -78 796 -83 q 778 -69 788 -72 q 751 -71 768 -67 q 715 -91 733 -75 q 683 -117 697 -107 q 676 -121 681 -118 l 678 -121 q 719 -119 701 -111 q 739 -132 731 -124 m 582 -139 q 567 -128 575 -133 q 529 -115 554 -117 q 487 -115 504 -114 q 459 -120 469 -115 q 449 -133 449 -125 q 456 -146 450 -140 q 478 -158 461 -151 q 515 -164 493 -167 q 533 -147 524 -156 q 582 -139 557 -126 m 510 -46 q 342 -19 415 -47 q 177 69 244 15 q 58 236 110 124 q 80 456 7 349 q 247 553 153 563 q 403 447 342 544 q 508 397 465 350 q 397 528 551 444 q 160 627 243 611 q 76 835 78 643 q 133 1106 74 1028 q 327 1178 192 1183 q 631 1204 463 1174 q 913 1208 800 1235 q 1069 1080 1026 1182 q 1088 872 1113 978 q 944 737 1063 767 q 648 803 826 707 q 464 832 469 900 q 699 730 458 764 q 1006 575 939 696 q 1058 343 1074 454 q 977 144 1042 232 q 807 14 913 57 q 722 -15 767 -4 l 650 -132 q 672 -104 660 -118 q 706 -74 685 -89 q 751 -51 728 -58 q 792 -47 775 -44 q 814 -60 808 -49 q 814 -86 819 -71 q 791 -118 808 -101 q 753 -149 774 -135 l 751 -149 q 761 -189 764 -169 q 810 -235 758 -208 q 818 -303 861 -262 q 814 -368 775 -343 q 910 -349 853 -393 q 1003 -306 967 -304 q 1065 -326 1039 -308 q 1114 -370 1092 -344 q 1158 -376 1136 -396 q 1185 -376 1179 -357 q 1164 -410 1190 -394 q 1112 -403 1138 -426 q 1071 -358 1086 -379 q 1016 -333 1056 -337 q 907 -376 976 -328 q 792 -382 838 -425 q 790 -303 747 -339 q 783 -242 832 -267 q 739 -189 733 -217 q 733 -158 743 -171 q 703 -164 718 -162 l 671 -162 q 650 -178 665 -175 l 726 -264 q 746 -277 749 -264 q 729 -292 743 -290 q 656 -278 717 -299 q 577 -292 606 -262 q 522 -300 549 -321 q 536 -278 513 -281 l 594 -183 q 578 -175 589 -183 l 578 -174 q 565 -178 572 -176 q 533 -183 551 -182 q 486 -225 511 -207 q 424 -245 460 -243 q 331 -203 388 -247 q 235 -183 274 -158 q 239 -249 196 -208 q 231 -317 282 -289 q 182 -364 179 -344 q 172 -404 185 -383 q 140 -433 158 -425 q 99 -432 122 -442 q 81 -414 76 -422 q 101 -413 86 -406 q 140 -406 115 -421 q 160 -364 165 -392 q 204 -310 156 -336 q 210 -249 253 -285 q 213 -170 168 -214 q 327 -175 258 -126 q 436 -218 396 -224 q 492 -192 476 -212 q 499 -182 494 -187 q 467 -175 482 -181 q 431 -158 444 -168 q 419 -135 418 -147 q 434 -112 421 -122 q 472 -97 447 -101 q 522 -94 497 -93 q 572 -111 547 -94 q 601 -133 590 -124 l 510 -46 m 503 928 q 371 888 407 960 q 382 772 335 817 q 494 746 429 728 q 413 817 438 756 q 503 928 389 879 z "},"6":{"ha":1257,"x_min":-165,"x_max":1258,"o":"m 690 372 q 736 385 690 372 q 792 488 783 399 q 731 619 800 576 q 592 644 661 661 q 494 546 522 626 q 531 405 465 465 q 690 372 596 344 m 982 986 q 1034 1058 1028 1021 q 1015 1154 1040 1096 q 883 1214 989 1213 q 994 1127 960 1199 q 982 986 1029 1056 m 194 1097 q 47 1153 150 1164 l 47 1158 q 178 1153 153 1181 q 271 1257 178 1182 l 278 1256 q 201 1100 219 1208 l 194 1097 m 317 1313 q 429 1354 351 1363 l 429 1360 q 331 1354 350 1375 q 260 1433 331 1376 l 254 1432 q 313 1314 299 1396 l 317 1313 m 1082 308 q 1113 499 1124 404 q 1017 706 1103 594 q 792 818 931 818 q 995 635 914 754 q 1082 308 1076 515 m 446 -154 q 458 -142 449 -144 q 446 -122 454 -132 q 428 -99 438 -111 q 407 -106 418 -99 q 394 -136 396 -114 q 425 -150 411 -149 q 446 -154 436 -153 m 413 -81 q 385 -57 400 -65 q 358 -46 367 -47 q 342 -51 349 -44 q 339 -69 335 -57 q 354 -96 343 -82 q 374 -117 361 -106 q 378 -107 375 -111 q 400 -85 388 -93 q 413 -81 404 -81 m 463 -114 l 460 -108 q 463 -114 461 -111 m 553 -164 q 554 -172 554 -168 l 554 -181 q 576 -186 563 -183 q 611 -196 590 -190 q 594 -175 603 -186 q 553 -164 579 -151 m 654 -204 l 664 -203 q 692 -194 683 -200 q 703 -181 701 -189 q 693 -165 706 -172 q 664 -153 681 -158 q 619 -146 647 -149 q 606 -144 613 -144 q 639 -189 626 -168 q 654 -204 643 -197 m 1003 -176 q 928 -183 996 -178 q 854 -181 861 -189 q 830 -175 847 -172 q 803 -176 813 -178 q 769 -161 794 -174 q 851 -126 843 -142 q 853 -83 842 -103 q 888 -54 864 -62 q 929 -47 913 -46 q 953 -54 946 -49 q 951 -35 949 -50 q 969 -1 954 -21 q 1024 22 985 19 q 1085 5 1064 25 q 1107 -35 1106 -15 q 1106 -57 1108 -56 q 1140 -51 1124 -46 q 1161 -75 1156 -57 q 1192 -69 1171 -64 q 1223 -85 1213 -74 q 1234 -112 1233 -96 q 1229 -133 1235 -128 q 1218 -142 1224 -139 q 1245 -150 1239 -149 q 1256 -154 1251 -151 q 1258 -162 1260 -157 q 1252 -169 1257 -167 q 1239 -173 1247 -172 q 1224 -174 1231 -174 q 1215 -175 1218 -174 q 1210 -183 1213 -176 q 1105 -190 1208 -190 q 1003 -176 1001 -190 m 1007 -164 q 1097 -176 1007 -176 q 1190 -170 1188 -176 q 1194 -163 1192 -164 q 1201 -162 1196 -162 q 1213 -162 1206 -162 q 1226 -159 1221 -161 q 1233 -155 1231 -157 q 1225 -151 1235 -153 q 1214 -146 1215 -150 q 1201 -143 1213 -142 q 1220 -124 1217 -132 q 1218 -103 1224 -115 q 1202 -85 1213 -92 q 1178 -79 1192 -78 q 1156 -93 1164 -81 q 1131 -62 1149 -69 q 1096 -72 1114 -54 q 1099 -45 1100 -62 q 1079 -11 1097 -28 q 1026 3 1061 6 q 978 -15 992 1 q 962 -45 964 -32 q 963 -69 960 -58 q 938 -62 949 -71 q 899 -62 928 -54 q 863 -87 871 -71 q 871 -128 856 -103 q 824 -157 867 -135 q 833 -165 825 -162 q 856 -165 840 -167 q 878 -169 872 -164 q 942 -170 883 -174 q 1007 -164 1000 -167 m 425 -28 l 424 -28 q 162 180 267 26 q 51 508 57 333 q 130 843 46 683 q 356 1092 214 1003 q 656 1225 499 1181 q 930 1264 814 1269 q 1078 1149 1046 1258 q 1068 976 1111 1040 q 901 886 1025 911 q 1192 533 1169 790 q 1078 128 1215 276 q 761 -50 942 -19 q 626 -62 692 -62 l 526 -146 l 531 -147 q 553 -132 538 -139 q 582 -129 568 -125 q 632 -125 608 -121 q 684 -137 658 -128 q 722 -162 710 -147 q 733 -190 735 -176 q 714 -211 731 -203 q 703 -218 708 -215 q 818 -206 743 -222 q 922 -222 903 -189 q 922 -276 940 -254 q 934 -322 903 -299 q 952 -372 965 -346 q 971 -417 939 -397 q 1006 -419 988 -425 q 1032 -401 1024 -414 l 1039 -412 q 1002 -439 1028 -431 q 953 -435 976 -447 q 931 -408 942 -428 q 928 -369 921 -387 q 908 -328 936 -351 q 897 -270 881 -306 q 885 -226 913 -235 q 797 -232 857 -217 q 700 -242 738 -247 q 647 -225 669 -237 q 617 -221 632 -225 q 567 -204 588 -214 q 546 -192 556 -199 q 524 -197 538 -197 l 578 -315 q 589 -342 603 -321 q 531 -342 557 -360 q 425 -325 506 -325 q 364 -301 376 -312 q 350 -283 350 -299 q 375 -272 350 -267 l 468 -189 q 447 -174 453 -185 q 414 -167 433 -172 q 394 -158 404 -162 q 389 -203 394 -185 q 365 -235 381 -225 q 337 -249 350 -246 q 278 -251 324 -253 q 215 -263 232 -250 q 195 -294 199 -276 q 193 -337 192 -312 q 176 -383 194 -361 q 133 -403 157 -404 q 90 -392 108 -401 q 34 -360 71 -383 q -26 -358 -3 -337 q -61 -400 -49 -378 q -88 -428 -74 -422 q -118 -435 -103 -435 q -149 -419 -133 -436 q -165 -395 -165 -403 q -160 -385 -165 -387 q -152 -390 -156 -383 q -139 -406 -149 -396 q -112 -413 -129 -415 q -80 -383 -96 -411 q -46 -340 -64 -354 q -10 -326 -28 -326 q 21 -328 8 -325 q 73 -358 33 -332 q 133 -380 113 -383 q 162 -362 154 -376 q 169 -326 169 -349 q 175 -281 168 -304 q 203 -245 182 -257 q 245 -231 224 -233 q 310 -227 267 -228 q 361 -199 353 -226 q 369 -146 369 -171 l 369 -143 q 364 -139 367 -142 q 329 -96 343 -119 q 314 -53 315 -72 q 322 -26 313 -35 q 350 -19 332 -17 q 391 -34 368 -21 q 433 -71 414 -47 q 444 -85 439 -78 q 450 -86 447 -86 l 425 -28 m 193 246 q 228 175 207 204 q 265 128 249 146 q 304 90 281 110 q 373 49 328 69 q 479 15 418 28 q 347 76 385 51 q 270 140 308 101 q 193 246 232 179 m 400 556 q 377 408 363 468 q 417 310 392 349 q 484 246 443 272 q 599 221 525 219 q 721 271 674 222 q 546 263 614 233 q 431 361 478 292 q 400 556 383 431 z "},"7":{"ha":1221,"x_min":-61,"x_max":1188,"o":"m 368 1168 q 228 1162 351 1165 q 99 1176 106 1158 q 76 1191 93 1193 q 35 1192 58 1189 q 10 1202 11 1194 q 32 1218 10 1210 q 53 1239 54 1226 q 70 1263 53 1251 q 119 1282 88 1274 q 117 1335 111 1292 q 156 1401 124 1378 q 228 1424 189 1425 q 275 1414 267 1422 q 281 1462 272 1431 q 331 1530 289 1493 q 443 1569 374 1567 q 554 1526 513 1572 q 596 1442 596 1481 q 594 1397 596 1404 q 652 1377 625 1399 q 675 1338 679 1356 q 736 1353 704 1358 q 783 1329 768 1347 q 799 1278 799 1311 q 788 1235 799 1246 q 765 1215 778 1225 q 816 1199 803 1203 q 839 1189 829 1194 q 844 1173 849 1183 q 830 1158 840 1163 q 802 1152 819 1153 q 772 1151 785 1151 q 755 1149 760 1151 q 744 1134 750 1147 q 552 1131 739 1121 q 368 1168 365 1142 m 382 1189 q 539 1149 365 1158 q 715 1152 713 1140 q 722 1165 717 1164 q 760 1166 726 1165 q 807 1174 794 1167 q 803 1189 819 1182 q 770 1200 788 1196 q 731 1213 753 1204 q 764 1243 756 1233 q 771 1285 772 1253 q 749 1331 769 1318 q 703 1342 729 1343 q 663 1315 678 1340 q 626 1373 654 1360 q 572 1382 599 1386 q 577 1433 576 1399 q 543 1504 578 1467 q 446 1544 508 1542 q 342 1510 383 1547 q 294 1442 300 1474 q 294 1393 288 1410 q 243 1408 282 1404 q 176 1394 204 1413 q 141 1350 149 1375 q 135 1307 133 1325 q 144 1275 136 1289 q 81 1240 69 1250 q 75 1223 92 1231 q 61 1210 58 1215 q 79 1206 64 1204 q 108 1205 94 1207 q 122 1190 121 1203 q 382 1189 122 1178 m 464 356 q 367 193 407 276 q 367 50 328 110 q 499 -8 406 -10 q 391 111 393 51 q 464 356 389 171 m 1063 568 q 1122 769 1119 683 q 1040 938 1124 856 q 764 1011 956 1021 q 985 888 883 982 q 1063 568 1088 794 m 143 854 q 117 766 118 804 q 154 690 117 728 q 278 657 192 651 q 178 713 224 671 q 143 854 132 754 m 968 -249 q 874 -124 967 -169 l 876 -118 q 983 -192 976 -156 q 1118 -154 999 -168 l 1122 -158 q 976 -250 1047 -168 l 968 -249 m 124 344 q 52 337 115 343 q -15 340 -11 331 q -27 347 -18 349 q -48 345 -36 344 q -61 349 -60 346 q -51 358 -62 353 q -41 370 -40 364 q -33 383 -42 376 q -8 394 -24 389 q -12 421 -14 399 q 6 456 -10 443 q 42 470 22 469 q 67 467 63 471 q 68 492 65 475 q 92 528 71 508 q 147 552 113 549 q 206 534 182 556 q 231 493 229 513 q 232 469 232 474 q 258 462 247 471 q 268 444 269 453 q 299 454 282 456 q 328 443 317 453 q 341 417 340 433 q 337 394 342 400 q 326 383 332 388 q 352 376 344 378 q 365 372 360 375 q 369 364 371 369 q 362 356 367 358 q 348 351 357 353 q 332 349 339 350 q 322 348 325 349 q 317 340 319 347 q 219 332 315 333 q 124 344 124 331 m 129 358 q 208 343 124 342 q 294 351 293 344 q 297 358 294 357 q 315 360 299 358 q 338 365 332 361 q 336 372 344 369 q 319 376 328 375 q 299 382 311 378 q 326 401 321 390 q 325 424 331 411 q 307 439 319 436 q 282 439 294 442 q 263 426 269 436 q 243 456 257 450 q 217 458 229 461 q 216 483 217 467 q 197 517 215 500 q 149 532 179 533 q 100 512 119 531 q 78 477 81 493 q 81 454 76 461 q 55 460 74 458 q 24 451 36 461 q 8 428 11 440 q 6 408 4 417 q 11 392 7 399 q -19 373 -24 378 q -22 364 -14 368 q -28 357 -29 360 q -18 356 -26 354 q -3 357 -10 358 q 3 350 3 356 q 129 358 3 344 m 528 -179 l 529 -178 q 517 -167 524 -174 q 480 -149 504 -154 q 440 -143 456 -144 q 413 -145 424 -142 q 401 -156 401 -149 q 406 -169 400 -162 q 425 -185 411 -175 q 451 -194 436 -192 q 453 -192 453 -193 q 490 -171 471 -175 q 528 -179 508 -167 m 611 -186 q 619 -196 618 -190 q 643 -201 629 -199 q 683 -195 660 -206 q 719 -178 706 -185 q 741 -162 732 -171 q 747 -146 750 -153 q 734 -135 743 -139 q 707 -134 725 -132 q 669 -149 689 -136 q 634 -169 649 -162 q 613 -183 619 -176 l 611 -186 m 469 -76 q 285 114 258 -44 q 466 490 315 296 q 559 699 617 685 q 501 650 501 714 q 318 579 500 586 q 78 689 136 572 q 95 935 21 806 q 250 1101 169 1065 q 534 1122 331 1136 q 1007 1046 738 1108 q 1145 568 1276 983 q 922 28 1014 153 q 678 -82 854 -67 l 611 -167 q 622 -156 617 -161 q 662 -131 638 -143 q 710 -114 686 -118 q 751 -115 733 -110 q 772 -131 768 -119 q 767 -157 775 -142 q 740 -186 760 -172 q 699 -210 721 -200 q 647 -218 676 -221 q 615 -214 629 -217 q 606 -224 613 -221 q 618 -239 607 -232 q 660 -239 632 -249 q 722 -219 689 -229 q 770 -226 754 -210 q 785 -257 786 -242 q 789 -312 785 -272 q 809 -362 793 -353 q 842 -369 825 -371 q 870 -362 860 -368 q 885 -363 881 -357 q 876 -377 889 -369 q 836 -388 863 -385 q 795 -376 810 -392 q 773 -344 781 -361 q 765 -281 765 -326 q 726 -244 765 -236 q 664 -260 686 -253 q 628 -264 642 -267 q 614 -258 619 -261 l 657 -324 q 676 -337 679 -324 q 658 -349 672 -350 q 585 -326 644 -357 q 506 -330 538 -304 q 450 -332 475 -356 q 467 -311 443 -312 l 542 -221 q 526 -211 532 -217 q 508 -214 518 -212 q 463 -215 489 -217 q 458 -236 457 -224 q 404 -279 458 -264 q 385 -337 350 -294 q 368 -414 419 -379 q 258 -387 317 -449 q 158 -324 199 -326 q 98 -340 118 -322 q 49 -376 78 -357 q -3 -374 19 -394 q -17 -335 -26 -353 q 10 -340 -7 -317 q 53 -342 26 -362 q 110 -308 81 -321 q 177 -301 140 -296 q 260 -360 214 -306 q 349 -397 307 -415 q 358 -332 392 -379 q 379 -267 324 -285 q 436 -231 435 -250 q 440 -211 436 -221 q 413 -201 425 -208 q 379 -178 390 -190 q 371 -153 368 -165 q 388 -133 374 -142 q 428 -123 403 -125 q 477 -126 453 -121 q 524 -151 501 -132 q 549 -175 539 -165 q 550 -175 550 -175 l 469 -76 m 521 -197 q 494 -196 510 -193 q 506 -197 500 -197 l 521 -197 z "},"8":{"ha":1168,"x_min":38,"x_max":1176,"o":"m 587 326 q 636 323 587 326 q 694 383 686 319 q 611 468 703 446 q 503 412 519 490 q 587 326 488 333 m 644 640 q 694 637 644 640 q 751 697 744 633 q 667 783 758 760 q 560 726 575 806 q 644 640 544 647 m 1031 657 q 1059 835 1072 753 q 951 992 1046 917 q 711 1029 857 1067 q 931 922 842 1007 q 1031 657 1021 836 m 1076 156 q 1114 292 1118 226 q 1044 423 1110 357 q 861 472 979 489 q 1022 370 960 444 q 1076 156 1085 296 m 451 449 q 427 370 431 403 q 432 317 424 338 q 474 273 440 296 q 544 250 507 250 q 624 282 581 250 q 517 285 557 265 q 465 344 478 306 q 451 449 453 382 m 500 760 q 481 682 481 713 q 487 629 481 651 q 524 579 493 607 q 594 553 554 551 q 672 592 633 554 q 567 597 607 575 q 515 655 528 618 q 500 760 503 692 m 233 843 q 209 779 217 819 q 239 685 201 739 q 368 613 276 631 q 247 716 275 664 q 233 843 219 768 m 114 342 q 124 194 107 254 q 221 70 142 135 q 449 13 300 6 q 219 116 300 38 q 114 342 138 194 m 1024 -196 q 876 -140 979 -129 l 876 -135 q 1007 -140 982 -112 q 1100 -36 1007 -111 l 1107 -37 q 1031 -193 1049 -85 l 1024 -196 m 267 1115 q 379 1157 301 1165 l 379 1163 q 281 1157 300 1178 q 210 1236 281 1179 l 204 1235 q 263 1117 249 1199 l 267 1115 m 610 1161 q 625 1161 610 1161 q 643 1151 639 1161 q 780 1138 647 1140 q 913 1157 913 1136 q 1013 1145 925 1154 q 1106 1149 1100 1136 q 1123 1160 1111 1163 q 1151 1158 1135 1158 q 1169 1165 1168 1158 q 1156 1179 1171 1171 q 1141 1197 1140 1188 q 1129 1215 1142 1206 q 1096 1233 1117 1225 q 1101 1274 1103 1240 q 1076 1328 1099 1308 q 1025 1349 1053 1347 q 992 1344 997 1350 q 990 1382 994 1357 q 957 1438 986 1407 q 880 1475 928 1469 q 799 1447 832 1481 q 764 1384 767 1414 q 763 1350 761 1354 q 736 1366 757 1368 q 710 1347 715 1364 q 688 1386 710 1364 q 628 1412 665 1408 q 565 1392 590 1415 q 538 1348 540 1369 q 539 1329 536 1326 q 508 1321 521 1332 q 494 1300 496 1310 q 465 1306 483 1308 q 433 1294 446 1304 q 419 1266 421 1285 q 424 1241 418 1247 q 436 1231 429 1235 q 408 1223 415 1224 q 394 1219 400 1222 q 390 1210 389 1215 q 397 1201 392 1204 q 413 1197 403 1199 q 429 1194 422 1194 q 439 1192 436 1193 q 444 1184 442 1192 q 515 1169 447 1176 q 610 1161 582 1161 m 635 1182 q 470 1195 471 1189 q 467 1203 469 1201 q 447 1206 465 1204 q 423 1211 429 1207 q 428 1217 417 1215 q 446 1221 439 1218 q 465 1228 453 1224 q 440 1249 444 1239 q 442 1270 436 1260 q 458 1284 447 1281 q 482 1284 469 1288 q 507 1263 494 1281 q 526 1308 511 1301 q 567 1306 540 1314 q 556 1338 553 1319 q 576 1373 560 1356 q 626 1390 593 1390 q 679 1369 658 1389 q 703 1313 700 1349 q 742 1342 726 1344 q 779 1317 758 1340 q 784 1369 783 1343 q 810 1419 785 1394 q 878 1444 836 1444 q 946 1414 919 1443 q 975 1360 972 1385 q 972 1326 978 1335 q 1009 1333 982 1332 q 1053 1319 1036 1335 q 1074 1285 1071 1304 q 1077 1253 1078 1267 q 1068 1229 1076 1240 q 1110 1200 1117 1207 q 1114 1187 1103 1193 q 1123 1176 1125 1181 q 1110 1174 1121 1172 q 1090 1175 1099 1176 q 1081 1165 1082 1174 q 906 1178 1081 1157 q 795 1156 913 1153 q 667 1161 678 1158 q 635 1182 656 1164 m 586 -174 q 589 -175 588 -174 q 593 -169 590 -172 q 586 -174 589 -171 m 600 -200 q 619 -226 604 -215 q 669 -222 651 -242 q 672 -222 671 -222 q 644 -214 657 -219 q 601 -200 615 -197 l 600 -200 m 599 -186 l 599 -189 q 608 -186 603 -187 q 643 -196 621 -178 q 699 -200 665 -214 q 720 -171 733 -186 q 695 -153 707 -156 q 669 -144 683 -150 q 632 -152 656 -139 q 597 -168 608 -165 q 593 -169 596 -168 l 604 -171 q 599 -186 599 -178 m 457 -172 q 468 -161 461 -165 q 494 -153 481 -154 q 503 -153 499 -151 l 500 -151 q 465 -137 486 -146 q 427 -130 444 -129 q 402 -134 410 -131 q 385 -140 394 -137 q 392 -155 375 -143 q 418 -161 408 -167 q 456 -172 428 -156 l 457 -172 m 506 -197 q 497 -200 501 -199 q 465 -199 481 -203 l 464 -200 q 442 -242 454 -226 q 413 -267 429 -258 q 366 -271 397 -275 q 316 -243 335 -267 q 265 -250 297 -219 q 192 -258 233 -281 q 124 -281 151 -236 q 111 -349 97 -325 q 111 -378 125 -372 q 82 -351 97 -383 q 104 -258 67 -318 q 187 -223 142 -199 q 270 -221 232 -247 q 322 -217 308 -194 q 371 -244 336 -240 q 422 -230 406 -249 q 447 -190 439 -211 l 447 -189 q 408 -179 426 -174 q 369 -163 390 -185 q 358 -132 347 -142 q 383 -117 369 -122 q 421 -111 397 -111 q 469 -119 444 -111 q 508 -136 493 -128 l 472 -69 l 413 -62 q 147 60 275 -35 q 42 343 19 154 q 275 567 65 532 q 153 814 131 646 q 313 1058 175 982 q 688 1111 451 1133 q 1047 1010 924 1089 q 1149 740 1169 932 q 932 524 1129 549 q 1168 351 1136 510 q 1113 81 1200 192 q 893 -42 1025 -29 q 661 -82 775 -53 l 676 -83 l 590 -156 q 624 -139 603 -150 q 678 -123 661 -118 q 714 -139 694 -128 q 742 -162 733 -150 q 751 -189 751 -174 q 714 -215 751 -203 q 725 -219 719 -217 q 773 -211 760 -235 q 825 -190 786 -187 q 883 -245 864 -192 q 928 -327 901 -299 q 978 -358 956 -356 q 1034 -367 1001 -360 q 1067 -403 1067 -375 q 1053 -435 1068 -432 q 1039 -415 1038 -437 q 1008 -388 1040 -393 q 949 -371 976 -383 q 900 -331 922 -358 q 868 -271 878 -304 q 837 -219 858 -237 q 789 -228 815 -201 q 729 -241 763 -256 q 682 -240 696 -226 q 644 -253 668 -254 q 608 -246 619 -253 q 585 -214 590 -233 q 575 -217 581 -215 l 631 -312 q 643 -335 654 -318 q 590 -325 615 -354 q 517 -307 564 -296 q 444 -317 457 -324 q 430 -302 431 -315 q 451 -292 429 -289 l 526 -211 q 506 -197 511 -208 m 513 -172 q 492 -172 504 -168 q 475 -182 482 -174 q 497 -183 489 -186 q 504 -181 501 -182 q 513 -172 506 -175 m 522 -161 q 522 -161 522 -161 q 521 -161 522 -161 q 522 -161 522 -161 z "},"9":{"ha":1221,"x_min":0,"x_max":1281,"o":"m 526 821 q 481 801 526 821 q 440 693 436 782 q 517 571 443 604 q 658 564 592 538 q 742 674 725 590 q 688 808 760 757 q 526 821 615 860 m 361 783 q 332 637 319 697 q 368 538 344 576 q 431 470 392 499 q 545 440 471 442 q 669 485 619 438 q 494 484 561 451 q 383 588 428 517 q 361 783 339 660 m 315 174 q 272 95 274 133 q 304 3 271 57 q 442 -39 338 -51 q 321 33 364 -33 q 315 174 278 99 m 789 1282 q 685 1272 778 1279 q 583 1276 593 1265 q 549 1283 572 1288 q 513 1283 525 1279 q 465 1303 500 1286 q 579 1351 567 1329 q 581 1413 565 1385 q 629 1451 596 1440 q 686 1461 663 1463 q 718 1451 710 1460 q 717 1478 713 1457 q 742 1526 721 1499 q 818 1558 764 1554 q 901 1533 872 1561 q 933 1478 931 1506 q 931 1449 935 1450 q 978 1456 956 1464 q 1007 1422 1000 1449 q 1049 1431 1021 1438 q 1092 1409 1078 1424 q 1108 1372 1107 1394 q 1101 1342 1108 1350 q 1086 1329 1094 1335 q 1123 1319 1114 1321 q 1138 1313 1132 1317 q 1142 1303 1144 1310 q 1133 1292 1140 1296 q 1115 1287 1126 1288 q 1094 1285 1103 1286 q 1083 1283 1086 1285 q 1076 1272 1079 1282 q 929 1263 1072 1263 q 789 1282 786 1263 m 215 1219 q 68 1275 171 1286 l 68 1281 q 199 1275 174 1303 q 292 1379 199 1304 l 299 1378 q 222 1222 240 1331 l 215 1219 m 1085 46 q 1197 88 1119 96 l 1197 93 q 1099 88 1118 108 q 1028 167 1099 110 l 1022 165 q 1081 47 1067 129 l 1085 46 m 794 1299 q 918 1282 793 1282 q 1047 1290 1043 1282 q 1053 1300 1050 1299 q 1063 1301 1056 1301 q 1080 1302 1069 1301 q 1097 1306 1090 1303 q 1106 1313 1103 1310 q 1096 1317 1110 1315 q 1081 1324 1082 1318 q 1063 1328 1079 1331 q 1090 1355 1085 1343 q 1087 1383 1094 1367 q 1064 1409 1079 1400 q 1030 1417 1049 1418 q 1000 1397 1011 1415 q 966 1441 990 1431 q 917 1426 942 1451 q 921 1464 922 1440 q 894 1511 919 1488 q 821 1531 868 1535 q 754 1505 774 1528 q 731 1464 735 1482 q 733 1431 728 1446 q 699 1440 714 1429 q 645 1440 685 1451 q 595 1407 606 1429 q 603 1349 585 1385 q 540 1310 600 1339 q 553 1299 542 1301 q 585 1298 564 1296 q 615 1292 607 1300 q 704 1290 624 1285 q 794 1299 785 1296 m 1074 649 q 1062 847 1100 733 q 925 1057 1024 961 q 689 1154 826 1153 q 931 964 815 1103 q 1074 649 1047 825 m 639 -165 q 636 -164 638 -165 q 608 -168 624 -160 q 596 -183 600 -172 q 619 -181 610 -183 q 640 -174 631 -176 q 639 -165 639 -169 m 619 -143 q 581 -128 603 -136 q 537 -120 557 -119 q 508 -124 517 -121 q 497 -137 500 -128 q 504 -155 494 -146 q 531 -169 514 -164 q 571 -181 546 -176 q 581 -165 575 -171 q 604 -146 592 -153 q 619 -143 610 -143 m 736 -126 q 742 -133 740 -129 q 746 -139 744 -136 q 768 -133 756 -137 q 801 -124 782 -129 q 778 -114 790 -119 q 736 -126 751 -101 m 842 -108 q 850 -103 847 -106 q 872 -81 867 -90 q 874 -64 876 -72 q 858 -56 872 -56 q 826 -60 843 -56 q 785 -76 810 -65 q 772 -83 778 -79 q 822 -103 801 -92 q 842 -108 831 -108 m 544 -67 q 403 -94 468 -89 q 240 0 286 -104 q 228 174 194 104 q 382 283 263 243 q 49 596 104 344 q 109 1012 -7 847 q 400 1231 225 1176 q 738 1251 575 1285 q 1025 1079 901 1218 q 1176 767 1149 940 q 1142 426 1204 594 q 950 150 1079 257 q 754 19 857 74 l 704 -124 q 708 -122 707 -122 q 719 -100 711 -112 q 744 -82 731 -86 q 783 -53 763 -61 q 835 -37 808 -42 q 881 -38 863 -32 q 903 -56 899 -44 q 900 -83 908 -68 q 890 -97 896 -90 q 986 -28 928 -79 q 1083 13 1050 31 q 1110 -34 1115 -6 q 1144 -67 1106 -62 q 1185 -100 1183 -71 q 1225 -129 1188 -129 q 1256 -114 1243 -128 q 1269 -85 1268 -100 l 1281 -90 q 1263 -133 1281 -112 q 1218 -154 1244 -153 q 1186 -142 1206 -154 q 1164 -110 1167 -129 q 1126 -85 1161 -90 q 1086 -42 1090 -81 q 1053 -9 1082 -3 q 981 -59 1025 -15 q 903 -118 938 -103 q 847 -131 874 -131 q 819 -142 835 -137 q 769 -153 792 -151 q 744 -154 757 -154 q 728 -169 740 -162 l 835 -243 q 858 -261 860 -236 q 809 -290 840 -292 q 708 -331 778 -289 q 644 -342 661 -344 q 623 -332 631 -346 q 639 -310 615 -318 l 676 -192 q 651 -189 661 -196 q 618 -200 638 -194 q 590 -204 604 -203 l 590 -208 q 576 -262 588 -242 q 549 -290 565 -282 q 519 -300 532 -299 q 460 -294 506 -301 q 397 -297 415 -286 q 372 -324 378 -307 q 365 -366 367 -342 q 341 -409 363 -390 q 295 -423 319 -428 q 253 -406 271 -418 q 203 -367 236 -394 q 145 -356 171 -339 q 103 -392 119 -372 q 72 -417 88 -412 q 42 -419 57 -421 q 13 -399 26 -418 q 1 -373 0 -381 q 8 -364 3 -365 q 15 -369 13 -362 q 26 -387 18 -376 q 51 -398 35 -397 q 88 -373 68 -399 q 127 -335 107 -347 q 165 -326 147 -324 q 195 -333 183 -328 q 242 -369 207 -339 q 299 -400 278 -400 q 329 -387 319 -400 q 342 -353 339 -375 q 354 -308 344 -331 q 387 -276 364 -285 q 431 -268 410 -268 q 495 -274 453 -268 q 550 -253 538 -279 q 565 -203 563 -226 l 561 -201 q 509 -183 533 -196 q 474 -154 485 -169 q 467 -126 464 -139 q 488 -106 471 -112 q 531 -98 504 -99 q 586 -108 557 -97 q 631 -128 614 -118 l 544 -67 z "}," ":{"ha":403,"x_min":0,"x_max":0,"o":""},"!":{"ha":915,"x_min":-50,"x_max":1038,"o":"m 643 608 q 734 811 696 646 q 766 1018 772 976 q 729 1091 760 1060 q 601 1144 699 1122 q 682 1071 660 1100 q 703 951 704 1042 q 643 608 703 860 m 696 184 q 688 182 696 184 q 660 179 679 181 q 621 193 640 178 q 614 194 619 194 q 595 194 608 193 q 581 199 582 194 q 610 215 581 203 q 599 238 600 219 q 613 273 597 256 q 654 293 629 290 q 688 292 671 294 q 697 310 686 300 q 721 317 707 321 q 715 346 715 324 q 738 392 714 368 q 799 419 763 417 q 865 400 835 422 q 899 346 896 378 q 922 350 906 349 q 960 335 939 351 q 983 296 981 319 q 969 258 985 272 q 1001 247 988 251 q 1011 236 1014 242 q 1015 226 1008 231 q 1031 220 1021 222 q 1037 215 1042 218 q 1022 212 1032 213 q 1006 210 1013 211 q 997 208 1000 210 q 992 198 994 206 q 882 186 989 190 q 788 199 782 183 q 746 192 771 194 q 696 184 713 188 m 703 197 q 709 199 703 197 q 753 207 715 200 q 789 211 774 210 q 868 194 783 200 q 965 205 960 203 q 972 211 971 207 q 976 216 974 215 q 985 217 978 217 q 997 219 993 218 q 994 222 1001 219 q 985 228 986 224 q 986 235 983 232 q 965 247 989 239 q 946 254 956 250 q 960 295 964 272 q 937 328 957 318 q 903 333 917 338 q 883 328 889 329 q 858 383 882 363 q 797 400 833 403 q 744 372 761 397 q 729 328 726 347 q 735 301 732 310 q 706 301 715 311 q 697 275 697 292 q 642 275 661 289 q 619 244 622 261 q 633 215 617 228 q 612 206 618 211 q 620 202 606 201 q 644 197 635 203 q 672 192 654 190 q 703 197 690 194 m 67 224 q 51 350 99 281 l 54 354 q 100 257 111 286 q 213 231 122 268 l 214 224 q 72 219 156 247 l 67 224 m 176 565 q 176 463 175 511 q 222 372 176 415 q 392 336 267 329 q 237 410 281 356 q 176 565 193 465 m 611 -1 q 618 80 642 33 q 535 149 594 126 q 440 154 476 172 q 542 119 510 147 q 593 60 574 92 q 611 -1 613 29 m 463 -210 q 486 -214 474 -211 q 525 -208 501 -218 q 500 -186 513 -189 q 468 -187 483 -183 q 456 -197 461 -193 q 454 -197 456 -197 q 463 -210 461 -203 m 544 -200 q 563 -192 556 -194 q 585 -174 576 -183 q 590 -158 593 -164 q 578 -149 588 -151 q 552 -148 569 -146 q 514 -161 535 -150 q 504 -167 508 -164 q 507 -167 506 -167 q 539 -192 526 -176 q 544 -200 542 -194 m 268 -153 q 256 -156 261 -154 q 244 -166 244 -160 q 249 -179 243 -172 q 269 -196 254 -186 q 276 -200 272 -197 q 269 -167 268 -189 q 268 -153 269 -160 m 324 -207 q 350 -208 339 -207 q 364 -210 357 -210 q 365 -204 364 -207 q 368 -197 367 -200 q 324 -207 351 -197 m 289 -153 q 339 -183 288 -201 q 361 -178 351 -179 q 325 -160 349 -165 q 289 -153 304 -156 m 336 260 q 211 292 269 269 q 65 785 89 339 q 220 1233 40 1232 q 621 1206 400 1233 q 847 1030 842 1179 q 799 723 851 881 q 708 416 746 565 q 503 256 671 267 q 472 201 438 233 q 638 139 596 183 q 675 24 682 90 q 586 -72 668 -43 q 529 -87 558 -82 l 460 -172 q 465 -169 463 -171 l 467 -168 q 506 -143 481 -156 q 553 -127 531 -131 q 594 -128 576 -124 q 615 -144 611 -133 q 611 -169 619 -154 q 583 -199 603 -185 q 554 -217 569 -208 q 567 -247 560 -229 q 617 -270 581 -290 q 671 -235 653 -250 q 703 -219 689 -221 q 731 -224 718 -218 q 752 -247 744 -229 q 757 -272 760 -265 q 749 -280 754 -279 q 744 -273 744 -281 q 740 -255 743 -265 q 719 -240 736 -244 q 680 -254 703 -236 q 628 -292 657 -272 q 581 -302 600 -311 q 556 -278 561 -293 q 535 -226 551 -264 q 492 -231 515 -232 q 460 -225 474 -228 q 436 -237 453 -237 l 500 -335 q 518 -349 522 -335 q 501 -361 514 -362 q 428 -337 486 -369 q 350 -341 382 -315 q 293 -342 318 -367 q 310 -322 286 -322 l 386 -232 q 371 -222 375 -228 q 353 -226 363 -225 q 306 -226 332 -229 q 257 -212 279 -224 q 224 -188 235 -201 q 215 -163 213 -175 q 233 -143 218 -151 q 264 -135 244 -136 q 225 -118 254 -111 q 173 -200 179 -128 q 140 -297 167 -272 q 81 -328 113 -321 q 16 -333 50 -335 q -19 -360 -18 -331 q -37 -379 -21 -389 q -49 -340 -54 -369 q -8 -308 -43 -311 q 53 -309 28 -306 q 110 -287 79 -312 q 155 -177 142 -261 q 232 -92 168 -93 q 290 -133 286 -92 q 321 -137 306 -135 q 368 -162 346 -143 q 383 -176 376 -169 q 389 -179 386 -178 l 322 -90 q 218 -51 265 -79 q 150 69 139 -7 q 236 183 161 146 q 357 210 282 207 q 336 260 388 231 m 214 68 q 209 15 193 46 q 264 -31 225 -17 q 326 -35 303 -46 q 259 -11 281 -29 q 225 28 238 7 q 214 68 213 49 z "},"\"":{"ha":961,"x_min":22,"x_max":950,"o":"m 64 972 q 91 897 69 922 q 134 855 113 871 q 203 829 156 839 q 116 885 142 860 q 64 972 90 911 m 439 810 q 459 961 465 879 q 394 1115 453 1043 q 251 1193 335 1186 q 405 1057 350 1149 q 439 810 460 965 m 508 972 q 535 897 514 922 q 578 855 557 871 q 647 829 600 839 q 560 885 586 860 q 508 972 535 911 m 883 810 q 903 961 910 879 q 838 1115 897 1043 q 696 1193 779 1186 q 849 1057 794 1149 q 883 810 904 965 m 504 881 q 500 858 503 869 q 447 714 485 771 q 362 628 410 657 q 272 596 314 599 q 207 615 231 593 q 182 667 183 636 q 203 722 181 699 q 217 735 210 729 q 199 785 203 757 q 87 850 144 799 q 24 993 29 901 q 85 1157 19 1085 q 243 1234 151 1229 q 403 1178 335 1239 q 479 1074 454 1133 q 531 1157 494 1118 q 688 1234 596 1229 q 847 1178 779 1239 q 938 1032 915 1118 q 945 858 961 946 q 892 714 929 771 q 806 628 854 657 q 717 596 758 599 q 651 615 675 593 q 626 667 628 636 q 647 722 625 699 q 661 735 654 729 q 643 785 647 757 q 531 850 589 799 q 504 881 515 864 z "},"&":{"ha":1378,"x_min":29,"x_max":1353,"o":"m 541 362 q 485 363 541 362 q 426 435 429 364 q 528 523 424 506 q 642 450 632 540 q 541 362 653 360 m 499 791 q 443 792 499 791 q 385 864 388 793 q 486 952 382 935 q 601 879 590 969 q 499 791 611 789 m 1214 590 q 1211 713 1249 675 q 1101 756 1174 750 q 1222 742 1183 776 q 1264 673 1260 708 q 1214 590 1268 638 m 1263 111 q 1210 272 1261 219 q 1081 340 1158 324 q 1229 317 1171 360 q 1288 222 1288 275 q 1263 111 1289 168 m 403 514 q 382 393 364 451 q 443 310 400 335 q 560 300 486 285 q 469 268 511 267 q 392 297 428 269 q 349 347 357 324 q 340 417 340 371 q 403 514 339 463 m 358 950 q 327 838 314 899 q 383 753 340 778 q 500 743 426 728 q 411 703 456 703 q 333 735 367 703 q 294 792 300 767 q 288 865 288 818 q 358 950 289 913 m 108 281 q 172 142 135 183 q 279 94 208 101 q 176 108 219 67 q 119 188 132 150 q 108 281 107 225 m 840 833 q 753 1041 817 975 q 546 1132 689 1107 q 755 1090 676 1158 q 847 967 833 1022 q 840 833 860 913 m 1140 881 q 946 954 1081 968 l 946 961 q 1118 954 1085 990 q 1240 1090 1118 992 l 1250 1089 q 1149 885 1172 1026 l 1140 881 m 1190 1164 q 1339 1218 1236 1229 l 1339 1225 q 1210 1218 1235 1246 q 1115 1322 1210 1247 l 1108 1321 q 1185 1165 1167 1274 l 1190 1164 m 859 1246 q 873 1246 859 1246 q 949 1253 886 1246 q 1015 1268 1013 1261 q 1021 1276 1018 1275 q 1031 1277 1024 1276 q 1047 1279 1038 1278 q 1060 1283 1056 1281 q 1067 1292 1065 1286 q 1064 1300 1069 1297 q 1051 1304 1058 1303 q 1025 1311 1043 1306 q 1035 1322 1031 1315 q 1039 1345 1040 1328 q 1026 1372 1038 1363 q 997 1383 1015 1381 q 968 1376 979 1385 q 956 1397 968 1386 q 926 1404 944 1407 q 928 1422 929 1403 q 902 1464 926 1442 q 842 1482 878 1486 q 786 1458 807 1478 q 767 1421 765 1438 q 741 1438 761 1436 q 715 1424 721 1440 q 715 1456 717 1428 q 682 1516 713 1485 q 606 1542 651 1547 q 533 1507 560 1536 q 501 1454 506 1478 q 500 1419 497 1431 q 468 1423 494 1425 q 420 1403 442 1421 q 394 1355 399 1385 q 403 1314 390 1325 q 370 1297 382 1306 q 359 1278 358 1288 q 345 1262 360 1269 q 332 1249 331 1254 q 349 1243 333 1243 q 376 1245 364 1243 q 392 1234 388 1247 q 480 1230 397 1221 q 574 1242 563 1239 q 699 1224 574 1221 q 828 1236 825 1226 q 859 1246 832 1246 m 544 -128 q 539 -132 542 -129 q 517 -136 531 -137 q 531 -122 522 -125 q 550 -118 542 -115 q 544 -128 546 -122 m 633 -96 q 663 -73 643 -92 q 698 -56 683 -54 q 724 -58 713 -58 q 753 -71 736 -58 q 739 -104 769 -83 q 682 -112 708 -125 q 646 -110 656 -100 q 639 -114 642 -112 q 624 -101 635 -104 q 633 -96 628 -99 m 558 -107 q 549 -103 553 -104 q 560 -107 554 -104 l 561 -108 q 558 -107 560 -107 m 528 -103 q 506 -118 515 -108 q 496 -132 499 -122 l 494 -132 q 456 -129 464 -122 q 428 -129 447 -136 q 419 -117 410 -122 q 435 -106 428 -111 q 458 -96 442 -100 q 497 -95 475 -92 q 535 -100 519 -99 q 543 -101 539 -100 q 528 -103 535 -100 m 893 711 q 894 707 893 708 q 867 599 904 628 q 796 592 831 569 q 819 631 761 614 q 893 711 861 642 m 836 1265 q 806 1246 817 1249 q 685 1241 796 1243 q 581 1261 574 1239 q 416 1249 417 1242 q 407 1259 415 1257 q 388 1259 399 1261 q 376 1260 378 1257 q 384 1269 374 1264 q 388 1282 394 1275 q 419 1303 382 1289 q 426 1310 428 1306 q 418 1327 424 1314 q 419 1360 413 1340 q 442 1395 426 1381 q 484 1408 458 1410 q 518 1401 510 1407 q 515 1433 513 1410 q 543 1483 518 1456 q 608 1512 568 1511 q 672 1489 647 1513 q 696 1441 696 1465 q 701 1393 696 1417 q 735 1417 719 1414 q 772 1389 750 1419 q 794 1441 775 1422 q 844 1461 814 1460 q 891 1446 875 1463 q 910 1412 907 1429 q 901 1382 914 1394 q 940 1383 926 1389 q 957 1340 954 1378 q 981 1362 969 1358 q 1003 1362 993 1365 q 1019 1349 1014 1358 q 1019 1329 1024 1339 q 997 1310 1015 1319 q 1015 1302 1008 1304 q 1031 1299 1021 1300 q 1035 1293 1042 1297 q 1013 1288 1029 1289 q 995 1285 997 1286 q 992 1278 993 1283 q 836 1265 990 1272 m 834 -328 q 837 -325 834 -328 q 860 -305 840 -321 q 915 -306 881 -289 q 970 -304 950 -322 q 1021 -304 990 -286 q 1039 -331 1036 -315 q 1032 -360 1042 -347 l 1044 -362 q 1056 -324 1058 -347 q 1033 -285 1053 -300 q 998 -276 1022 -278 q 959 -286 974 -274 q 912 -283 944 -299 q 851 -293 879 -268 q 803 -299 824 -318 q 775 -246 783 -279 q 747 -184 767 -212 q 700 -140 726 -156 q 657 -124 679 -129 q 688 -129 669 -124 q 754 -117 719 -139 q 786 -81 789 -96 q 772 -57 783 -67 q 740 -41 761 -47 q 701 -33 718 -35 q 651 -61 683 -32 q 622 -86 632 -78 l 678 -12 q 838 68 826 7 q 1348 151 1307 -160 q 1146 432 1389 461 q 1101 481 903 403 q 1313 683 1299 560 q 1106 797 1326 807 q 910 750 951 789 q 917 772 914 760 q 878 1042 958 899 q 579 1203 797 1185 q 228 1124 361 1222 q 99 862 96 1025 q 231 653 101 699 q 50 467 90 604 q 53 200 10 331 q 219 14 97 69 q 488 -25 308 -28 l 542 -85 q 497 -76 524 -78 q 448 -78 471 -74 q 413 -93 425 -83 q 391 -114 400 -103 q 408 -141 382 -125 q 450 -148 433 -157 q 492 -150 467 -139 q 475 -194 488 -172 q 426 -210 463 -217 q 370 -201 389 -203 q 332 -206 351 -200 q 294 -212 313 -211 q 270 -203 275 -212 q 257 -199 265 -194 q 260 -217 249 -204 q 297 -232 271 -231 q 339 -224 324 -233 q 394 -224 354 -215 q 447 -233 435 -233 q 473 -226 458 -232 q 497 -203 488 -221 q 511 -157 507 -185 l 511 -154 q 540 -149 526 -156 q 549 -143 544 -146 q 572 -154 557 -154 l 517 -249 q 499 -263 496 -250 q 517 -275 503 -276 q 585 -249 529 -279 q 660 -249 629 -226 q 713 -249 690 -272 q 697 -231 721 -229 l 621 -147 q 628 -143 625 -144 q 669 -153 651 -150 q 717 -186 693 -156 q 758 -267 742 -217 q 801 -327 774 -318 q 834 -328 828 -336 z "},"'":{"ha":525,"x_min":22,"x_max":506,"o":"m 362 628 q 338 613 362 628 q 272 596 314 599 q 207 615 231 593 q 182 667 183 636 q 203 722 181 699 q 217 735 210 729 q 199 785 203 757 q 87 850 144 799 q 24 993 29 901 q 85 1157 19 1085 q 243 1234 151 1229 q 403 1178 335 1239 q 494 1032 471 1118 q 501 858 517 946 q 447 714 485 771 q 362 628 410 657 m 64 972 q 91 897 69 922 q 134 855 113 871 q 203 829 156 839 q 116 885 142 860 q 64 972 90 911 m 439 810 q 459 961 465 879 q 394 1115 453 1043 q 251 1193 335 1186 q 405 1057 350 1149 q 439 810 460 965 z "},"(":{"ha":639,"x_min":32,"x_max":646,"o":"m 433 -310 q 353 -298 433 -310 q 176 -151 272 -286 q 49 310 81 -17 q 51 844 17 636 q 177 1180 86 1051 q 383 1334 268 1308 q 550 1309 497 1360 q 601 1178 603 1258 q 538 1067 599 1099 q 439 973 476 1035 q 399 666 401 911 q 424 230 397 421 q 528 0 450 39 q 634 -104 606 -39 q 628 -251 663 -169 q 433 -310 594 -333 m 542 1132 q 554 1214 572 1165 q 486 1289 536 1263 q 403 1300 436 1315 q 490 1258 464 1289 q 531 1195 515 1228 q 542 1132 546 1163 m 138 131 q 214 -90 153 -8 q 333 -205 275 -171 q 494 -249 392 -239 q 274 -103 353 -181 q 138 131 194 -25 z "},")":{"ha":631,"x_min":18,"x_max":611,"o":"m 238 1340 q 317 1325 238 1340 q 490 1174 397 1311 q 605 710 582 1036 q 587 176 628 383 q 451 -157 546 -31 q 242 -306 357 -283 q 75 -276 126 -328 q 22 -156 24 -224 q 82 -36 19 -89 q 191 83 144 17 q 245 378 238 149 q 232 800 253 608 q 134 1033 211 992 q 31 1140 57 1074 q 41 1287 4 1206 q 238 1340 78 1368 m 88 -99 q 71 -185 57 -131 q 137 -262 85 -239 q 222 -269 189 -285 q 133 -235 163 -257 q 89 -177 104 -212 q 88 -99 74 -142 m 521 892 q 450 1113 508 1031 q 334 1231 392 1196 q 174 1281 276 1267 q 391 1128 314 1208 q 521 892 468 1049 z "},"*":{"ha":718,"x_min":35,"x_max":672,"o":"m 90 952 q 63 962 90 952 q 35 1030 35 972 q 83 1126 36 1088 q 191 1136 129 1165 q 247 1181 253 1107 q 289 1286 240 1254 q 394 1301 338 1318 q 458 1207 451 1285 q 521 1158 465 1129 q 625 1153 576 1188 q 663 1061 674 1119 q 598 980 653 1003 q 604 930 543 957 q 672 845 665 903 q 625 754 679 788 q 526 753 571 721 q 478 732 482 786 q 428 649 475 678 q 329 646 382 621 q 267 727 276 671 q 206 747 258 783 q 111 733 153 711 q 63 792 69 754 q 101 881 56 831 q 90 952 146 932 m 424 1172 q 421 1228 431 1199 q 377 1278 411 1258 q 303 1260 343 1297 q 378 1245 354 1260 q 424 1172 403 1231 m 628 794 q 644 837 642 811 q 626 888 646 863 q 564 897 606 913 q 617 862 603 881 q 628 794 631 843 m 635 1046 q 633 1094 642 1068 q 595 1138 625 1121 q 531 1121 565 1154 q 596 1108 575 1121 q 635 1046 617 1096 z "},",":{"ha":525,"x_min":22,"x_max":506,"o":"m 362 -192 q 338 -206 362 -192 q 272 -224 314 -221 q 207 -205 231 -226 q 182 -152 183 -183 q 203 -97 181 -121 q 217 -85 210 -90 q 199 -35 203 -62 q 87 31 144 -21 q 24 174 29 82 q 85 338 19 265 q 243 415 151 410 q 403 359 335 419 q 494 213 471 299 q 501 39 517 126 q 447 -106 485 -49 q 362 -192 410 -162 m 64 153 q 91 77 69 103 q 134 35 113 51 q 203 10 156 19 q 116 66 142 40 q 64 153 90 92 m 439 -10 q 459 142 465 60 q 394 295 453 224 q 251 374 335 367 q 405 238 350 329 q 439 -10 460 146 z "},"-":{"ha":931,"x_min":29,"x_max":901,"o":"m 33 572 q 42 623 33 572 q 194 728 51 674 q 549 765 336 782 q 838 679 763 749 q 901 514 913 610 q 752 375 889 418 q 446 336 615 332 q 145 405 276 340 q 33 572 14 469 m 811 492 q 822 608 861 542 q 686 708 783 675 q 529 715 589 740 q 696 665 643 706 q 781 581 749 625 q 811 492 814 536 m 94 542 q 144 466 104 492 q 225 424 185 440 q 354 399 265 408 q 192 455 240 429 q 94 542 143 481 z "},".":{"ha":535,"x_min":28,"x_max":476,"o":"m 31 224 q 35 275 31 224 q 114 381 40 326 q 298 418 188 435 q 447 332 408 401 q 476 170 485 263 q 400 31 467 78 q 245 -11 333 -15 q 89 58 157 -7 q 31 224 21 122 m 407 119 q 431 246 444 167 q 353 364 417 325 q 207 372 290 403 q 346 317 308 358 q 398 224 383 275 q 407 119 413 174 m 69 225 q 88 111 61 157 q 156 41 115 65 q 286 26 196 17 q 126 77 182 21 q 69 225 71 133 z "},":":{"ha":525,"x_min":29,"x_max":494,"o":"m 31 692 q 35 741 31 692 q 119 851 40 790 q 309 892 197 911 q 460 804 421 874 q 494 639 500 735 q 416 500 489 543 q 252 461 343 457 q 91 530 161 465 q 31 692 21 594 m 447 617 q 453 733 474 667 q 380 833 432 800 q 296 840 328 865 q 385 790 357 831 q 431 706 414 750 q 447 617 447 661 m 64 667 q 91 591 69 617 q 134 549 113 565 q 203 524 156 533 q 116 580 142 554 q 64 667 90 606 m 31 220 q 35 269 31 220 q 122 377 40 318 q 312 419 203 436 q 460 332 421 401 q 494 167 500 263 q 416 28 489 71 q 252 -11 343 -15 q 91 58 161 -7 q 31 220 21 122 m 447 144 q 453 261 474 194 q 380 360 432 328 q 296 368 328 393 q 385 318 357 358 q 431 233 414 278 q 447 144 447 189 m 64 194 q 91 119 69 144 q 134 77 113 93 q 203 51 156 61 q 116 108 142 82 q 64 194 90 133 z "},";":{"ha":539,"x_min":22,"x_max":506,"o":"m 362 -192 q 338 -206 362 -192 q 272 -224 314 -221 q 207 -205 231 -226 q 182 -152 183 -183 q 203 -97 181 -121 q 217 -85 210 -90 q 199 -35 203 -62 q 87 31 144 -21 q 24 174 29 82 q 85 338 19 265 q 243 415 151 410 q 403 359 335 419 q 494 213 471 299 q 501 39 517 126 q 447 -106 485 -49 q 362 -192 410 -162 m 64 153 q 91 77 69 103 q 134 35 113 51 q 203 10 156 19 q 116 66 142 40 q 64 153 90 92 m 439 -10 q 459 142 465 60 q 394 295 453 224 q 251 374 335 367 q 405 238 350 329 q 439 -10 460 146 m 31 693 q 35 742 31 693 q 122 849 40 792 q 312 890 203 906 q 460 804 421 874 q 494 639 500 735 q 416 500 489 543 q 252 461 343 457 q 91 530 161 465 q 31 693 21 594 m 447 617 q 453 733 474 667 q 380 833 432 800 q 296 840 328 865 q 385 790 357 831 q 431 706 414 750 q 447 617 447 661 m 64 667 q 91 591 69 617 q 134 549 113 565 q 203 524 156 533 q 116 580 142 554 q 64 667 90 606 z "},"?":{"ha":1258,"x_min":6,"x_max":1254,"o":"m 121 105 q 113 103 121 105 q 85 100 104 101 q 46 114 65 99 q 39 115 44 115 q 20 115 33 114 q 6 119 7 115 q 35 136 6 124 q 24 158 25 140 q 38 194 22 176 q 79 214 54 211 q 113 213 96 215 q 122 231 111 221 q 146 238 132 242 q 140 267 140 244 q 163 313 139 289 q 224 340 188 338 q 290 321 260 343 q 324 267 321 299 q 347 271 331 269 q 385 256 364 272 q 408 217 406 240 q 394 179 410 193 q 426 168 413 172 q 436 157 439 163 q 440 147 433 151 q 456 141 446 143 q 462 136 467 139 q 447 133 457 133 q 431 131 438 132 q 422 128 425 131 q 417 119 419 126 q 307 107 414 111 q 213 119 207 104 q 171 113 196 115 q 121 105 138 108 m 128 118 q 134 119 128 118 q 178 128 140 121 q 214 132 199 131 q 293 115 208 121 q 390 126 385 124 q 397 132 396 128 q 401 137 399 136 q 410 138 403 138 q 422 140 418 139 q 419 142 426 140 q 410 149 411 144 q 411 156 408 153 q 390 168 414 160 q 371 175 381 171 q 385 216 389 193 q 362 249 382 239 q 328 254 342 258 q 308 249 314 250 q 283 303 307 283 q 222 321 258 324 q 169 293 186 318 q 154 249 151 268 q 160 222 157 231 q 131 222 140 232 q 122 196 122 213 q 67 196 86 210 q 44 165 47 182 q 58 136 42 149 q 37 127 43 132 q 45 123 31 122 q 69 117 60 124 q 97 113 79 111 q 128 118 115 115 m 913 185 q 897 311 944 242 l 900 315 q 946 218 957 247 q 1058 192 968 229 l 1060 185 q 918 181 1001 208 l 913 185 m 857 -61 q 864 20 888 -26 q 781 90 840 67 q 686 94 722 113 q 788 60 756 88 q 839 1 819 32 q 857 -61 858 -31 m 786 1199 q 1001 1066 921 1156 q 1097 849 1081 976 q 1060 533 1114 721 q 1170 747 1157 628 q 1149 949 1183 865 q 1064 1087 1115 1033 q 950 1167 1013 1140 q 786 1199 888 1193 m 482 292 q 434 389 442 350 q 454 472 426 428 q 558 549 482 517 q 462 518 499 554 q 412 451 425 482 q 406 392 399 419 q 424 340 413 364 q 482 292 435 317 m 358 679 q 205 740 246 708 q 148 819 164 771 q 165 961 132 867 q 107 852 117 894 q 125 765 97 810 q 210 700 153 721 q 358 679 268 679 m 1068 57 q 956 99 1033 107 l 956 104 q 1054 99 1035 119 q 1125 178 1054 121 l 1131 176 q 1072 58 1086 140 l 1068 57 m 661 -254 q 675 -265 672 -258 q 694 -269 683 -267 q 733 -264 710 -274 q 771 -247 757 -254 q 793 -229 785 -239 q 799 -213 801 -219 q 787 -204 796 -207 q 760 -203 778 -201 q 722 -217 743 -206 q 686 -237 700 -229 q 664 -253 672 -246 q 661 -254 663 -253 m 564 -282 q 561 -282 563 -282 q 538 -283 550 -283 q 564 -282 554 -290 m 588 -250 q 569 -233 579 -243 q 533 -215 557 -221 q 493 -208 510 -210 q 465 -211 476 -207 q 452 -222 453 -215 q 457 -235 451 -228 q 478 -251 463 -242 q 517 -262 493 -261 q 558 -264 542 -262 q 575 -265 568 -265 l 576 -265 q 578 -261 578 -264 q 588 -250 581 -254 m 708 132 q 872 69 832 114 q 911 -46 918 21 q 822 -142 904 -112 q 739 -162 782 -156 l 699 -207 q 714 -199 706 -203 q 762 -183 739 -186 q 802 -184 785 -179 q 824 -199 819 -189 q 819 -225 828 -210 q 792 -255 811 -240 q 750 -279 772 -269 q 700 -286 728 -289 q 672 -282 683 -283 q 671 -283 671 -282 q 679 -293 674 -287 q 708 -313 690 -307 q 758 -295 725 -319 q 801 -260 790 -271 q 834 -252 813 -250 q 871 -285 856 -254 q 897 -342 886 -315 q 925 -374 908 -368 q 950 -372 942 -379 q 963 -358 958 -364 q 970 -354 967 -351 q 973 -365 974 -357 q 957 -384 972 -372 q 927 -394 942 -396 q 901 -384 913 -392 q 880 -355 889 -376 q 850 -298 871 -333 q 796 -292 829 -262 q 744 -328 763 -321 q 704 -333 725 -335 q 669 -310 683 -332 q 658 -290 663 -300 q 649 -292 654 -292 l 713 -378 q 731 -391 735 -379 q 714 -401 726 -403 q 640 -381 699 -408 q 563 -383 594 -361 q 506 -385 531 -406 q 522 -367 499 -367 l 572 -314 q 543 -312 560 -318 q 486 -288 508 -301 q 426 -286 464 -275 q 342 -369 388 -297 q 239 -418 297 -442 q 206 -345 181 -394 q 175 -292 232 -296 q 124 -262 118 -289 q 135 -253 129 -235 q 198 -277 140 -272 q 232 -335 256 -282 q 254 -397 208 -389 q 334 -342 300 -406 q 403 -265 368 -278 q 449 -257 426 -257 q 432 -243 439 -250 q 424 -219 421 -231 q 441 -199 426 -207 q 480 -190 456 -192 q 529 -194 504 -189 q 576 -218 554 -199 q 606 -246 594 -235 l 526 -151 q 454 -121 488 -140 q 386 0 375 -76 q 472 114 397 76 q 593 140 518 138 q 590 179 617 157 q 421 242 493 192 q 330 431 325 308 q 465 592 335 554 q 631 688 594 629 q 614 771 668 746 q 499 681 560 796 q 227 619 439 565 q 58 891 15 672 q 254 1197 101 1110 q 583 1291 407 1285 q 917 1250 760 1297 q 1185 1040 1074 1203 q 1230 644 1296 878 q 996 384 1164 411 q 811 265 828 357 q 767 199 804 221 l 779 197 q 753 190 765 194 q 728 182 742 186 q 708 132 676 161 z "},"A":{"ha":1422,"x_min":46,"x_max":1444,"o":"m 685 415 q 752 424 685 415 q 738 549 818 433 q 605 531 657 664 q 685 415 553 397 m 554 581 q 503 372 474 450 q 613 299 533 293 q 724 354 693 304 q 600 356 649 339 q 541 437 551 374 q 554 581 531 500 m 1031 744 q 951 938 1019 864 q 769 1053 882 1013 q 526 1004 656 1094 q 756 989 674 1025 q 892 911 838 953 q 1031 744 946 869 m 517 -122 q 504 -104 514 -107 q 485 -100 493 -99 q 496 -111 492 -101 q 504 -117 499 -114 q 517 -122 510 -118 m 511 -90 q 526 -101 519 -94 q 538 -128 535 -110 l 538 -133 q 568 -142 554 -140 q 592 -142 582 -144 q 602 -133 603 -139 q 594 -113 601 -126 q 572 -91 586 -100 q 540 -84 557 -82 q 511 -90 524 -86 m 385 -115 l 394 -115 q 418 -115 408 -118 q 419 -115 419 -115 q 417 -114 418 -114 q 385 -115 400 -100 m 364 -115 q 367 -111 365 -114 q 404 -92 382 -89 l 404 -92 q 374 -77 393 -81 q 341 -73 354 -74 q 317 -76 328 -72 q 307 -85 307 -79 q 312 -97 307 -92 q 330 -108 317 -101 q 363 -114 343 -115 l 364 -115 m 1032 1047 q 1154 875 1086 992 q 1250 883 1213 854 q 1369 872 1357 872 q 1385 878 1381 872 q 1393 883 1390 885 q 1408 881 1396 882 q 1425 880 1419 879 q 1417 885 1431 881 q 1404 897 1404 890 q 1409 909 1404 903 q 1383 925 1414 915 q 1353 940 1372 933 q 1379 993 1378 963 q 1356 1040 1381 1024 q 1311 1056 1331 1057 q 1282 1053 1292 1056 q 1257 1133 1288 1103 q 1178 1167 1226 1164 q 1101 1139 1129 1169 q 1072 1082 1074 1108 q 1076 1039 1069 1056 q 1035 1049 1047 1060 q 1032 1047 1033 1047 m 892 275 q 877 208 882 254 q 905 133 872 161 q 992 118 938 104 q 905 187 921 143 q 892 275 889 231 m 163 244 q 174 149 156 204 q 272 51 192 94 q 476 44 353 8 q 267 85 340 42 q 163 244 194 128 m 701 -247 q 733 -318 699 -287 q 697 -332 714 -325 q 657 -355 653 -349 q 660 -369 661 -361 q 645 -381 660 -376 q 639 -387 631 -386 q 660 -387 647 -387 q 678 -388 674 -387 q 687 -397 683 -389 q 700 -409 690 -406 q 881 -419 710 -412 q 1022 -382 1035 -404 q 1086 -389 1050 -386 q 1176 -394 1139 -393 q 1214 -403 1193 -401 q 1292 -399 1258 -414 q 1325 -379 1304 -381 q 1327 -312 1329 -339 q 1294 -265 1325 -285 q 1224 -249 1264 -244 l 1185 -274 q 1167 -217 1183 -232 q 1110 -236 1151 -201 q 1123 -168 1121 -203 q 1092 -91 1125 -133 q 993 -47 1058 -49 q 883 -82 928 -44 q 840 -181 839 -119 q 803 -172 829 -178 q 742 -186 778 -167 q 704 -232 711 -203 l 704 -237 q 701 -247 704 -244 m 694 -200 q 714 -179 703 -189 q 778 -152 749 -151 q 819 -157 807 -153 q 874 -59 822 -100 q 990 -21 925 -18 q 1092 -63 1054 -24 q 1139 -140 1131 -103 q 1131 -199 1147 -178 q 1177 -203 1157 -186 q 1193 -249 1197 -221 q 1253 -231 1222 -229 q 1327 -262 1297 -233 q 1354 -333 1357 -290 q 1352 -364 1354 -353 q 1364 -379 1350 -375 q 1388 -392 1389 -385 q 1364 -401 1386 -399 q 1325 -401 1342 -403 q 1319 -404 1322 -401 q 1240 -431 1286 -432 q 1199 -422 1218 -429 q 1099 -415 1156 -419 q 1025 -407 1057 -411 q 861 -435 1039 -435 q 669 -422 674 -435 q 659 -407 664 -410 q 643 -403 654 -404 q 615 -401 632 -403 q 590 -395 599 -400 q 598 -387 581 -390 q 627 -376 615 -383 q 632 -358 639 -368 q 649 -337 625 -349 q 703 -315 671 -328 q 676 -250 674 -290 q 685 -215 678 -231 q 667 -194 679 -203 q 618 -193 653 -187 q 576 -199 583 -199 q 554 -194 569 -199 q 532 -174 539 -189 q 521 -142 524 -161 q 496 -128 506 -135 q 482 -139 492 -133 l 547 -203 q 569 -202 564 -193 q 567 -219 574 -211 q 520 -240 549 -242 q 451 -248 492 -237 q 400 -256 411 -258 q 378 -243 381 -257 q 403 -229 376 -229 l 439 -147 q 417 -133 422 -149 q 415 -125 415 -129 q 400 -131 407 -128 q 374 -132 389 -132 q 349 -171 360 -151 q 300 -205 333 -194 q 207 -215 267 -215 q 129 -228 147 -215 q 142 -275 111 -242 q 161 -342 172 -308 q 125 -385 150 -375 q 78 -391 100 -394 q 46 -374 57 -387 l 50 -364 q 99 -372 78 -378 q 137 -343 119 -367 q 125 -288 154 -319 q 105 -228 96 -257 q 185 -198 114 -199 q 290 -187 256 -197 q 338 -156 324 -176 q 354 -131 344 -143 q 319 -122 335 -129 q 291 -104 300 -115 q 284 -84 282 -93 q 298 -68 286 -75 q 329 -58 310 -61 q 360 -58 344 -57 q 147 58 264 -36 l 136 69 q 63 285 71 136 l 61 303 q 74 506 58 390 q 232 992 122 854 q 480 1168 342 1131 q 743 1197 618 1206 q 1003 1074 868 1189 q 1026 1053 1014 1064 q 1029 1056 1028 1054 q 1065 1053 1044 1065 q 1064 1097 1060 1068 q 1099 1152 1068 1125 q 1178 1177 1131 1179 q 1260 1141 1225 1175 q 1293 1065 1294 1107 q 1324 1067 1303 1068 q 1369 1043 1346 1067 q 1391 989 1392 1019 q 1368 943 1390 958 q 1408 925 1390 931 q 1417 907 1422 914 q 1418 894 1413 900 q 1437 884 1424 888 q 1445 878 1450 881 q 1428 875 1440 875 q 1407 875 1415 875 q 1395 874 1399 875 q 1387 863 1392 872 q 1256 869 1382 854 q 1164 860 1215 840 q 1276 628 1215 775 q 1283 180 1417 293 q 1000 59 1150 67 q 831 149 850 51 q 775 244 811 247 q 738 125 739 242 q 616 -10 738 8 q 482 -82 494 -29 q 514 -76 496 -79 q 559 -68 539 -65 q 594 -85 579 -71 q 616 -117 610 -100 q 619 -143 622 -135 q 602 -157 615 -151 q 573 -160 589 -162 q 543 -153 557 -158 q 550 -165 546 -158 q 592 -181 560 -186 q 641 -175 625 -176 q 674 -179 657 -174 q 694 -200 688 -183 z "},"B":{"ha":1213,"x_min":24,"x_max":1265,"o":"m 508 383 q 557 382 508 383 q 612 444 607 381 q 524 526 617 508 q 420 465 432 544 q 508 383 408 385 m 547 699 q 597 698 547 699 q 651 761 647 697 q 563 843 656 825 q 458 781 469 861 q 547 699 447 700 m 447 -146 q 461 -135 451 -136 q 453 -129 458 -132 q 424 -104 444 -124 q 390 -86 404 -85 q 363 -87 375 -87 q 334 -99 351 -87 q 347 -133 317 -111 q 403 -143 376 -154 q 440 -142 431 -132 q 447 -146 444 -144 m 525 -140 l 521 -144 q 542 -162 540 -151 q 547 -168 544 -165 q 592 -167 561 -176 q 631 -165 622 -158 q 658 -166 639 -172 q 667 -154 676 -160 q 651 -142 658 -149 q 628 -132 644 -136 q 589 -131 611 -128 q 551 -135 567 -133 q 526 -140 536 -136 l 525 -140 m 1017 792 q 1028 903 1039 853 q 956 998 1017 954 q 803 1014 894 1042 q 945 953 886 1003 q 1017 792 1004 904 m 1047 275 q 1069 386 1075 335 q 1009 488 1064 438 q 860 518 954 538 q 994 444 942 500 q 1047 275 1047 389 m 365 497 q 347 417 349 450 q 353 365 344 385 q 397 323 363 344 q 468 304 432 301 q 546 340 504 307 q 440 339 481 321 q 385 394 400 357 q 365 497 369 431 m 397 811 q 382 732 381 763 q 390 679 383 701 q 430 631 397 657 q 502 610 463 606 q 578 653 542 614 q 474 652 514 633 q 418 708 433 671 q 397 811 403 744 m 126 376 q 97 285 104 343 q 147 155 90 228 q 331 65 203 82 q 156 201 199 131 q 126 376 113 271 m 575 -308 q 581 -318 578 -314 q 519 -357 507 -347 q 515 -374 531 -367 q 502 -387 499 -382 q 521 -390 506 -393 q 549 -390 536 -387 q 564 -403 563 -392 q 824 -383 565 -415 q 982 -410 808 -415 q 1157 -393 1156 -404 q 1162 -381 1158 -382 q 1199 -376 1165 -379 q 1245 -364 1233 -372 q 1241 -350 1257 -356 q 1208 -342 1225 -344 q 1167 -333 1190 -340 q 1198 -300 1192 -310 q 1201 -259 1204 -290 q 1176 -216 1197 -228 q 1131 -208 1156 -204 q 1090 -237 1106 -211 q 1051 -183 1079 -194 q 997 -179 1022 -172 q 997 -150 999 -168 q 981 -158 992 -154 q 940 -166 957 -169 q 888 -184 922 -162 q 841 -209 853 -206 q 814 -212 829 -212 q 783 -197 799 -211 q 755 -158 768 -183 q 725 -131 742 -133 l 717 -131 q 715 -142 715 -136 q 721 -189 713 -174 q 679 -178 708 -181 q 678 -179 678 -179 q 636 -185 651 -194 q 632 -183 633 -183 q 603 -197 617 -187 q 571 -244 576 -219 q 568 -283 565 -267 q 583 -297 586 -285 q 575 -308 581 -306 m 724 -114 q 749 -119 736 -114 q 772 -145 761 -125 q 802 -182 783 -165 q 853 -181 821 -199 q 903 -155 886 -162 q 941 -146 921 -147 q 978 -139 961 -144 q 997 -126 993 -135 q 958 -61 994 -93 q 858 -30 919 -28 q 757 -69 796 -32 q 724 -114 733 -93 m 557 -268 l 557 -261 q 589 -194 560 -221 q 608 -181 599 -186 q 594 -186 601 -182 q 544 -182 569 -196 q 538 -178 540 -181 q 513 -187 529 -189 l 557 -268 m 690 -169 q 703 -172 699 -169 q 704 -136 699 -161 q 701 -137 703 -136 q 692 -150 696 -143 q 694 -153 693 -151 q 690 -169 700 -160 m 1010 -136 q 1011 -165 1013 -160 q 1067 -180 1040 -161 q 1093 -215 1094 -199 q 1149 -196 1118 -193 q 1197 -215 1181 -199 q 1215 -264 1213 -232 q 1208 -306 1218 -296 q 1188 -325 1199 -317 q 1238 -337 1225 -335 q 1260 -345 1250 -340 q 1266 -360 1269 -350 q 1254 -375 1263 -369 q 1229 -383 1246 -381 q 1201 -385 1213 -385 q 1183 -388 1189 -386 q 1174 -404 1178 -390 q 990 -422 1171 -418 q 810 -401 808 -426 q 676 -417 794 -406 q 551 -414 558 -429 q 528 -401 544 -399 q 488 -403 511 -404 q 464 -394 465 -401 q 483 -378 463 -387 q 502 -357 504 -369 q 517 -333 500 -344 q 563 -311 535 -321 q 561 -308 561 -310 q 499 -281 544 -308 q 423 -279 454 -257 q 369 -278 392 -301 q 386 -260 363 -258 l 465 -179 q 457 -175 460 -178 q 417 -183 435 -182 q 367 -215 392 -185 q 324 -299 342 -246 q 267 -355 306 -353 q 215 -335 229 -357 q 166 -328 201 -312 q 110 -326 131 -344 q 60 -325 90 -307 q 42 -351 46 -336 q 49 -381 39 -367 l 36 -382 q 26 -344 22 -367 q 49 -306 29 -321 q 83 -298 58 -300 q 122 -308 107 -296 q 169 -307 136 -321 q 229 -317 201 -293 q 278 -324 257 -342 q 308 -273 299 -306 q 337 -212 317 -240 q 386 -171 357 -185 q 426 -156 406 -160 q 397 -160 415 -157 q 331 -146 365 -168 q 301 -109 297 -124 q 315 -85 304 -94 q 348 -71 326 -76 q 387 -64 369 -65 q 435 -92 404 -62 q 463 -115 453 -108 l 399 -26 q 161 72 265 13 q 58 564 -6 169 q 247 1065 122 958 q 610 1161 372 1171 q 974 1080 847 1151 q 1090 816 1100 1008 q 886 588 1081 624 q 1131 428 1090 586 q 1090 156 1171 271 q 877 20 1008 40 q 619 -40 746 0 l 546 -119 q 589 -111 563 -112 q 638 -115 615 -110 q 674 -131 661 -121 q 683 -139 679 -136 q 694 -128 686 -135 q 708 -118 701 -121 q 747 -58 718 -92 q 851 -13 785 -19 q 961 -47 918 -7 q 1007 -115 1000 -82 q 1008 -115 1008 -115 q 1011 -133 1018 -117 q 1010 -136 1011 -135 m 325 1283 q 93 1371 256 1389 l 93 1381 q 299 1371 260 1415 q 446 1536 299 1418 l 457 1533 q 336 1288 365 1460 l 325 1283 m 489 1243 q 601 1285 524 1293 l 601 1290 q 503 1285 522 1306 q 432 1364 503 1307 l 426 1363 q 485 1244 471 1326 l 489 1243 m 876 1165 q 805 1158 868 1164 q 738 1160 742 1151 q 726 1167 735 1169 q 705 1166 717 1165 q 692 1171 693 1167 q 701 1180 690 1175 q 712 1191 713 1185 q 720 1203 711 1197 q 744 1215 729 1210 q 741 1242 739 1219 q 759 1277 743 1264 q 795 1291 775 1290 q 819 1288 815 1292 q 821 1312 818 1296 q 844 1349 824 1328 q 900 1373 865 1369 q 958 1355 935 1376 q 983 1314 982 1333 q 985 1292 985 1294 q 1011 1283 1000 1292 q 1021 1265 1022 1274 q 1052 1275 1035 1276 q 1081 1264 1069 1274 q 1094 1237 1093 1254 q 1090 1214 1094 1219 q 1079 1204 1085 1208 q 1105 1197 1097 1199 q 1118 1193 1113 1196 q 1122 1185 1124 1190 q 1115 1177 1119 1179 q 1101 1173 1110 1175 q 1085 1170 1092 1171 q 1075 1169 1078 1169 q 1070 1161 1072 1168 q 972 1153 1068 1154 q 876 1165 876 1151 m 882 1179 q 961 1164 876 1163 q 1047 1172 1046 1165 q 1049 1178 1047 1178 q 1068 1181 1051 1179 q 1091 1186 1085 1182 q 1089 1193 1097 1190 q 1072 1198 1081 1196 q 1051 1203 1064 1200 q 1078 1222 1074 1211 q 1078 1245 1083 1232 q 1060 1260 1072 1258 q 1035 1260 1047 1263 q 1015 1247 1022 1258 q 996 1276 1010 1269 q 969 1279 982 1282 q 969 1303 969 1286 q 950 1336 968 1319 q 902 1352 932 1353 q 853 1333 872 1351 q 831 1298 833 1314 q 833 1275 829 1282 q 808 1281 826 1279 q 776 1272 789 1282 q 760 1249 764 1261 q 758 1228 757 1236 q 764 1213 760 1219 q 734 1194 729 1199 q 731 1185 739 1189 q 725 1178 724 1181 q 735 1176 726 1175 q 749 1177 743 1178 q 756 1171 756 1176 q 882 1179 756 1165 z "},"C":{"ha":1268,"x_min":-71,"x_max":1261,"o":"m 410 -49 q 394 -50 401 -50 q 386 -56 389 -51 q 393 -60 389 -57 q 410 -74 399 -67 q 438 -92 421 -81 q 449 -99 443 -96 q 433 -58 456 -79 q 410 -49 422 -50 m 467 -103 l 468 -104 q 491 -103 483 -106 q 501 -96 499 -101 q 498 -83 504 -90 q 481 -68 492 -75 q 458 -56 472 -64 q 464 -74 463 -62 q 467 -103 472 -90 m 278 -39 q 299 -39 290 -37 q 321 -35 311 -37 q 331 -33 326 -33 q 322 -26 328 -29 q 300 -24 313 -19 q 278 -39 282 -29 m 301 -7 q 274 0 292 -1 q 239 2 251 3 q 217 -3 226 1 q 207 -13 207 -7 q 213 -25 207 -19 q 232 -35 218 -31 q 265 -39 247 -40 q 276 -22 267 -31 q 294 -10 288 -11 q 301 -7 299 -8 m 565 747 q 467 628 481 676 q 458 538 453 581 q 500 440 464 494 q 626 360 536 386 q 772 403 715 333 q 599 438 671 383 q 519 561 528 493 q 565 747 511 629 m 1144 303 q 1194 384 1192 351 q 1195 453 1197 417 q 1165 522 1193 490 q 1079 582 1138 553 q 961 582 1021 611 q 1106 531 1056 574 q 1163 438 1157 488 q 1144 303 1168 389 m 958 781 q 1003 904 1000 847 q 971 1010 1006 961 q 885 1081 936 1060 q 740 1108 835 1101 q 903 1028 858 1072 q 963 934 947 985 q 958 781 978 883 m 252 88 q 227 108 252 88 q 106 266 201 128 q 44 637 11 404 q 194 985 78 869 q 444 1151 311 1101 q 730 1184 576 1201 q 990 1072 883 1167 q 1038 813 1097 976 q 821 698 979 649 q 624 658 663 747 q 670 508 586 569 q 869 592 754 447 q 1141 627 983 736 q 1227 297 1299 518 q 938 10 1156 75 q 608 -37 719 -56 q 418 -32 497 -19 q 426 -33 422 -32 q 465 -40 447 -32 q 498 -61 482 -49 q 520 -87 514 -74 q 522 -109 526 -100 q 505 -122 518 -118 q 472 -121 492 -125 l 460 -118 q 486 -163 460 -131 q 489 -226 513 -196 q 489 -272 465 -256 q 574 -276 513 -289 q 660 -269 635 -262 q 703 -286 685 -275 q 730 -328 722 -297 q 727 -380 738 -360 q 710 -396 717 -400 q 710 -377 704 -392 q 708 -342 715 -362 q 682 -305 701 -321 q 607 -292 663 -289 q 528 -300 551 -296 q 471 -287 506 -304 q 463 -231 436 -269 q 465 -160 490 -192 q 443 -111 439 -128 q 433 -104 438 -108 q 401 -83 413 -94 q 390 -74 394 -78 l 389 -76 q 363 -86 381 -90 l 382 -168 q 402 -185 406 -169 q 389 -197 399 -200 q 340 -185 364 -201 q 279 -165 317 -168 q 228 -139 242 -162 q 254 -124 228 -112 l 324 -71 q 311 -49 308 -60 q 304 -51 307 -50 q 275 -56 290 -56 q 270 -70 274 -62 q 259 -91 267 -78 q 233 -110 251 -104 q 201 -112 214 -115 q 163 -99 188 -108 q 122 -92 138 -89 q 102 -113 107 -96 q 127 -165 97 -131 q 135 -218 157 -199 q 99 -233 114 -237 q 65 -239 83 -228 q 24 -242 46 -250 q 7 -265 1 -235 q -27 -300 13 -294 q -71 -261 -67 -306 l -56 -250 q -31 -284 -57 -281 q -10 -258 -6 -287 q -3 -226 -14 -229 q 25 -227 8 -224 q 58 -220 42 -231 q 96 -212 75 -210 q 123 -204 117 -215 q 124 -182 129 -193 q 111 -167 118 -171 q 91 -140 104 -164 q 91 -98 78 -117 q 116 -76 104 -79 q 142 -74 128 -72 q 185 -86 156 -76 q 230 -92 215 -96 q 251 -76 244 -87 q 260 -58 257 -64 q 224 -50 240 -57 q 193 -35 203 -44 q 184 -15 183 -25 q 196 3 185 -6 q 226 15 207 11 q 266 17 246 19 q 308 4 286 15 q 325 -8 318 -3 q 252 88 303 47 m 156 754 q 97 556 108 653 q 156 305 85 458 q 449 67 226 151 q 168 346 235 192 q 156 754 101 500 m 886 1233 q 990 1224 897 1231 q 1092 1228 1082 1217 q 1126 1235 1103 1239 q 1163 1234 1150 1231 q 1210 1254 1175 1238 q 1096 1303 1108 1281 q 1094 1364 1110 1336 q 1046 1403 1079 1392 q 989 1408 1013 1414 q 960 1397 965 1403 q 958 1429 963 1408 q 933 1478 954 1450 q 857 1509 911 1506 q 774 1485 803 1513 q 742 1429 744 1457 q 739 1396 740 1401 q 692 1403 719 1415 q 657 1363 664 1390 q 619 1378 642 1381 q 583 1360 597 1375 q 567 1324 568 1346 q 574 1294 567 1301 q 589 1281 581 1286 q 552 1270 561 1272 q 537 1265 543 1268 q 533 1254 531 1261 q 542 1243 535 1247 q 560 1238 549 1239 q 581 1237 572 1238 q 592 1235 589 1236 q 599 1224 596 1233 q 746 1214 603 1214 q 886 1233 889 1214 m 874 1249 q 754 1228 883 1228 q 624 1237 625 1229 q 619 1245 622 1244 q 594 1248 617 1246 q 565 1254 572 1250 q 567 1263 557 1258 q 589 1269 578 1267 q 617 1276 600 1272 q 583 1322 581 1297 q 602 1357 585 1347 q 638 1363 619 1367 q 663 1335 656 1360 q 697 1390 668 1386 q 753 1378 725 1394 q 756 1421 753 1393 q 781 1466 760 1449 q 838 1489 803 1483 q 906 1472 874 1494 q 940 1420 939 1450 q 950 1372 942 1390 q 1032 1388 996 1406 q 1076 1351 1068 1371 q 1081 1318 1083 1331 q 1075 1297 1079 1306 q 1188 1253 1103 1274 q 1130 1246 1154 1242 q 1097 1249 1106 1250 q 1086 1240 1088 1247 q 874 1249 1085 1232 m 115 1101 q 228 1143 150 1151 l 228 1149 q 129 1143 149 1164 q 58 1222 129 1165 l 53 1221 q 111 1103 97 1185 l 115 1101 m 322 1225 q 178 1285 281 1292 l 178 1290 q 307 1282 282 1308 q 404 1382 308 1310 l 410 1381 q 331 1228 350 1335 l 322 1225 m 1095 -262 q 1084 -262 1095 -262 q 1070 -270 1074 -262 q 967 -280 1067 -278 q 867 -265 867 -282 q 791 -274 857 -267 q 722 -272 725 -282 q 708 -262 718 -261 q 687 -264 699 -264 q 674 -260 675 -264 q 683 -249 672 -256 q 694 -235 694 -243 q 703 -221 694 -228 q 729 -208 713 -214 q 726 -177 724 -203 q 744 -136 728 -151 q 782 -120 761 -121 q 807 -124 803 -119 q 809 -95 806 -114 q 834 -53 813 -76 q 892 -25 856 -29 q 953 -46 929 -21 q 979 -94 978 -71 q 981 -119 981 -117 q 1001 -107 985 -106 q 1021 -122 1017 -108 q 1037 -92 1019 -108 q 1083 -73 1054 -76 q 1130 -87 1111 -69 q 1150 -120 1149 -104 q 1149 -135 1151 -136 q 1172 -142 1163 -133 q 1183 -157 1182 -150 q 1205 -153 1190 -151 q 1229 -162 1219 -154 q 1240 -183 1239 -169 q 1236 -201 1240 -197 q 1228 -210 1232 -206 q 1249 -215 1243 -214 q 1258 -219 1254 -217 q 1261 -225 1263 -221 q 1256 -231 1260 -229 q 1244 -235 1251 -233 q 1232 -237 1238 -236 q 1224 -238 1226 -237 q 1220 -244 1222 -239 q 1167 -256 1218 -250 q 1095 -262 1117 -261 m 1076 -246 q 1201 -236 1200 -240 q 1203 -231 1201 -232 q 1219 -228 1206 -229 q 1237 -224 1232 -228 q 1233 -220 1242 -221 q 1219 -217 1225 -219 q 1206 -211 1214 -215 q 1224 -195 1221 -203 q 1222 -180 1226 -187 q 1210 -169 1218 -172 q 1192 -169 1201 -167 q 1172 -186 1183 -172 q 1160 -151 1171 -156 q 1129 -153 1149 -147 q 1136 -129 1139 -143 q 1121 -102 1133 -115 q 1083 -90 1108 -89 q 1043 -106 1058 -90 q 1026 -147 1028 -121 q 996 -125 1008 -124 q 968 -144 983 -126 q 965 -106 965 -125 q 944 -67 964 -86 q 894 -49 925 -47 q 842 -72 863 -50 q 820 -112 822 -93 q 822 -137 818 -131 q 795 -132 815 -133 q 762 -142 775 -131 q 746 -168 749 -154 q 744 -192 743 -182 q 750 -210 744 -203 q 718 -233 713 -228 q 715 -243 724 -239 q 708 -251 707 -247 q 719 -252 710 -254 q 734 -251 728 -250 q 740 -259 740 -253 q 872 -249 740 -265 q 956 -266 867 -268 q 1053 -262 1044 -264 q 1076 -246 1061 -260 z "},"D":{"ha":1294,"x_min":35,"x_max":1346,"o":"m 531 446 q 577 456 531 446 q 637 550 624 465 q 562 674 650 635 q 456 569 474 713 q 531 446 439 426 m 1071 435 q 1099 663 1115 553 q 976 897 1082 772 q 710 1014 871 1022 q 960 825 849 960 q 1071 435 1071 690 m 399 546 q 376 467 381 501 q 385 408 371 433 q 428 365 399 382 q 493 350 457 347 q 564 390 529 353 q 465 392 503 372 q 414 447 428 411 q 399 546 400 482 m 988 1185 q 833 1166 990 1163 q 671 1181 675 1169 q 663 1194 667 1192 q 648 1197 658 1196 q 623 1199 638 1197 q 600 1206 608 1201 q 589 1220 592 1211 q 594 1233 586 1229 q 614 1239 603 1236 q 657 1250 625 1242 q 639 1267 647 1258 q 633 1304 631 1276 q 649 1346 635 1332 q 690 1363 663 1360 q 740 1346 718 1365 q 763 1376 739 1361 q 813 1390 788 1392 q 814 1428 811 1397 q 854 1495 817 1460 q 949 1524 892 1531 q 1041 1485 1007 1518 q 1080 1424 1075 1451 q 1082 1385 1085 1397 q 1122 1389 1089 1390 q 1181 1366 1156 1388 q 1210 1308 1207 1344 q 1203 1265 1213 1272 q 1244 1247 1229 1257 q 1258 1226 1260 1236 q 1274 1206 1256 1215 q 1291 1191 1292 1197 q 1269 1185 1290 1185 q 1234 1187 1249 1185 q 1213 1176 1219 1189 q 1104 1172 1207 1163 q 988 1185 1001 1182 m 975 1203 q 1194 1188 1193 1179 q 1207 1199 1194 1197 q 1232 1199 1219 1201 q 1247 1201 1244 1197 q 1235 1213 1249 1206 q 1232 1228 1222 1219 q 1181 1261 1242 1236 q 1191 1287 1189 1271 q 1188 1322 1193 1303 q 1160 1360 1183 1342 q 1106 1378 1138 1379 q 1063 1367 1074 1376 q 1066 1408 1069 1381 q 1031 1467 1063 1435 q 946 1501 999 1500 q 860 1475 893 1503 q 827 1418 828 1447 q 828 1376 826 1389 q 783 1371 807 1381 q 749 1325 760 1361 q 716 1350 738 1347 q 677 1344 694 1353 q 656 1308 660 1335 q 659 1274 653 1282 q 686 1244 665 1265 q 652 1237 667 1239 q 624 1230 638 1235 q 621 1219 611 1225 q 659 1209 631 1213 q 692 1205 688 1206 q 696 1194 696 1204 q 842 1181 696 1185 q 975 1203 989 1178 m 371 1340 q 224 1396 326 1407 l 224 1401 q 354 1396 329 1424 q 447 1500 354 1425 l 454 1499 q 378 1343 396 1451 l 371 1340 m 1094 -43 q 1204 6 1126 10 l 1204 11 q 1106 0 1124 22 q 1031 75 1104 22 l 1025 74 q 1090 -42 1072 40 l 1094 -43 m 146 339 q 128 270 131 313 q 170 176 126 228 q 310 117 214 124 q 175 209 210 158 q 146 339 140 260 m 524 -108 q 543 -107 531 -103 l 539 -101 q 512 -94 528 -100 q 472 -93 496 -87 q 432 -104 447 -99 q 408 -118 417 -110 q 401 -133 399 -126 q 411 -144 403 -140 q 438 -149 419 -147 l 446 -149 q 471 -119 456 -136 q 519 -107 493 -94 q 524 -108 521 -108 m 688 -126 q 713 -117 703 -121 q 735 -99 726 -108 q 741 -84 744 -90 q 729 -74 738 -78 q 703 -72 721 -71 q 664 -85 685 -74 q 628 -104 643 -97 q 624 -107 626 -104 l 628 -104 q 669 -111 653 -97 q 688 -126 681 -118 m 611 -128 q 613 -131 613 -129 q 635 -135 622 -133 q 667 -133 649 -139 q 658 -128 663 -131 q 625 -124 642 -121 q 611 -128 618 -126 m 715 -218 q 711 -239 713 -228 q 747 -335 710 -278 q 660 -316 685 -311 q 646 -338 635 -321 q 667 -358 657 -356 q 666 -366 678 -361 q 660 -371 654 -371 q 679 -372 667 -371 q 696 -371 692 -372 q 703 -377 700 -369 q 718 -385 706 -385 q 875 -385 731 -386 q 997 -346 1013 -372 q 1060 -381 1029 -379 q 1123 -363 1081 -360 q 1193 -369 1165 -367 q 1235 -358 1221 -371 q 1285 -343 1250 -346 q 1321 -333 1321 -340 q 1264 -319 1321 -326 q 1272 -277 1278 -303 q 1232 -230 1265 -251 q 1142 -244 1199 -208 q 1123 -196 1138 -211 q 1067 -210 1108 -181 q 1081 -149 1082 -185 q 1050 -80 1079 -112 q 963 -47 1021 -47 q 867 -83 906 -47 q 831 -176 829 -119 q 799 -168 821 -172 q 747 -182 778 -164 q 728 -197 736 -189 q 768 -225 746 -228 q 816 -208 796 -219 q 851 -199 836 -197 q 878 -208 867 -201 q 894 -236 889 -215 q 894 -263 900 -257 q 883 -268 888 -269 q 881 -260 879 -267 q 881 -242 883 -254 q 864 -224 879 -231 q 822 -230 849 -217 q 775 -246 796 -243 q 741 -241 754 -249 q 718 -224 728 -233 q 715 -218 718 -222 m 721 -182 q 724 -176 721 -179 q 778 -151 753 -150 q 815 -157 803 -151 q 858 -65 817 -104 q 962 -26 900 -25 q 1056 -62 1024 -28 q 1095 -128 1089 -97 q 1089 -183 1101 -158 q 1132 -185 1113 -171 q 1147 -225 1151 -199 q 1201 -204 1174 -204 q 1266 -230 1240 -206 q 1292 -283 1292 -254 q 1285 -311 1292 -311 q 1343 -342 1363 -333 q 1305 -352 1324 -350 q 1278 -355 1286 -354 q 1267 -357 1269 -356 q 1207 -383 1236 -383 q 1135 -380 1178 -383 q 1063 -399 1092 -376 q 1004 -369 1028 -392 q 861 -401 1018 -392 q 690 -396 694 -407 q 682 -383 686 -385 q 668 -381 678 -382 q 644 -380 658 -381 q 621 -375 629 -379 q 628 -367 613 -371 q 642 -358 643 -364 q 632 -340 640 -351 q 635 -307 624 -329 q 717 -301 646 -285 q 692 -243 692 -279 q 706 -199 693 -219 q 693 -174 700 -187 q 681 -150 688 -160 q 639 -153 661 -156 q 608 -146 621 -150 q 583 -158 600 -158 l 643 -258 q 661 -273 665 -260 q 643 -285 657 -286 q 572 -258 629 -290 q 494 -259 526 -235 q 436 -258 461 -283 q 454 -239 431 -237 l 533 -151 q 519 -143 525 -149 q 482 -161 504 -153 q 468 -164 474 -162 q 432 -201 451 -185 q 370 -229 407 -222 q 278 -222 333 -236 q 198 -219 224 -207 q 184 -267 172 -232 q 167 -328 196 -303 q 144 -373 139 -353 q 138 -415 149 -393 q 115 -444 126 -437 q 69 -450 93 -457 q 36 -424 46 -443 l 42 -411 q 69 -431 51 -426 q 100 -425 86 -436 q 123 -375 132 -401 q 144 -324 114 -349 q 161 -274 175 -299 q 165 -215 147 -250 q 262 -195 183 -179 q 381 -200 340 -211 q 433 -169 419 -189 q 392 -162 408 -169 q 374 -144 376 -156 q 381 -118 371 -132 q 413 -92 392 -104 q 458 -74 435 -81 q 511 -75 482 -68 q 524 -79 518 -76 l 469 -6 q 300 21 397 6 q 48 372 26 64 q 81 824 69 681 q 188 1073 92 968 q 505 1155 283 1178 q 838 1092 726 1132 q 1039 977 949 1051 q 1184 758 1129 903 q 1229 451 1239 613 q 1091 165 1219 290 q 835 8 963 40 q 672 -21 735 -17 l 593 -114 q 618 -90 601 -103 q 657 -66 632 -78 q 706 -51 682 -54 q 745 -54 729 -49 q 765 -71 761 -60 q 762 -97 769 -82 q 733 -125 754 -111 q 700 -143 718 -136 q 721 -182 707 -157 z "},"E":{"ha":1324,"x_min":-12,"x_max":1564,"o":"m 686 643 q 725 697 725 660 q 722 728 726 714 q 685 777 715 760 q 608 786 656 794 l 611 769 q 665 759 646 772 q 689 722 683 746 q 686 643 696 700 m 1046 925 q 1074 1039 1078 985 q 1015 1147 1071 1093 q 858 1186 958 1201 q 997 1103 943 1163 q 1046 925 1050 1043 m 1204 404 q 1232 519 1236 465 q 1172 628 1228 574 q 1017 667 1115 682 q 1155 583 1101 643 q 1204 404 1208 524 m 579 547 q 553 466 551 496 q 563 405 556 436 q 594 350 569 374 q 665 311 618 326 q 761 336 713 296 q 640 352 683 324 q 585 425 596 381 q 579 547 574 469 m 383 1260 q 492 1248 396 1257 q 594 1251 588 1239 q 614 1263 600 1264 q 646 1262 628 1261 q 665 1268 664 1263 q 649 1282 665 1274 q 633 1299 632 1290 q 622 1318 635 1308 q 583 1336 608 1328 q 588 1376 590 1342 q 562 1430 586 1410 q 507 1451 538 1450 q 469 1446 476 1451 q 467 1483 472 1457 q 432 1539 463 1508 q 347 1575 401 1569 q 258 1547 293 1581 q 220 1485 222 1514 q 218 1450 218 1456 q 172 1437 194 1453 q 151 1408 150 1421 q 106 1424 132 1426 q 67 1408 81 1421 q 53 1369 54 1394 q 58 1335 51 1343 q 75 1318 65 1326 q 35 1308 46 1311 q 17 1301 25 1306 q 11 1290 8 1297 q 22 1277 14 1282 q 43 1270 29 1272 q 66 1268 57 1268 q 79 1266 75 1268 q 88 1253 83 1264 q 238 1241 92 1243 q 383 1260 385 1239 m 330 -131 q 339 -132 330 -131 q 366 -134 347 -133 q 404 -118 385 -135 q 411 -117 406 -117 q 430 -115 417 -117 q 444 -110 443 -114 q 414 -94 444 -106 q 424 -71 424 -89 q 408 -36 425 -53 q 365 -19 392 -19 q 332 -31 349 -18 q 322 -4 333 -14 q 293 -3 310 6 q 297 30 299 7 q 273 75 294 53 q 214 99 251 97 q 148 76 176 100 q 118 19 119 51 q 94 22 111 22 q 58 6 78 22 q 37 -35 38 -11 q 53 -72 36 -58 q 21 -85 35 -79 q 12 -97 8 -92 q 9 -107 15 -103 q -7 -114 3 -111 q -12 -119 -17 -117 q 3 -122 -7 -121 q 19 -122 13 -122 q 28 -124 25 -122 q 33 -133 31 -126 q 143 -139 36 -140 q 236 -121 244 -137 q 279 -125 254 -124 q 330 -131 313 -128 m 321 -117 q 315 -116 321 -117 q 269 -111 308 -115 q 233 -108 249 -110 q 156 -131 239 -121 q 57 -126 63 -128 q 50 -119 51 -124 q 46 -114 49 -114 q 35 -114 43 -114 q 24 -113 28 -114 q 27 -110 19 -112 q 35 -103 35 -107 q 33 -95 36 -99 q 56 -82 31 -92 q 74 -74 64 -78 q 57 -32 56 -56 q 78 3 58 -8 q 112 10 99 14 q 132 6 125 7 q 156 63 132 42 q 215 84 179 85 q 270 60 251 83 q 287 16 289 36 q 283 -14 285 -4 q 310 -12 301 -3 q 321 -37 319 -21 q 377 -34 357 -21 q 401 -64 397 -47 q 390 -96 404 -81 q 410 -103 404 -99 q 402 -108 417 -108 q 378 -115 388 -108 q 351 -121 369 -122 q 321 -117 333 -119 m 374 1274 q 244 1251 385 1249 q 102 1263 103 1254 q 97 1273 101 1272 q 65 1276 93 1274 q 28 1285 38 1279 q 32 1297 18 1292 q 60 1304 46 1301 q 93 1313 74 1307 q 67 1339 74 1331 q 63 1373 60 1347 q 83 1408 65 1399 q 122 1414 101 1417 q 154 1392 143 1411 q 185 1435 163 1426 q 229 1440 208 1444 q 228 1481 228 1453 q 260 1536 229 1508 q 341 1562 292 1564 q 422 1528 390 1560 q 457 1472 454 1497 q 454 1432 460 1446 q 497 1442 465 1442 q 551 1426 529 1443 q 577 1390 572 1410 q 579 1356 582 1371 q 571 1329 576 1340 q 620 1299 629 1307 q 624 1285 611 1292 q 634 1273 636 1278 q 619 1270 632 1268 q 596 1272 607 1272 q 584 1261 585 1271 q 374 1274 583 1251 m 1019 1221 q 1167 1276 1064 1288 l 1167 1282 q 1036 1276 1061 1304 q 943 1381 1036 1306 l 936 1379 q 1013 1224 994 1332 l 1019 1221 m 189 400 q 213 294 188 342 q 304 193 239 246 q 535 126 369 140 q 291 240 356 181 q 189 400 226 299 m 639 56 q 414 83 533 60 q 97 446 174 138 q 128 974 19 754 q 503 1226 238 1194 q 942 1236 769 1257 q 1143 1026 1115 1215 q 1012 780 1171 838 q 769 784 853 722 q 687 897 685 846 q 598 944 689 949 q 515 872 507 939 q 641 824 522 804 q 773 664 760 843 q 701 508 786 485 q 622 466 615 531 q 710 403 629 401 q 819 551 792 404 q 1006 726 846 697 q 1236 647 1165 754 q 1276 403 1307 539 q 1144 194 1244 268 q 865 78 1050 122 l 808 -15 q 815 -6 811 -8 q 859 31 835 21 q 908 44 883 40 q 951 42 933 47 q 973 26 968 38 q 969 -1 978 15 q 939 -31 961 -17 q 906 -53 925 -43 q 958 -110 939 -83 q 1041 -144 981 -139 q 1198 -86 1101 -149 q 1344 -82 1294 -24 q 1333 -192 1393 -140 q 1361 -259 1274 -243 q 1411 -331 1449 -275 q 1441 -404 1374 -387 q 1534 -401 1508 -421 q 1565 -394 1560 -382 q 1537 -423 1571 -406 q 1469 -434 1503 -440 q 1394 -405 1435 -428 q 1387 -338 1353 -382 q 1333 -272 1421 -294 q 1303 -194 1246 -250 q 1322 -99 1360 -139 q 1214 -115 1283 -60 q 1066 -176 1144 -169 q 966 -156 988 -182 q 900 -83 944 -129 q 872 -62 888 -69 q 844 -67 858 -67 q 828 -67 836 -67 q 813 -79 822 -74 l 904 -161 q 924 -179 928 -158 q 865 -186 900 -208 q 782 -193 829 -164 q 711 -228 726 -232 q 692 -218 697 -232 q 710 -200 686 -204 l 760 -90 l 750 -92 q 721 -122 739 -111 q 677 -133 701 -132 q 637 -122 653 -135 q 588 -126 621 -110 q 528 -118 556 -142 q 481 -112 501 -94 q 452 -184 460 -131 q 425 -267 444 -237 q 378 -312 406 -297 q 319 -333 350 -326 q 293 -365 288 -339 q 281 -387 299 -392 q 262 -354 264 -383 q 292 -315 260 -325 q 348 -301 324 -304 q 397 -267 372 -297 q 436 -160 421 -236 q 490 -81 451 -85 q 544 -100 528 -78 q 594 -104 560 -122 q 647 -103 628 -86 q 692 -110 667 -121 q 731 -82 718 -100 q 703 -89 719 -86 q 649 -90 674 -97 q 601 -71 624 -83 q 569 -44 579 -58 q 563 -18 560 -31 q 583 1 567 -6 q 624 8 599 8 q 676 -3 649 7 q 719 -24 703 -12 q 747 -44 735 -35 l 639 56 m 728 -65 q 736 -51 728 -57 l 735 -50 q 709 -38 725 -44 q 670 -22 693 -32 q 628 -13 647 -12 q 601 -18 610 -14 q 590 -29 593 -22 q 596 -44 586 -36 q 622 -60 606 -53 q 663 -73 638 -67 q 706 -72 689 -79 q 728 -65 717 -68 m 825 -37 q 886 -37 854 -18 q 922 -18 910 -31 q 942 2 938 -7 q 944 18 946 11 q 929 26 942 25 q 900 22 917 26 q 859 7 883 18 q 826 -19 835 -4 q 818 -32 822 -26 q 825 -37 822 -35 z "},"F":{"ha":1207,"x_min":54,"x_max":1228,"o":"m 878 515 q 904 567 907 535 q 897 592 903 581 q 860 627 886 617 q 796 625 833 638 l 800 613 q 847 609 829 617 q 871 582 864 601 q 878 515 881 567 m 1044 757 q 1090 881 1122 807 q 992 996 1058 956 q 810 1035 925 1036 q 1004 933 932 1003 q 1044 757 1076 863 m 625 835 q 560 787 581 819 q 541 721 540 754 q 559 661 542 688 q 621 623 576 635 q 703 640 665 611 q 603 676 629 647 q 583 751 576 706 q 625 835 589 796 m 617 -42 q 744 -11 693 -43 q 818 105 794 21 q 775 279 842 189 q 767 99 799 183 q 617 -42 736 15 m 121 304 q 143 137 125 186 q 222 34 161 88 q 360 -29 282 -19 q 206 75 267 7 q 121 304 146 143 m 411 -247 q 397 -236 406 -242 q 364 -226 383 -226 q 349 -232 357 -226 q 350 -233 350 -232 q 389 -247 372 -247 l 411 -247 m 414 -226 q 403 -217 408 -222 q 373 -190 390 -207 q 338 -168 356 -174 q 312 -164 321 -162 q 298 -171 303 -165 q 299 -187 293 -176 q 317 -208 306 -199 q 331 -219 322 -214 q 361 -206 344 -210 q 403 -217 382 -201 q 414 -226 408 -222 m 593 -278 q 604 -275 599 -276 q 627 -263 621 -268 q 635 -251 633 -258 q 625 -238 636 -244 q 598 -230 614 -232 q 557 -228 582 -228 q 518 -239 532 -229 l 517 -239 q 547 -247 532 -237 q 593 -278 575 -262 m 375 -121 q 81 139 128 -26 q 113 533 18 350 q 158 851 207 715 q 237 1101 108 988 q 739 1145 365 1215 q 1145 916 1113 1075 q 1059 701 1178 757 q 858 674 940 646 q 757 749 776 701 q 688 792 738 797 q 647 731 639 786 q 786 678 656 675 q 937 591 917 681 q 876 458 957 501 q 847 321 794 414 q 894 116 900 228 q 808 -47 889 4 q 586 -150 740 -93 l 593 -151 l 486 -237 q 514 -221 499 -229 q 565 -207 540 -207 q 614 -214 590 -207 q 651 -232 638 -221 q 664 -255 664 -243 q 650 -278 664 -267 q 618 -292 638 -286 q 661 -296 635 -297 q 765 -231 704 -293 q 881 -201 826 -168 q 899 -278 936 -235 q 918 -337 861 -322 q 974 -379 975 -351 q 1001 -415 972 -407 q 1044 -414 1029 -424 q 1066 -412 1060 -404 q 1049 -434 1072 -419 q 1007 -444 1026 -449 q 969 -422 988 -440 q 951 -384 951 -404 q 892 -349 950 -364 q 869 -285 833 -333 q 862 -219 906 -236 q 768 -258 818 -201 q 679 -319 718 -314 q 610 -314 640 -325 q 578 -299 593 -307 q 551 -281 564 -290 q 536 -272 543 -275 q 525 -271 531 -271 q 506 -283 514 -272 q 488 -297 494 -297 l 538 -390 q 551 -412 561 -396 q 495 -401 521 -432 q 418 -381 469 -369 q 343 -389 356 -397 q 328 -374 329 -387 q 350 -362 328 -360 l 431 -282 q 413 -264 417 -278 q 381 -261 399 -264 q 333 -246 353 -258 q 322 -258 328 -251 q 290 -305 297 -292 q 262 -323 283 -318 q 216 -303 240 -328 q 174 -255 192 -278 q 139 -233 156 -232 q 116 -243 122 -233 q 108 -260 110 -253 q 102 -266 107 -268 q 95 -257 97 -264 q 105 -233 93 -250 q 131 -215 117 -217 q 159 -217 144 -212 q 188 -239 174 -221 q 233 -285 203 -257 q 286 -274 263 -312 q 315 -232 303 -246 q 294 -212 304 -224 q 274 -178 279 -194 q 276 -152 269 -162 q 301 -140 283 -142 q 340 -147 318 -139 q 383 -174 361 -156 q 417 -208 404 -192 q 435 -236 426 -222 l 375 -121 m 772 1210 q 655 1198 758 1208 q 546 1202 551 1188 q 526 1214 540 1217 q 491 1212 511 1211 q 469 1219 471 1213 q 486 1233 468 1225 q 503 1252 504 1242 q 517 1273 503 1263 q 557 1292 532 1283 q 551 1335 549 1299 q 581 1394 554 1372 q 640 1417 607 1415 q 681 1411 674 1418 q 681 1451 676 1425 q 721 1511 686 1478 q 813 1551 756 1544 q 908 1522 869 1557 q 949 1454 946 1486 q 950 1417 951 1422 q 993 1403 975 1418 q 1010 1374 1011 1388 q 1061 1390 1032 1393 q 1109 1372 1090 1388 q 1129 1328 1128 1357 q 1123 1291 1131 1300 q 1106 1275 1115 1282 q 1148 1263 1136 1264 q 1168 1256 1160 1261 q 1174 1242 1176 1251 q 1163 1229 1172 1233 q 1140 1222 1154 1225 q 1115 1219 1126 1219 q 1099 1217 1104 1218 q 1090 1204 1094 1215 q 929 1190 1086 1193 q 772 1210 772 1188 m 779 1232 q 915 1206 769 1204 q 1063 1219 1061 1208 q 1067 1231 1064 1229 q 1099 1235 1071 1232 q 1138 1244 1126 1238 q 1135 1256 1149 1250 q 1107 1264 1122 1261 q 1071 1272 1092 1267 q 1117 1304 1110 1286 q 1115 1344 1125 1322 q 1085 1372 1106 1367 q 1042 1372 1064 1376 q 1008 1349 1021 1367 q 975 1399 999 1389 q 931 1404 951 1408 q 929 1446 931 1417 q 897 1503 928 1475 q 813 1530 865 1532 q 728 1496 761 1528 q 692 1436 696 1464 q 696 1397 689 1408 q 651 1406 685 1404 q 597 1390 618 1408 q 570 1351 575 1372 q 567 1315 565 1331 q 578 1290 568 1300 q 526 1256 517 1264 q 521 1241 535 1249 q 510 1229 507 1233 q 526 1228 513 1225 q 551 1228 540 1231 q 562 1217 561 1226 q 779 1232 563 1207 m 887 -168 q 878 -169 887 -168 q 850 -172 869 -171 q 811 -157 831 -174 q 804 -156 810 -156 q 785 -156 799 -157 q 772 -150 772 -154 q 800 -135 772 -146 q 791 -111 792 -129 q 807 -76 790 -93 q 849 -58 824 -60 q 882 -61 865 -57 q 892 -42 881 -53 q 915 -37 903 -32 q 911 -8 911 -31 q 936 38 911 14 q 998 63 961 61 q 1064 40 1035 64 q 1096 -15 1093 17 q 1118 -12 1101 -12 q 1153 -25 1135 -11 q 1170 -62 1171 -39 q 1157 -101 1169 -86 q 1196 -114 1183 -108 q 1203 -129 1206 -124 q 1206 -139 1200 -135 q 1222 -146 1213 -143 q 1227 -151 1232 -149 q 1213 -153 1222 -153 q 1197 -154 1203 -154 q 1188 -157 1190 -154 q 1183 -167 1186 -160 q 1072 -174 1179 -174 q 978 -158 972 -174 q 936 -162 961 -161 q 887 -168 904 -165 m 893 -152 q 899 -151 893 -152 q 944 -144 906 -150 q 981 -142 965 -143 q 1058 -161 974 -153 q 1156 -154 1150 -157 q 1163 -147 1161 -151 q 1167 -143 1165 -143 q 1177 -143 1169 -143 q 1189 -142 1185 -143 q 1185 -139 1193 -140 q 1177 -133 1178 -137 q 1178 -126 1176 -129 q 1157 -112 1181 -122 q 1139 -106 1149 -108 q 1155 -66 1157 -89 q 1133 -32 1153 -43 q 1099 -24 1113 -21 q 1079 -29 1085 -28 q 1055 25 1079 4 q 994 44 1031 46 q 940 20 958 43 q 924 -22 922 -3 q 929 -50 926 -42 q 901 -51 910 -42 q 890 -76 892 -60 q 835 -73 856 -60 q 812 -102 815 -86 q 824 -132 808 -118 q 803 -140 808 -135 q 812 -144 797 -144 q 835 -151 826 -144 q 863 -156 844 -157 q 893 -152 881 -154 m 353 1251 q 206 1307 308 1318 l 206 1313 q 336 1307 311 1335 q 429 1411 336 1336 l 436 1410 q 360 1254 378 1363 l 353 1251 m 488 1392 q 393 1517 486 1471 l 396 1522 q 503 1449 496 1485 q 638 1486 518 1472 l 642 1482 q 496 1390 567 1472 l 488 1392 z "},"G":{"ha":1196,"x_min":15,"x_max":1197,"o":"m 88 471 q 116 327 94 385 q 195 197 138 269 q 374 100 253 124 q 185 240 243 161 q 88 471 128 318 m 1072 756 q 1131 835 1125 806 q 1140 897 1138 865 q 1119 965 1142 929 q 1038 1031 1097 1000 q 893 1032 979 1063 q 1048 967 1008 1003 q 1091 884 1088 932 q 1072 756 1094 836 m 1071 246 q 1115 399 1113 357 q 1103 468 1118 442 q 1063 513 1088 494 q 990 545 1039 531 q 885 543 940 560 q 1003 490 971 513 q 1056 419 1036 467 q 1071 246 1076 371 m 478 672 q 392 574 406 619 q 387 485 378 529 q 430 406 396 442 q 537 364 464 369 q 664 414 610 358 q 506 424 561 382 q 441 528 450 467 q 478 672 432 589 m 292 -414 q 363 -422 300 -417 q 434 -419 426 -426 q 458 -414 442 -411 q 483 -414 474 -417 q 515 -400 492 -411 q 436 -367 446 -382 q 435 -324 446 -343 q 402 -297 425 -304 q 363 -293 379 -289 q 343 -301 347 -297 q 342 -278 344 -293 q 324 -245 339 -264 q 272 -224 310 -226 q 215 -240 235 -221 q 193 -279 194 -260 q 190 -301 192 -299 q 158 -297 176 -289 q 133 -325 139 -306 q 108 -315 124 -312 q 83 -326 93 -317 q 72 -351 72 -336 q 76 -372 71 -367 q 86 -382 81 -378 q 62 -389 68 -387 q 51 -392 56 -390 q 48 -399 46 -394 q 54 -408 50 -404 q 67 -411 58 -411 q 81 -412 75 -411 q 89 -413 86 -412 q 94 -421 92 -414 q 195 -428 96 -428 q 292 -414 294 -428 m 283 -404 q 201 -417 290 -418 q 110 -412 111 -417 q 108 -406 110 -407 q 90 -404 106 -406 q 70 -400 75 -403 q 72 -394 65 -397 q 87 -390 79 -392 q 106 -385 94 -387 q 82 -353 81 -371 q 96 -329 83 -336 q 121 -324 108 -322 q 138 -344 133 -326 q 161 -306 142 -308 q 200 -314 181 -303 q 202 -285 200 -304 q 219 -253 204 -265 q 259 -237 235 -242 q 306 -249 283 -233 q 329 -285 328 -264 q 336 -318 331 -306 q 393 -308 368 -296 q 423 -333 418 -319 q 426 -356 428 -347 q 422 -371 425 -364 q 500 -401 442 -386 q 460 -406 476 -408 q 437 -403 443 -403 q 430 -410 431 -404 q 283 -404 429 -415 m 374 1233 q 226 1289 329 1300 l 226 1294 q 357 1289 332 1317 q 450 1393 357 1318 l 457 1392 q 381 1236 399 1344 l 374 1233 m 514 1383 q 626 1425 549 1433 l 626 1431 q 528 1425 547 1446 q 457 1504 528 1447 l 451 1503 q 510 1385 496 1467 l 514 1383 m 775 1246 q 670 1234 763 1243 q 573 1238 578 1225 q 555 1249 568 1251 q 524 1247 542 1247 q 505 1253 507 1247 q 519 1267 503 1260 q 534 1283 535 1274 q 547 1301 533 1292 q 582 1318 560 1311 q 577 1358 574 1325 q 603 1410 581 1390 q 656 1430 626 1429 q 692 1425 686 1431 q 694 1460 690 1436 q 729 1514 699 1483 q 810 1549 760 1544 q 896 1523 861 1554 q 932 1463 931 1492 q 933 1431 933 1435 q 973 1417 957 1431 q 988 1392 989 1404 q 1033 1406 1007 1408 q 1076 1390 1058 1404 q 1094 1350 1093 1375 q 1088 1317 1094 1325 q 1072 1303 1081 1308 q 1110 1292 1099 1294 q 1129 1286 1121 1290 q 1135 1274 1138 1282 q 1124 1263 1132 1265 q 1103 1257 1117 1260 q 1081 1253 1090 1254 q 1067 1251 1071 1251 q 1059 1240 1063 1250 q 915 1227 1056 1229 q 775 1246 775 1225 m 783 1261 q 903 1239 775 1236 q 1031 1251 1031 1242 q 1035 1260 1032 1260 q 1064 1265 1039 1261 q 1098 1274 1089 1268 q 1094 1283 1107 1279 q 1069 1291 1082 1288 q 1039 1299 1057 1294 q 1079 1327 1072 1311 q 1078 1364 1086 1343 q 1051 1388 1069 1385 q 1013 1388 1032 1392 q 983 1367 994 1385 q 954 1411 975 1401 q 915 1417 933 1421 q 914 1453 915 1428 q 885 1506 913 1479 q 813 1531 858 1532 q 739 1500 768 1529 q 707 1446 710 1471 q 710 1411 704 1421 q 672 1419 700 1417 q 624 1405 643 1421 q 600 1369 606 1389 q 597 1337 594 1350 q 606 1314 599 1324 q 560 1284 553 1292 q 556 1270 568 1276 q 547 1260 544 1264 q 561 1258 549 1256 q 583 1258 574 1260 q 593 1249 593 1257 q 783 1261 593 1240 m 428 -108 q 413 -97 422 -103 q 379 -92 397 -90 q 358 -104 369 -93 q 385 -111 369 -107 q 425 -108 410 -115 l 428 -108 m 381 19 q 85 228 197 46 q 44 706 -26 411 q 323 1106 114 1001 q 706 1199 532 1211 q 1017 1126 879 1188 q 1192 926 1156 1064 q 1072 688 1228 788 q 789 643 917 588 q 585 655 661 699 q 525 546 508 611 q 597 476 542 481 q 640 546 651 471 q 957 613 628 621 q 1110 129 1286 606 q 661 17 1072 -133 q 592 8 625 11 l 569 -14 q 592 -10 581 -11 q 632 -10 615 -6 q 653 -26 649 -15 q 650 -52 658 -36 q 622 -83 642 -68 q 596 -100 611 -93 q 600 -107 599 -103 q 610 -148 614 -128 q 658 -197 607 -168 q 666 -264 710 -225 q 660 -330 622 -303 q 756 -312 697 -357 q 850 -272 814 -268 q 913 -294 886 -275 q 960 -338 939 -312 q 1003 -346 982 -364 q 1030 -347 1025 -328 q 1009 -381 1035 -365 q 958 -372 983 -396 q 917 -326 932 -347 q 861 -299 901 -306 q 751 -340 821 -293 q 638 -342 682 -386 q 638 -263 593 -297 q 632 -203 682 -229 q 589 -150 582 -176 q 574 -108 596 -124 q 532 -117 551 -115 l 526 -118 q 506 -132 522 -128 l 572 -229 q 588 -250 596 -231 q 532 -243 561 -271 q 453 -233 503 -215 q 379 -250 392 -258 q 363 -236 365 -250 q 383 -222 361 -222 l 454 -133 q 436 -124 442 -132 q 424 -128 431 -125 q 372 -129 396 -135 q 344 -121 358 -126 q 342 -128 343 -124 q 315 -177 321 -162 q 289 -199 310 -192 q 240 -185 268 -207 q 192 -143 213 -164 q 155 -124 171 -122 q 134 -137 139 -126 q 128 -155 129 -147 q 122 -162 126 -162 q 115 -154 118 -161 q 122 -129 113 -147 q 145 -108 132 -111 q 173 -106 158 -104 q 205 -124 188 -108 q 255 -165 222 -140 q 306 -147 288 -189 q 325 -112 317 -126 q 294 -89 306 -101 q 287 -63 285 -75 q 305 -43 289 -51 q 344 -35 321 -35 q 394 -43 368 -35 q 435 -61 418 -51 l 381 19 m 436 -93 q 453 -87 442 -89 q 428 -76 444 -81 q 390 -63 413 -72 q 350 -56 368 -54 q 324 -60 332 -57 q 313 -72 315 -64 q 322 -87 311 -79 q 336 -97 328 -93 q 339 -93 338 -94 q 374 -72 354 -79 q 415 -78 393 -65 q 436 -93 428 -86 m 531 -56 l 510 -78 q 504 -86 507 -82 q 513 -87 508 -86 q 529 -78 518 -82 q 569 -78 553 -68 q 582 -85 576 -81 q 607 -69 597 -79 q 624 -49 619 -57 q 626 -35 628 -42 q 611 -27 624 -28 q 583 -31 599 -26 q 544 -47 568 -36 q 531 -56 538 -51 m 525 -100 q 526 -101 526 -101 q 532 -100 529 -101 q 543 -96 538 -99 q 531 -97 536 -96 q 525 -100 528 -99 z "},"H":{"ha":1408,"x_min":26,"x_max":1375,"o":"m 1265 711 q 1311 892 1318 825 q 1253 1006 1304 958 q 1053 1069 1201 1054 q 1229 953 1167 1035 q 1265 711 1292 872 m 671 950 q 710 1040 700 994 q 678 1126 719 1085 q 511 1172 636 1168 q 647 1091 611 1142 q 671 950 682 1040 m 658 896 q 621 763 600 815 q 701 693 642 710 q 833 725 761 676 q 706 733 756 703 q 651 799 657 763 q 658 896 646 836 m 754 1385 q 607 1440 710 1451 l 607 1446 q 738 1440 713 1468 q 831 1544 738 1469 l 838 1543 q 761 1388 779 1496 l 754 1385 m 819 1156 q 932 1197 854 1206 l 932 1203 q 833 1197 853 1218 q 763 1276 833 1219 l 757 1275 q 815 1157 801 1239 l 819 1156 m 158 479 q 113 376 136 447 q 134 250 90 306 q 265 199 178 194 q 150 337 160 263 q 158 479 140 411 m 835 304 q 773 153 778 206 q 824 67 768 100 q 969 44 881 33 q 842 101 865 72 q 815 157 818 129 q 835 304 813 185 m 678 -419 q 781 -429 689 -422 q 884 -425 874 -436 q 918 -418 894 -414 q 954 -419 942 -422 q 1001 -399 967 -415 q 888 -350 900 -372 q 886 -289 901 -317 q 838 -250 871 -261 q 781 -244 804 -239 q 751 -256 757 -250 q 750 -224 754 -244 q 724 -175 746 -203 q 649 -144 703 -147 q 565 -168 594 -140 q 534 -224 536 -196 q 531 -257 532 -251 q 483 -250 511 -237 q 449 -290 456 -262 q 411 -275 433 -272 q 374 -292 389 -278 q 359 -329 360 -307 q 365 -359 358 -351 q 381 -372 372 -367 q 344 -383 353 -381 q 328 -388 335 -385 q 324 -399 322 -392 q 333 -410 326 -406 q 352 -415 340 -414 q 372 -416 364 -415 q 384 -418 381 -417 q 391 -429 388 -419 q 538 -439 394 -439 q 678 -419 681 -439 m 665 -404 q 546 -424 675 -425 q 415 -416 417 -424 q 411 -408 414 -408 q 386 -405 408 -407 q 356 -399 364 -403 q 359 -390 349 -394 q 381 -383 369 -386 q 408 -376 392 -381 q 374 -331 372 -356 q 394 -296 376 -306 q 429 -290 411 -286 q 454 -318 447 -293 q 488 -262 460 -267 q 544 -275 517 -258 q 548 -232 544 -260 q 573 -187 551 -204 q 630 -164 594 -169 q 698 -181 665 -158 q 732 -233 731 -203 q 742 -281 733 -262 q 824 -265 788 -247 q 867 -302 860 -282 q 873 -335 875 -322 q 867 -356 871 -347 q 979 -400 894 -379 q 922 -407 946 -411 q 888 -404 897 -403 q 878 -413 879 -406 q 665 -404 876 -421 m 310 83 q 136 154 222 106 q 109 728 -28 246 q 378 1239 246 1211 q 671 1217 510 1267 q 740 983 832 1168 q 772 785 649 797 q 859 991 896 774 q 1066 1167 822 1208 q 1353 1028 1310 1126 q 1360 485 1396 931 q 1171 -1 1324 39 q 840 12 1018 -40 q 726 226 661 64 q 702 411 790 388 q 628 250 614 435 q 535 74 638 107 l 447 -22 l 449 -21 q 468 -6 457 -14 q 517 15 492 13 q 566 15 542 18 q 605 3 590 13 q 621 -18 619 -7 q 610 -42 622 -29 q 575 -64 599 -54 q 544 -72 561 -69 q 550 -78 547 -75 q 613 -106 568 -99 q 735 -65 658 -112 q 864 -62 813 -18 q 867 -141 915 -107 q 876 -202 818 -175 q 926 -256 933 -229 q 949 -299 919 -283 q 996 -308 978 -314 q 1019 -309 1014 -301 q 997 -326 1024 -317 q 951 -328 971 -336 q 915 -298 931 -319 q 901 -257 899 -276 q 846 -209 904 -237 q 835 -141 788 -181 q 840 -75 883 -101 q 733 -92 796 -49 q 628 -133 669 -136 q 557 -111 588 -129 q 508 -74 531 -96 q 478 -71 492 -74 q 461 -67 469 -69 q 446 -75 456 -72 l 514 -169 q 531 -190 539 -172 q 473 -185 503 -212 q 396 -176 443 -158 q 322 -196 335 -203 q 306 -182 308 -196 q 325 -168 303 -168 l 394 -76 q 372 -62 378 -75 q 342 -64 358 -64 q 296 -57 317 -65 q 278 -99 286 -71 q 264 -162 265 -144 q 240 -195 263 -181 q 181 -193 218 -210 q 115 -160 144 -176 q 67 -151 85 -143 q 47 -172 49 -158 q 46 -194 44 -185 q 41 -203 47 -203 q 30 -197 35 -203 q 31 -167 25 -190 q 50 -134 36 -143 q 82 -124 64 -125 q 124 -135 100 -122 q 192 -166 147 -149 q 245 -131 236 -183 q 267 -58 254 -78 q 275 -46 269 -51 q 250 -28 261 -37 q 224 4 232 -11 q 222 31 217 19 q 245 45 228 42 q 285 43 263 49 q 332 23 308 38 q 369 -6 356 8 q 392 -31 383 -19 l 310 83 m 467 -54 l 482 -54 q 467 -51 475 -50 l 467 -54 m 371 -28 q 357 -18 365 -24 q 324 5 343 -10 q 286 23 304 19 q 259 24 268 26 q 246 15 250 21 q 250 -1 242 8 q 272 -19 258 -11 q 289 -31 279 -25 q 297 -25 293 -28 q 347 -19 318 -10 q 371 -28 361 -22 m 315 -43 q 347 -49 333 -51 q 367 -46 357 -47 q 350 -42 360 -43 q 315 -43 333 -37 m 528 -54 q 564 -47 550 -56 q 586 -32 581 -37 q 592 -19 592 -26 q 580 -7 592 -11 q 552 -3 568 -3 q 511 -7 536 -3 q 476 -19 489 -11 q 503 -33 489 -22 q 528 -54 515 -44 z "},"I":{"ha":886,"x_min":44,"x_max":1025,"o":"m 400 94 q 285 68 347 69 q 188 120 224 67 q 154 388 153 174 q 226 135 200 160 q 278 101 251 110 q 400 94 306 92 m 565 1147 q 425 1217 529 1217 l 425 1222 q 554 1204 533 1233 q 658 1297 557 1232 l 665 1294 q 572 1149 601 1254 l 565 1147 m 317 1022 q 496 1060 400 1060 q 645 977 592 1061 q 690 563 699 893 q 587 955 626 915 q 506 1009 547 994 q 317 1022 464 1024 m 463 -104 q 457 -103 460 -104 l 456 -101 q 413 -80 439 -90 q 364 -67 388 -69 q 324 -72 340 -65 q 305 -91 308 -79 q 311 -117 301 -103 q 342 -142 321 -131 q 372 -157 357 -151 q 364 -192 368 -171 q 316 -217 353 -235 q 260 -187 279 -199 q 226 -175 240 -175 q 198 -181 211 -175 q 178 -207 185 -187 q 176 -233 172 -226 q 185 -239 181 -239 q 190 -231 190 -239 q 192 -212 189 -224 q 210 -196 194 -201 q 251 -206 226 -190 q 306 -239 275 -222 q 356 -245 336 -256 q 377 -219 375 -235 q 393 -167 379 -204 q 394 -164 393 -165 q 438 -164 414 -168 q 467 -157 454 -161 q 492 -167 475 -168 l 439 -269 q 422 -285 417 -272 q 440 -296 426 -299 q 510 -265 456 -301 q 588 -261 554 -239 q 646 -257 622 -283 q 626 -237 650 -236 l 543 -157 q 557 -146 553 -153 q 574 -147 565 -147 q 594 -147 583 -147 q 639 -189 614 -171 q 699 -215 664 -208 q 796 -183 735 -221 q 892 -174 857 -146 q 882 -235 928 -201 q 885 -299 836 -269 q 928 -347 933 -328 q 935 -386 924 -365 q 965 -416 947 -407 q 1006 -418 982 -425 q 1026 -403 1029 -411 q 1006 -400 1022 -396 q 966 -389 990 -404 q 951 -349 942 -374 q 912 -295 960 -324 q 910 -237 864 -267 q 915 -163 956 -208 q 801 -157 875 -118 q 688 -187 728 -196 q 636 -158 649 -178 q 624 -142 631 -150 q 668 -124 649 -135 q 699 -97 689 -111 q 706 -72 710 -83 q 686 -53 701 -60 q 646 -49 671 -47 q 597 -56 621 -50 q 553 -83 574 -62 q 528 -112 538 -100 l 528 -112 l 599 -4 q 603 -3 601 -4 q 832 146 799 35 q 825 526 865 257 q 737 968 785 796 q 488 1139 689 1140 q 158 1079 288 1138 q 47 508 29 1021 q 236 -24 65 -6 q 388 -29 310 -32 l 463 -104 m 560 -131 q 572 -129 567 -128 q 560 -132 565 -131 l 560 -131 m 414 -103 q 386 -131 397 -114 q 381 -139 383 -135 q 361 -133 369 -136 q 338 -118 347 -126 q 331 -102 328 -110 q 342 -91 333 -94 q 369 -87 350 -87 q 408 -99 388 -87 q 417 -103 413 -100 l 414 -103 m 463 -142 q 440 -147 453 -144 q 401 -146 424 -153 q 425 -122 413 -126 q 458 -122 443 -117 l 460 -122 q 469 -128 465 -125 q 463 -142 463 -135 m 608 -124 q 599 -114 604 -118 q 564 -97 582 -96 q 596 -78 575 -85 q 635 -68 619 -71 q 663 -67 650 -65 q 676 -76 675 -69 q 673 -91 678 -83 q 654 -109 668 -99 q 617 -122 640 -119 q 608 -124 613 -124 m 714 1096 q 661 1213 728 1158 l 665 1215 q 736 1136 738 1167 q 849 1142 753 1153 l 853 1136 q 718 1093 792 1144 l 714 1096 z "},"J":{"ha":1185,"x_min":31,"x_max":1178,"o":"m 424 364 q 313 446 369 433 q 219 449 257 458 q 133 422 181 439 q 261 488 200 489 q 363 465 322 486 q 424 364 404 443 m 942 256 q 986 685 1031 517 q 883 912 942 854 q 689 986 825 969 q 951 978 888 1044 q 1037 831 1015 913 q 1056 572 1058 750 q 942 256 1054 393 m 163 1095 q 153 1093 163 1095 q 122 1090 143 1092 q 78 1107 100 1089 q 70 1108 76 1110 q 49 1109 64 1107 q 35 1115 35 1111 q 65 1132 35 1119 q 56 1159 57 1139 q 74 1198 56 1179 q 121 1218 92 1217 q 157 1215 139 1219 q 168 1235 156 1224 q 194 1242 181 1247 q 190 1274 190 1249 q 218 1325 190 1299 q 287 1353 246 1351 q 360 1328 328 1354 q 397 1265 393 1301 q 422 1270 403 1269 q 460 1255 440 1271 q 480 1213 481 1239 q 465 1169 479 1186 q 508 1156 494 1163 q 517 1138 519 1144 q 521 1128 514 1132 q 538 1120 528 1124 q 544 1115 549 1117 q 528 1112 539 1113 q 510 1111 517 1111 q 500 1108 503 1111 q 494 1097 497 1104 q 371 1089 490 1089 q 265 1106 258 1089 q 218 1101 246 1103 q 163 1095 182 1099 m 169 1113 q 176 1114 169 1113 q 228 1121 183 1115 q 268 1125 251 1124 q 354 1103 260 1113 q 463 1110 457 1107 q 472 1119 469 1114 q 477 1124 475 1124 q 488 1124 479 1124 q 501 1125 496 1124 q 497 1128 506 1126 q 488 1134 489 1129 q 490 1142 488 1139 q 465 1157 492 1146 q 444 1165 456 1163 q 463 1209 465 1183 q 438 1247 461 1235 q 400 1256 415 1260 q 378 1250 385 1251 q 351 1311 378 1288 q 283 1333 324 1335 q 223 1305 243 1331 q 205 1258 203 1279 q 210 1226 207 1236 q 178 1226 189 1236 q 167 1197 168 1217 q 106 1201 128 1217 q 79 1169 83 1186 q 92 1136 75 1151 q 69 1126 75 1132 q 79 1121 63 1121 q 106 1114 96 1121 q 135 1109 115 1107 q 169 1113 156 1111 m 1065 -67 q 1178 -25 1100 -17 l 1178 -19 q 1079 -25 1099 -4 q 1008 54 1079 -3 l 1003 53 q 1061 -65 1047 17 l 1065 -67 m 613 1136 q 518 1261 611 1215 l 521 1267 q 628 1193 621 1229 q 763 1231 643 1217 l 767 1226 q 621 1135 692 1217 l 613 1136 m 101 239 q 206 91 142 144 q 444 -7 271 38 q 221 47 286 -1 q 129 139 156 94 q 101 239 103 183 m 172 871 q 220 759 192 796 q 315 717 249 722 q 221 728 258 699 q 176 796 183 757 q 172 871 169 835 m 539 -146 q 517 -128 528 -136 q 476 -103 501 -115 q 427 -88 450 -90 q 388 -92 404 -86 q 367 -108 371 -97 q 372 -134 364 -119 q 401 -162 381 -149 q 444 -183 421 -176 l 446 -185 q 419 -239 438 -206 q 367 -244 401 -274 q 313 -209 332 -215 q 274 -205 294 -203 q 239 -228 253 -207 q 222 -265 225 -250 q 235 -282 218 -281 q 253 -272 253 -283 q 260 -248 253 -260 q 283 -234 267 -236 q 323 -252 299 -232 q 365 -279 347 -272 q 404 -283 382 -286 q 442 -249 426 -281 q 467 -192 457 -218 l 468 -189 q 494 -189 481 -190 q 526 -183 513 -186 q 550 -194 533 -194 l 493 -294 q 474 -309 469 -296 q 492 -321 479 -322 q 563 -294 506 -326 q 642 -293 608 -269 q 699 -293 675 -317 q 681 -274 706 -272 l 601 -186 q 617 -176 611 -182 q 633 -178 625 -178 l 647 -179 q 699 -221 674 -214 q 772 -180 725 -228 q 860 -127 818 -132 q 920 -152 901 -122 q 917 -226 939 -182 q 969 -269 896 -269 q 1028 -303 1042 -269 q 1026 -359 1015 -336 q 1064 -389 1036 -382 q 1116 -377 1092 -396 q 1127 -345 1140 -358 q 1101 -348 1114 -332 q 1060 -353 1088 -364 q 1054 -289 1033 -342 q 1005 -241 1075 -236 q 955 -208 935 -246 q 941 -125 975 -171 q 848 -99 907 -79 q 747 -160 789 -119 q 689 -182 706 -200 q 682 -176 686 -179 q 729 -161 708 -172 q 762 -135 751 -149 q 769 -110 772 -121 q 750 -91 765 -99 q 710 -83 735 -83 q 661 -89 686 -83 q 615 -115 636 -94 q 593 -137 603 -128 l 592 -139 l 661 -42 q 1081 242 993 25 q 1138 809 1175 474 q 876 1099 1101 1144 q 519 1058 650 1053 q 308 1049 388 1064 q 169 963 229 1033 q 148 767 108 892 q 405 655 188 643 q 616 530 622 667 q 415 503 610 393 q 93 462 221 613 q 103 100 -35 311 q 464 -64 211 -64 l 539 -146 m 521 -167 q 500 -172 511 -169 q 476 -172 489 -175 q 494 -158 485 -162 q 518 -161 510 -154 q 521 -165 519 -164 l 521 -167 m 508 -142 q 494 -140 501 -139 q 468 -150 481 -143 q 454 -167 460 -156 q 422 -153 435 -158 q 399 -137 407 -146 q 394 -122 390 -129 q 405 -110 397 -114 q 431 -108 413 -107 q 471 -122 450 -110 q 507 -140 492 -133 l 508 -142 m 663 -158 q 642 -143 653 -151 q 622 -133 632 -136 l 622 -132 q 658 -112 635 -119 q 698 -103 682 -106 q 726 -104 714 -101 q 740 -114 739 -107 q 735 -128 740 -121 q 715 -145 731 -135 q 675 -158 700 -156 q 663 -158 669 -158 z "},"K":{"ha":1315,"x_min":28,"x_max":1292,"o":"m 825 1113 q 926 1091 896 1107 q 979 1057 956 1075 q 1015 999 1003 1039 q 1017 896 1028 958 q 1058 1018 1061 978 q 1031 1081 1056 1058 q 957 1119 1006 1104 q 825 1113 908 1133 m 214 1022 q 285 1017 258 1028 q 335 985 313 1007 q 371 927 357 964 q 394 822 385 890 q 401 941 404 900 q 381 1009 399 982 q 312 1046 364 1036 q 214 1022 260 1056 m 993 519 q 1135 410 1093 457 q 1197 302 1176 364 q 1201 131 1218 240 q 1251 278 1258 197 q 1211 401 1243 358 q 1136 474 1179 443 q 993 519 1093 504 m 531 635 q 481 638 500 631 q 447 660 463 644 q 422 701 432 675 q 404 774 411 728 q 400 692 399 721 q 414 644 401 663 q 463 618 426 625 q 531 635 500 611 m 544 1092 q 657 1133 579 1142 l 657 1139 q 558 1133 578 1154 q 488 1213 558 1156 l 482 1211 q 540 1093 526 1175 l 544 1092 m 683 269 q 735 199 708 231 q 817 128 763 168 q 1004 83 871 88 q 804 165 858 121 q 683 269 750 210 m 115 240 q 126 122 121 171 q 176 37 131 72 q 289 24 221 1 q 165 92 193 53 q 115 240 136 132 m 879 -254 q 883 -279 881 -271 q 890 -282 886 -281 q 933 -282 918 -292 q 952 -279 947 -272 q 936 -301 957 -286 q 897 -310 915 -315 q 860 -287 878 -306 q 856 -282 857 -285 q 844 -308 846 -292 q 790 -305 810 -292 q 766 -334 769 -318 q 778 -364 763 -350 q 757 -372 763 -367 q 766 -376 751 -376 q 790 -383 781 -376 q 817 -387 799 -389 q 847 -384 835 -386 q 899 -376 860 -382 q 935 -374 919 -375 q 1013 -393 928 -385 q 1110 -386 1104 -389 q 1117 -379 1115 -383 q 1122 -375 1119 -375 q 1131 -375 1124 -375 q 1143 -374 1139 -375 q 1140 -371 1147 -372 q 1131 -365 1132 -369 q 1133 -358 1131 -361 q 1111 -344 1135 -354 q 1093 -337 1103 -340 q 1109 -298 1111 -321 q 1087 -264 1107 -275 q 1053 -256 1067 -253 q 1033 -261 1039 -260 q 1009 -207 1033 -228 q 949 -187 985 -186 q 894 -212 913 -189 q 879 -254 876 -235 m 476 -94 q 451 -108 461 -100 q 454 -110 453 -108 q 496 -137 479 -125 l 499 -137 q 536 -124 522 -135 q 554 -105 550 -112 q 557 -90 558 -97 q 544 -82 556 -83 q 516 -84 532 -81 q 476 -94 500 -87 m 458 -144 q 436 -133 446 -133 q 442 -143 439 -137 q 443 -149 443 -146 q 458 -146 450 -147 l 460 -144 l 458 -144 m 244 -157 q 263 -162 251 -160 q 268 -153 265 -157 q 297 -126 279 -137 l 297 -125 q 290 -122 294 -124 q 250 -112 268 -112 q 224 -117 232 -112 q 213 -128 215 -121 q 219 -143 210 -135 q 244 -157 229 -151 m 324 -168 q 346 -161 336 -162 q 353 -149 346 -154 l 351 -147 q 340 -140 347 -143 q 307 -143 325 -137 q 283 -168 293 -147 q 324 -168 308 -172 m 264 -50 q 192 -53 226 -51 q 45 378 57 -54 q 30 931 33 811 q 263 1108 26 1050 q 490 991 499 1165 q 490 781 481 817 q 526 751 499 746 q 580 951 554 757 q 842 1163 606 1146 q 1111 1024 1079 1179 q 942 749 1143 869 q 960 587 742 628 q 1240 451 1178 546 q 1292 210 1301 357 q 1143 25 1283 63 q 856 45 1003 -12 q 667 176 708 103 q 608 233 625 249 q 643 110 592 218 q 510 -25 694 1 q 472 -29 490 -26 l 426 -104 l 411 -129 q 435 -101 419 -118 q 436 -100 426 -96 q 478 -71 456 -78 q 526 -62 501 -64 q 566 -67 550 -60 q 586 -84 582 -74 q 581 -109 590 -94 q 551 -137 572 -124 q 518 -153 536 -147 q 564 -158 536 -160 q 662 -95 604 -157 q 772 -67 719 -33 q 790 -144 825 -101 q 809 -203 754 -187 q 863 -246 864 -218 q 868 -267 863 -258 q 865 -240 865 -258 q 890 -194 865 -218 q 952 -169 915 -171 q 1018 -192 989 -168 q 1050 -247 1047 -215 q 1072 -244 1056 -244 q 1107 -257 1089 -243 q 1124 -294 1125 -271 q 1111 -333 1124 -318 q 1150 -346 1138 -340 q 1157 -361 1160 -356 q 1160 -371 1154 -367 q 1176 -378 1167 -375 q 1181 -383 1186 -381 q 1167 -385 1176 -385 q 1151 -386 1157 -386 q 1142 -389 1144 -386 q 1137 -399 1140 -392 q 1026 -406 1133 -406 q 932 -390 926 -406 q 890 -394 915 -393 q 841 -400 858 -397 q 804 -404 824 -403 q 765 -389 785 -406 q 758 -388 764 -387 q 740 -387 753 -389 q 726 -382 726 -386 q 754 -367 726 -378 q 745 -343 746 -361 q 761 -308 744 -325 q 803 -290 778 -292 q 836 -293 819 -289 q 846 -274 835 -285 l 847 -272 q 842 -250 842 -261 q 785 -215 840 -231 q 763 -151 729 -199 q 753 -85 796 -103 q 665 -124 711 -68 q 581 -184 618 -179 q 515 -176 544 -189 q 483 -161 499 -169 q 458 -164 469 -164 q 440 -162 449 -164 q 425 -174 435 -168 l 513 -254 q 532 -271 536 -251 q 476 -278 511 -297 q 397 -285 440 -258 q 329 -318 343 -322 q 310 -308 315 -321 q 326 -292 304 -296 l 376 -186 q 351 -176 360 -189 q 321 -185 339 -181 q 276 -186 297 -190 l 276 -189 q 263 -242 264 -228 q 242 -269 261 -257 q 192 -266 222 -282 q 136 -235 161 -250 q 96 -226 111 -219 q 78 -243 81 -232 q 76 -262 75 -254 q 72 -270 76 -271 q 63 -264 67 -269 q 64 -238 58 -258 q 82 -211 69 -218 q 109 -203 94 -204 q 144 -215 124 -203 q 201 -242 164 -226 q 249 -214 239 -258 q 256 -181 251 -194 q 225 -168 240 -175 q 194 -143 204 -157 q 187 -117 183 -129 q 206 -98 190 -106 q 244 -92 221 -90 q 294 -102 268 -93 q 338 -121 319 -111 q 342 -124 340 -122 l 344 -125 l 264 -50 z "},"L":{"ha":1214,"x_min":42,"x_max":1272,"o":"m 674 1182 q 534 1176 657 1179 q 405 1190 411 1172 q 381 1205 399 1207 q 340 1206 364 1203 q 316 1216 317 1208 q 338 1232 315 1224 q 359 1253 360 1240 q 376 1276 358 1265 q 425 1296 393 1288 q 423 1349 417 1306 q 462 1415 429 1392 q 533 1438 494 1439 q 581 1428 572 1436 q 586 1476 578 1444 q 637 1544 594 1507 q 749 1583 679 1581 q 860 1540 818 1586 q 901 1456 901 1494 q 900 1411 901 1418 q 958 1391 931 1413 q 981 1351 985 1369 q 1042 1367 1010 1372 q 1089 1343 1074 1361 q 1104 1292 1104 1325 q 1094 1249 1104 1260 q 1071 1229 1083 1239 q 1122 1213 1108 1217 q 1144 1203 1135 1208 q 1150 1187 1154 1197 q 1135 1172 1146 1176 q 1108 1166 1125 1167 q 1078 1165 1090 1165 q 1060 1163 1065 1165 q 1050 1148 1056 1161 q 858 1145 1044 1135 q 674 1182 671 1156 m 688 1199 q 851 1158 671 1167 q 1033 1160 1031 1149 q 1040 1174 1035 1172 q 1080 1176 1044 1175 q 1128 1184 1115 1176 q 1124 1199 1140 1192 q 1090 1210 1107 1206 q 1049 1224 1072 1214 q 1083 1255 1075 1244 q 1090 1299 1092 1265 q 1068 1345 1089 1332 q 1021 1357 1047 1358 q 978 1329 994 1356 q 941 1389 969 1375 q 885 1399 913 1403 q 890 1451 889 1415 q 854 1525 890 1486 q 753 1567 818 1564 q 646 1531 689 1569 q 597 1460 603 1493 q 597 1410 590 1428 q 544 1426 585 1422 q 475 1411 504 1431 q 438 1366 446 1392 q 432 1322 431 1340 q 442 1288 433 1303 q 376 1252 364 1263 q 370 1234 388 1242 q 356 1220 353 1226 q 374 1216 358 1214 q 404 1215 390 1218 q 419 1200 418 1213 q 688 1199 419 1188 m 827 541 q 816 539 827 541 q 779 538 804 538 q 731 558 754 538 q 721 563 728 563 q 697 565 714 563 q 680 572 681 567 q 718 590 679 576 q 707 622 707 597 q 729 666 707 646 q 783 686 751 686 q 828 671 807 686 q 842 703 826 692 q 879 706 858 715 q 876 747 872 717 q 908 806 879 778 q 986 833 938 833 q 1072 801 1035 833 q 1108 726 1108 769 q 1140 729 1118 729 q 1186 707 1161 729 q 1212 654 1211 685 q 1190 606 1213 624 q 1229 588 1213 594 q 1241 571 1246 578 q 1245 559 1236 564 q 1267 550 1254 554 q 1272 542 1279 546 q 1253 539 1265 539 q 1233 539 1240 539 q 1221 538 1225 539 q 1213 526 1217 536 q 1069 522 1208 517 q 947 549 938 528 q 893 544 925 546 q 827 541 850 544 m 836 557 q 844 558 836 557 q 906 564 853 560 q 953 565 933 565 q 1054 535 943 550 q 1184 536 1176 533 q 1194 545 1192 539 q 1200 551 1196 551 q 1213 550 1204 550 q 1228 551 1222 550 q 1224 556 1235 551 q 1213 565 1213 560 q 1217 574 1213 569 q 1189 593 1221 579 q 1164 604 1176 599 q 1188 656 1189 625 q 1160 701 1186 686 q 1117 714 1135 717 q 1090 707 1099 711 q 1061 782 1092 753 q 984 812 1031 811 q 911 783 938 813 q 887 727 885 753 q 892 689 889 701 q 855 693 867 704 q 839 658 843 682 q 766 667 793 683 q 733 628 739 650 q 747 589 728 607 q 719 579 728 585 q 731 572 711 574 q 762 562 750 571 q 797 553 774 553 q 836 557 819 554 m 600 500 q 581 365 558 432 q 671 290 603 299 q 779 350 739 281 q 665 326 694 311 q 619 372 635 340 q 600 500 604 403 m 582 690 q 642 893 636 813 q 588 1028 647 974 q 442 1060 528 1083 q 578 958 543 1028 q 582 690 614 888 m 149 386 q 124 260 121 313 q 183 163 128 208 q 354 133 239 117 q 213 196 281 144 q 149 386 146 247 m 1103 192 q 1126 316 1131 264 q 1067 415 1122 368 q 896 443 1013 461 q 1038 381 971 432 q 1103 192 1106 329 m 410 -114 q 421 -104 413 -107 l 419 -103 q 401 -85 414 -94 q 370 -58 388 -75 q 335 -37 353 -42 q 308 -33 318 -32 q 294 -41 299 -35 q 297 -58 289 -47 q 316 -78 304 -68 q 349 -101 328 -87 q 386 -114 369 -115 l 410 -114 m 526 -97 q 533 -99 529 -97 q 569 -121 553 -103 q 585 -142 579 -131 q 603 -137 594 -140 q 626 -125 619 -131 q 633 -112 632 -119 q 623 -100 633 -106 q 597 -93 613 -94 q 556 -92 581 -92 q 526 -97 538 -93 m 507 -124 l 507 -133 q 522 -135 514 -133 q 560 -140 536 -136 q 540 -128 553 -132 q 507 -124 521 -121 m 374 7 q 261 28 318 15 q 56 497 -11 79 q 183 1040 124 915 q 485 1129 242 1164 q 710 944 728 1094 q 665 599 693 794 q 696 390 638 403 q 752 442 754 378 q 931 519 750 506 q 1175 419 1113 533 q 1168 172 1238 304 q 1019 1 1099 39 q 736 -31 940 -37 q 581 -21 663 -29 l 482 -106 l 483 -106 q 513 -86 494 -97 q 563 -70 538 -71 q 612 -76 588 -69 q 649 -93 636 -82 q 662 -116 661 -104 q 649 -138 663 -128 q 613 -156 636 -149 q 589 -160 601 -158 q 644 -197 590 -179 q 665 -261 700 -214 q 673 -326 631 -308 q 763 -290 715 -344 q 847 -231 810 -235 q 913 -239 883 -226 q 969 -272 943 -251 q 1013 -270 996 -293 q 1040 -265 1031 -247 q 1026 -304 1049 -283 q 974 -306 1003 -325 q 925 -270 944 -287 q 865 -254 906 -253 q 765 -317 825 -256 q 654 -343 706 -378 q 638 -266 603 -308 q 619 -208 674 -224 q 567 -164 565 -192 q 565 -160 567 -162 l 561 -160 q 515 -150 535 -157 q 499 -144 507 -149 q 482 -151 493 -150 l 540 -254 q 553 -278 563 -260 q 497 -265 524 -296 q 421 -247 471 -235 q 344 -257 357 -267 q 330 -242 331 -256 q 350 -232 329 -228 l 404 -176 q 390 -178 397 -178 q 355 -168 375 -179 q 297 -142 335 -157 q 251 -171 260 -126 q 233 -231 243 -215 q 205 -260 222 -247 q 163 -264 188 -272 q 126 -246 138 -256 q 119 -231 114 -236 q 134 -233 125 -225 q 160 -244 143 -240 q 194 -242 176 -249 q 223 -197 211 -236 q 236 -143 235 -158 q 256 -115 238 -128 q 306 -118 275 -103 q 363 -148 336 -133 q 404 -156 389 -162 q 419 -143 415 -150 q 411 -131 413 -139 q 379 -131 397 -131 q 330 -113 350 -128 q 293 -82 310 -99 q 272 -49 276 -65 q 272 -22 267 -32 q 296 -10 278 -11 q 336 -17 314 -8 q 380 -42 358 -25 q 414 -74 401 -58 q 422 -85 418 -79 l 374 7 z "},"M":{"ha":1436,"x_min":36,"x_max":1421,"o":"m 950 329 q 930 208 935 290 q 985 79 925 126 q 1138 61 1046 32 q 980 176 1010 100 q 950 329 950 251 m 101 511 q 144 145 107 233 q 265 17 182 57 q 469 19 347 -22 q 227 75 317 15 q 101 511 138 135 m 582 785 q 580 633 543 683 q 699 588 617 582 q 801 693 781 594 q 674 657 715 642 q 619 697 632 672 q 582 785 607 722 m 557 832 q 552 931 575 878 q 450 1018 529 983 q 278 985 371 1053 q 453 959 397 985 q 557 832 510 933 m 1242 717 q 1194 958 1249 856 q 1063 1077 1139 1061 q 897 1031 986 1093 q 1097 965 1036 1043 q 1242 717 1157 886 m 426 -185 l 428 -185 l 426 -183 q 404 -170 418 -178 q 369 -150 390 -162 q 331 -136 349 -137 q 303 -137 313 -135 q 291 -148 294 -140 q 297 -164 288 -156 q 319 -181 306 -172 q 340 -190 328 -185 q 344 -186 342 -187 q 383 -174 358 -172 q 422 -183 408 -176 q 426 -185 425 -185 m 363 -199 q 397 -203 382 -206 q 417 -197 408 -200 q 390 -192 407 -192 q 363 -199 376 -192 m 632 -165 l 633 -164 q 638 -150 639 -157 q 626 -140 638 -143 q 597 -139 614 -136 q 563 -144 582 -140 q 608 -161 589 -151 q 632 -165 618 -165 m 349 -74 q 311 -76 331 -75 q 107 47 182 -83 q 38 573 32 178 q 196 1046 44 968 q 462 1078 347 1124 q 614 973 576 1033 q 651 825 651 913 q 713 745 651 738 q 731 848 775 753 q 754 1040 688 943 q 975 1159 821 1138 q 1196 1097 1129 1181 q 1333 804 1263 1014 q 1419 369 1404 594 q 1314 53 1435 144 q 1058 -19 1193 -39 q 877 76 922 0 q 867 318 832 153 q 838 322 903 483 q 671 290 774 161 q 653 290 568 419 q 694 56 739 160 q 565 -57 656 -40 l 490 -171 q 500 -161 494 -167 l 500 -160 q 521 -142 508 -146 q 561 -122 540 -126 q 610 -119 585 -118 q 649 -128 635 -119 q 667 -147 664 -136 q 667 -158 668 -153 l 669 -157 q 744 -67 707 -143 q 841 -7 781 10 q 881 -76 901 -24 q 917 -126 860 -128 q 981 -151 974 -124 q 1017 -178 988 -178 q 1057 -165 1046 -178 q 1075 -156 1068 -151 q 1067 -181 1082 -161 q 1032 -203 1051 -201 q 990 -192 1013 -204 q 961 -162 968 -181 q 897 -144 954 -143 q 856 -89 839 -144 q 828 -28 874 -33 q 755 -92 783 -24 q 693 -175 726 -160 q 642 -187 667 -186 q 626 -196 635 -192 q 577 -211 604 -207 q 531 -212 550 -215 q 513 -210 521 -211 q 497 -218 507 -215 l 575 -307 q 593 -332 608 -304 q 531 -356 567 -353 q 456 -358 496 -360 q 385 -350 397 -357 q 363 -338 364 -351 q 385 -324 363 -325 l 447 -225 q 424 -214 431 -225 q 392 -218 410 -217 q 346 -214 367 -221 q 338 -251 339 -226 q 336 -307 335 -292 q 322 -337 338 -322 q 272 -345 306 -353 q 211 -328 239 -337 q 172 -327 183 -318 q 160 -347 160 -336 q 167 -366 160 -357 q 167 -383 175 -375 q 150 -378 160 -390 q 141 -346 140 -367 q 153 -315 142 -325 q 178 -302 164 -306 q 215 -306 193 -299 q 276 -320 236 -312 q 316 -283 317 -328 q 322 -219 315 -237 q 328 -207 325 -212 q 299 -189 313 -199 q 270 -160 279 -175 q 265 -133 261 -144 q 286 -117 269 -122 q 326 -116 303 -112 q 375 -131 350 -119 q 415 -156 400 -143 q 425 -164 419 -160 l 349 -74 m 608 -185 q 564 -172 586 -181 q 524 -187 533 -161 q 519 -196 522 -193 q 533 -194 526 -196 q 574 -192 549 -193 q 608 -185 594 -192 m 817 1174 q 669 1229 772 1240 l 669 1235 q 800 1229 775 1257 q 893 1333 800 1258 l 900 1332 q 824 1176 842 1285 l 817 1174 m 1286 -186 q 1399 -144 1321 -136 l 1399 -139 q 1300 -144 1319 -124 q 1229 -65 1300 -122 l 1224 -67 q 1282 -185 1268 -103 l 1286 -186 m 1060 1297 q 965 1422 1058 1376 l 968 1428 q 1075 1354 1068 1390 q 1210 1392 1090 1378 l 1214 1388 q 1068 1296 1139 1378 l 1060 1297 m 967 -416 q 978 -416 967 -416 q 992 -424 989 -415 q 1096 -430 996 -432 q 1196 -411 1196 -428 q 1271 -417 1204 -412 q 1341 -412 1338 -422 q 1353 -404 1344 -403 q 1375 -404 1363 -406 q 1388 -399 1388 -403 q 1378 -389 1389 -394 q 1367 -376 1367 -383 q 1357 -361 1367 -368 q 1331 -350 1347 -354 q 1333 -319 1336 -344 q 1313 -278 1331 -293 q 1275 -263 1296 -264 q 1250 -268 1254 -262 q 1248 -240 1251 -258 q 1222 -198 1244 -221 q 1162 -172 1199 -175 q 1101 -195 1125 -169 q 1077 -244 1078 -221 q 1076 -271 1076 -267 q 1056 -259 1072 -257 q 1036 -274 1040 -261 q 1019 -245 1038 -261 q 973 -227 1001 -229 q 926 -243 944 -225 q 908 -277 908 -261 q 908 -292 907 -293 q 885 -299 894 -290 q 876 -315 876 -307 q 853 -310 868 -308 q 830 -320 839 -312 q 820 -342 821 -328 q 824 -360 819 -356 q 833 -368 828 -365 q 813 -375 818 -374 q 803 -379 807 -376 q 800 -386 799 -382 q 806 -392 801 -390 q 817 -395 810 -394 q 829 -396 824 -396 q 837 -397 835 -396 q 842 -403 839 -397 q 895 -412 844 -408 q 967 -416 946 -417 m 985 -400 q 860 -394 861 -399 q 858 -388 860 -389 q 842 -387 856 -387 q 824 -383 829 -386 q 828 -379 819 -381 q 841 -376 836 -378 q 856 -369 846 -374 q 837 -353 840 -361 q 837 -338 833 -346 q 849 -328 840 -331 q 867 -327 857 -325 q 886 -343 876 -329 q 899 -308 888 -312 q 929 -308 910 -303 q 922 -285 919 -299 q 936 -257 924 -271 q 973 -243 949 -243 q 1013 -258 997 -243 q 1032 -299 1029 -272 q 1061 -276 1049 -275 q 1090 -294 1074 -278 q 1092 -256 1093 -275 q 1110 -216 1092 -236 q 1160 -196 1129 -196 q 1213 -217 1192 -196 q 1238 -257 1235 -239 q 1236 -282 1240 -275 q 1263 -276 1243 -278 q 1297 -285 1283 -274 q 1313 -311 1310 -297 q 1316 -335 1317 -325 q 1310 -353 1315 -344 q 1343 -374 1349 -368 q 1346 -384 1338 -379 q 1353 -392 1354 -389 q 1343 -393 1351 -394 q 1328 -393 1335 -392 q 1322 -401 1322 -394 q 1189 -396 1321 -407 q 1107 -415 1196 -414 q 1010 -415 1018 -417 q 985 -400 1001 -412 z "},"N":{"ha":1360,"x_min":39,"x_max":1399,"o":"m 557 1308 q 704 1364 601 1375 l 704 1369 q 574 1364 599 1392 q 481 1468 574 1393 l 474 1467 q 550 1311 532 1419 l 557 1308 m 699 1175 q 586 1217 664 1225 l 586 1222 q 685 1217 665 1238 q 756 1296 685 1239 l 761 1294 q 703 1176 717 1258 l 699 1175 m 208 1211 q 303 1336 210 1290 l 300 1342 q 193 1268 200 1304 q 58 1306 178 1292 l 54 1301 q 200 1210 129 1292 l 208 1211 m 337 -351 q 328 -352 337 -351 q 300 -353 319 -353 q 263 -336 281 -353 q 256 -335 261 -335 q 237 -333 250 -335 q 224 -326 224 -331 q 253 -312 224 -322 q 244 -289 244 -307 q 262 -255 244 -271 q 304 -239 279 -239 q 338 -243 321 -239 q 348 -225 336 -235 q 372 -221 360 -215 q 369 -192 368 -214 q 397 -147 371 -169 q 459 -125 422 -125 q 524 -150 496 -125 q 553 -207 553 -175 q 576 -206 560 -206 q 610 -220 593 -206 q 626 -258 628 -235 q 610 -296 624 -282 q 649 -311 636 -304 q 655 -326 658 -321 q 658 -336 651 -332 q 674 -344 664 -340 q 678 -349 683 -347 q 664 -351 674 -351 q 648 -351 654 -351 q 639 -353 642 -351 q 633 -362 636 -356 q 522 -365 629 -369 q 429 -344 422 -360 q 388 -347 413 -347 q 337 -351 354 -349 m 344 -335 q 351 -334 344 -335 q 396 -329 357 -333 q 432 -328 417 -329 q 508 -351 425 -339 q 607 -349 601 -351 q 615 -343 613 -347 q 619 -339 617 -339 q 628 -339 621 -339 q 640 -338 636 -339 q 637 -335 644 -337 q 628 -329 629 -333 q 631 -322 628 -325 q 610 -307 633 -318 q 592 -300 601 -303 q 610 -260 611 -283 q 589 -226 608 -237 q 556 -217 569 -214 q 536 -221 542 -219 q 515 -165 538 -187 q 456 -143 492 -143 q 400 -165 419 -143 q 382 -207 381 -187 q 385 -235 383 -226 q 357 -233 367 -225 q 346 -258 347 -242 q 290 -253 311 -240 q 265 -281 269 -265 q 276 -311 261 -297 q 255 -318 261 -314 q 263 -323 249 -322 q 287 -331 278 -324 q 314 -337 296 -337 q 344 -335 332 -336 m 1218 779 q 1242 894 1247 814 q 1194 1035 1236 974 q 1021 1104 1153 1096 q 1158 994 1118 1063 q 1218 779 1199 925 m 168 649 q 101 336 104 433 q 117 209 97 239 q 158 164 138 179 q 215 144 179 149 q 299 154 251 139 q 201 178 238 163 q 140 263 164 193 q 168 649 117 333 m 679 314 q 699 234 694 250 q 726 169 704 218 q 765 108 747 121 q 814 81 782 94 q 893 71 846 67 q 805 124 832 107 q 758 173 778 142 q 679 314 739 204 m 958 -122 q 942 -128 953 -126 l 996 -232 q 1008 -256 1019 -237 q 953 -242 978 -274 q 876 -222 928 -211 q 801 -229 814 -237 q 787 -212 788 -226 q 808 -203 786 -199 l 890 -122 q 871 -104 875 -118 q 839 -103 857 -104 q 811 -96 825 -100 q 800 -115 806 -104 q 778 -166 782 -151 q 753 -190 774 -181 q 705 -178 733 -199 q 654 -139 676 -158 q 616 -124 632 -119 q 596 -138 600 -128 q 591 -156 592 -149 q 585 -163 590 -164 q 578 -156 581 -162 q 583 -130 575 -149 q 605 -106 592 -111 q 633 -103 618 -101 q 666 -120 649 -106 q 718 -157 683 -135 q 769 -136 753 -179 q 793 -86 782 -101 q 792 -83 792 -85 q 755 -51 771 -69 q 735 -17 739 -33 q 737 9 731 -1 q 761 20 743 19 q 801 13 779 21 q 844 -14 822 4 q 876 -47 865 -32 q 892 -74 885 -61 q 893 -74 893 -74 l 850 11 q 656 179 689 38 q 588 338 621 325 q 568 198 554 351 q 449 51 582 44 q 144 86 315 57 q 82 637 -26 115 q 316 1194 190 1158 q 560 1193 442 1229 q 732 1051 678 1157 q 829 815 786 944 q 869 932 872 686 q 1043 1157 865 1178 q 1268 1040 1221 1136 q 1305 471 1315 944 q 1161 -8 1294 -3 q 1035 -7 1101 -11 l 969 -61 q 974 -62 971 -61 l 975 -62 q 1025 -49 1000 -49 q 1074 -57 1050 -50 q 1111 -75 1099 -64 q 1124 -98 1124 -86 q 1110 -120 1124 -110 q 1072 -136 1096 -131 q 1033 -140 1054 -140 q 1075 -161 1047 -153 q 1190 -135 1114 -174 q 1303 -147 1265 -97 q 1293 -226 1342 -197 q 1291 -287 1244 -254 q 1327 -346 1338 -319 q 1340 -390 1317 -372 q 1379 -403 1363 -407 q 1399 -408 1396 -400 q 1377 -423 1401 -417 q 1337 -419 1353 -429 q 1310 -385 1321 -408 q 1305 -343 1299 -362 q 1264 -290 1311 -324 q 1265 -222 1217 -256 q 1280 -157 1314 -187 q 1183 -162 1246 -126 q 1084 -190 1119 -199 q 1025 -161 1049 -182 q 1001 -136 1013 -149 q 975 -129 988 -133 q 958 -122 967 -126 m 967 -110 q 983 -112 974 -111 l 985 -112 q 983 -111 985 -111 q 965 -93 975 -97 q 967 -104 967 -97 q 967 -110 968 -107 m 876 -82 q 872 -79 874 -81 q 836 -75 856 -72 q 825 -82 831 -76 q 847 -87 836 -87 l 871 -89 q 876 -82 872 -85 m 860 -56 q 833 -31 849 -46 q 799 -8 815 -14 q 773 -3 782 -3 q 758 -10 764 -4 q 759 -27 753 -17 q 778 -47 765 -37 q 807 -71 788 -58 q 831 -57 817 -62 q 860 -56 844 -51 m 1019 -118 q 1022 -119 1021 -118 q 1063 -117 1046 -124 q 1087 -106 1081 -111 q 1094 -94 1093 -101 q 1085 -81 1096 -87 q 1058 -73 1074 -75 q 1017 -71 1042 -71 q 988 -75 1000 -71 q 990 -78 989 -76 q 1019 -118 1008 -100 m 1193 218 q 1173 138 1186 171 q 1141 92 1160 104 q 1085 74 1122 79 q 1135 68 1114 65 q 1169 81 1157 71 q 1188 110 1182 90 q 1197 158 1193 129 q 1193 218 1200 188 m 726 847 q 701 904 726 847 q 629 1040 676 961 q 444 1133 582 1118 q 596 1006 553 1078 q 693 810 639 935 q 781 653 747 686 q 854 625 814 621 q 914 692 894 629 q 843 664 875 649 q 793 706 811 679 q 726 847 775 733 z "},"O":{"ha":1318,"x_min":21,"x_max":1283,"o":"m 632 450 q 699 447 632 450 q 808 542 765 443 q 788 729 850 642 q 605 783 726 817 q 491 603 483 749 q 632 450 499 457 m 1165 681 q 1123 881 1165 785 q 960 1050 1081 978 q 667 1101 839 1122 q 969 992 851 1076 q 1165 681 1086 908 m 400 622 q 399 426 354 533 q 572 306 443 319 q 758 383 700 293 q 576 353 649 336 q 451 437 503 369 q 400 622 399 504 m 185 286 q 264 163 218 210 q 373 80 310 117 q 583 43 436 43 q 340 124 414 68 q 185 286 267 179 m 425 -129 q 419 -125 422 -126 q 394 -119 411 -117 q 378 -131 386 -121 q 397 -135 389 -135 l 419 -135 q 425 -129 421 -131 m 404 -99 q 381 -78 394 -90 q 345 -58 363 -62 q 319 -53 328 -53 q 305 -60 310 -54 q 306 -77 300 -67 q 325 -97 313 -87 q 358 -121 338 -108 q 372 -108 364 -112 q 399 -100 385 -101 l 404 -99 m 518 -156 q 542 -156 528 -157 q 554 -154 547 -156 q 529 -137 546 -144 q 518 -135 524 -136 q 515 -137 517 -136 q 519 -147 518 -142 q 518 -156 519 -151 m 578 -154 l 581 -156 q 621 -147 604 -156 q 644 -133 638 -139 q 650 -119 650 -126 q 638 -108 650 -111 q 610 -104 626 -104 q 569 -108 593 -104 q 542 -117 553 -111 q 568 -140 553 -124 q 578 -154 575 -147 m 378 -3 q 124 197 219 53 q 28 631 -6 390 q 191 1007 63 871 q 503 1173 319 1143 q 843 1163 686 1203 q 1080 1060 1000 1124 q 1220 889 1160 997 q 1283 563 1281 781 q 1176 188 1286 344 q 900 -17 1065 32 q 592 -42 768 -54 l 501 -117 q 518 -112 510 -114 q 526 -107 522 -110 q 574 -87 550 -90 q 623 -86 599 -83 q 663 -98 647 -89 q 679 -119 678 -107 q 669 -143 681 -131 q 635 -165 657 -156 q 585 -175 613 -174 l 583 -175 l 583 -178 q 615 -216 582 -197 q 646 -273 649 -235 q 671 -317 643 -311 q 749 -295 699 -322 q 837 -267 800 -268 q 902 -281 874 -267 q 955 -317 931 -294 q 999 -319 979 -340 q 1026 -316 1019 -297 q 1008 -353 1032 -335 q 956 -351 985 -371 q 910 -312 928 -331 q 853 -292 893 -293 q 739 -325 813 -292 q 639 -328 665 -358 q 622 -272 613 -297 q 594 -227 631 -246 q 561 -181 558 -208 l 561 -175 q 536 -172 547 -175 q 511 -165 524 -169 q 493 -172 506 -171 l 551 -275 q 563 -297 575 -279 q 508 -285 535 -317 q 432 -268 482 -254 q 356 -278 368 -286 q 342 -262 343 -276 q 363 -251 340 -249 l 442 -168 q 421 -151 425 -165 q 390 -150 407 -151 q 368 -147 379 -150 l 367 -150 q 340 -191 356 -176 q 309 -208 325 -206 q 281 -207 293 -210 q 231 -184 268 -204 q 174 -169 193 -164 q 145 -187 156 -174 q 131 -212 135 -200 q 121 -223 128 -225 q 117 -206 114 -221 q 136 -169 121 -190 q 173 -148 151 -149 q 213 -154 194 -147 q 266 -178 231 -161 q 319 -176 301 -196 q 347 -139 338 -158 q 340 -135 343 -137 q 303 -103 319 -121 q 281 -68 286 -85 q 283 -42 276 -51 q 307 -31 290 -32 q 347 -37 324 -29 q 391 -62 369 -44 q 425 -94 413 -79 q 435 -108 431 -103 l 378 -3 m 444 1247 q 548 1238 456 1244 q 651 1242 640 1231 q 685 1249 661 1253 q 721 1248 708 1244 q 768 1268 733 1251 q 654 1317 667 1294 q 653 1378 668 1350 q 604 1417 638 1406 q 547 1422 571 1428 q 518 1411 524 1417 q 517 1443 521 1422 q 491 1492 513 1464 q 415 1523 469 1519 q 332 1499 361 1526 q 301 1443 303 1471 q 297 1410 299 1415 q 250 1417 278 1429 q 215 1376 222 1404 q 178 1392 200 1394 q 141 1374 156 1389 q 126 1338 126 1360 q 132 1308 125 1315 q 147 1294 139 1300 q 110 1284 119 1286 q 95 1278 101 1282 q 91 1268 89 1275 q 100 1257 93 1261 q 119 1252 107 1253 q 139 1251 131 1251 q 151 1249 147 1250 q 158 1238 154 1247 q 304 1228 161 1228 q 444 1247 447 1228 m 432 1263 q 313 1242 442 1242 q 182 1251 183 1243 q 178 1259 181 1258 q 153 1262 175 1260 q 123 1268 131 1264 q 126 1276 115 1272 q 147 1283 136 1281 q 175 1290 158 1286 q 141 1336 139 1311 q 160 1371 143 1361 q 196 1377 178 1381 q 221 1349 214 1374 q 255 1404 226 1400 q 311 1392 283 1408 q 315 1435 311 1407 q 340 1480 318 1463 q 397 1503 361 1497 q 465 1486 432 1508 q 499 1434 497 1464 q 508 1386 500 1404 q 590 1402 554 1419 q 634 1365 626 1385 q 640 1332 642 1344 q 633 1311 638 1319 q 746 1267 661 1288 q 688 1260 713 1256 q 655 1263 664 1264 q 644 1253 646 1261 q 432 1263 643 1246 m 983 -189 q 836 -133 939 -122 l 836 -128 q 967 -133 942 -106 q 1060 -29 967 -104 l 1067 -31 q 990 -186 1008 -78 l 983 -189 m 1135 -282 q 1247 -240 1169 -232 l 1247 -235 q 1149 -240 1168 -219 q 1078 -161 1149 -218 l 1072 -162 q 1131 -281 1117 -199 l 1135 -282 z "},"P":{"ha":1310,"x_min":-68,"x_max":1424,"o":"m 707 638 q 772 639 707 638 q 841 717 838 640 q 722 813 844 794 q 588 734 600 832 q 707 638 576 636 m 549 828 q 465 728 478 774 q 462 639 451 682 q 507 560 472 596 q 615 521 542 525 q 740 574 688 517 q 582 580 639 539 q 515 682 525 621 q 549 828 504 743 m 1210 576 q 1242 758 1242 713 q 1233 848 1242 804 q 1188 949 1224 892 q 1070 1049 1153 1007 q 868 1097 988 1092 q 1095 961 1043 1028 q 1174 819 1147 894 q 1210 576 1201 744 m 167 332 q 147 211 151 293 q 202 82 142 129 q 333 17 263 35 q 192 165 217 75 q 167 332 167 254 m 1100 -206 q 1203 -215 1111 -208 q 1306 -211 1296 -222 q 1340 -204 1317 -200 q 1376 -205 1364 -208 q 1424 -185 1389 -201 q 1310 -136 1322 -158 q 1308 -75 1324 -103 q 1260 -36 1293 -47 q 1203 -31 1226 -25 q 1174 -42 1179 -36 q 1172 -10 1176 -31 q 1147 39 1168 11 q 1071 70 1125 67 q 988 46 1017 74 q 956 -10 958 18 q 953 -43 954 -37 q 906 -36 933 -24 q 871 -76 878 -49 q 833 -61 856 -58 q 797 -78 811 -64 q 781 -115 782 -93 q 788 -145 781 -137 q 803 -158 794 -153 q 766 -169 775 -167 q 751 -174 757 -171 q 747 -185 744 -178 q 756 -196 749 -192 q 774 -201 763 -200 q 794 -202 786 -201 q 806 -204 803 -203 q 813 -215 810 -206 q 960 -225 817 -225 q 1100 -206 1103 -225 m 1088 -190 q 968 -210 1097 -211 q 838 -202 839 -210 q 833 -194 836 -194 q 808 -191 831 -193 q 778 -185 786 -189 q 781 -176 771 -181 q 803 -169 792 -172 q 831 -162 814 -167 q 797 -117 794 -142 q 816 -82 799 -92 q 851 -76 833 -72 q 876 -104 869 -79 q 910 -49 882 -53 q 967 -61 939 -44 q 970 -18 967 -46 q 995 27 974 10 q 1052 50 1017 44 q 1120 33 1088 56 q 1154 -19 1153 11 q 1164 -67 1156 -49 q 1246 -51 1210 -33 q 1290 -88 1282 -68 q 1295 -121 1297 -108 q 1289 -142 1293 -133 q 1401 -186 1317 -165 q 1344 -193 1368 -197 q 1310 -190 1319 -189 q 1300 -199 1301 -192 q 1088 -190 1299 -207 m 371 1250 q 92 1356 286 1376 l 92 1365 q 339 1356 292 1408 q 517 1553 339 1411 l 529 1550 q 385 1256 418 1461 l 371 1250 m 1163 106 q 1275 147 1197 156 l 1275 153 q 1176 147 1196 168 q 1106 226 1176 169 l 1100 225 q 1158 107 1144 189 l 1163 106 m 394 -87 q 185 6 288 -58 q 99 547 18 111 q 321 1107 179 982 q 740 1205 463 1232 q 1169 1082 1018 1178 q 1321 728 1319 986 q 1197 377 1322 471 q 957 306 1072 283 q 853 254 842 329 q 857 93 864 179 q 778 -56 850 7 q 636 -108 731 -99 l 551 -183 q 604 -175 572 -176 q 663 -182 636 -175 q 703 -200 689 -189 q 726 -224 717 -211 q 705 -253 736 -237 q 655 -257 674 -268 q 607 -257 636 -246 q 622 -306 608 -281 q 678 -326 635 -331 q 744 -321 721 -321 q 788 -328 767 -321 q 832 -337 810 -335 q 860 -331 854 -340 q 876 -326 867 -321 q 871 -346 885 -332 q 826 -359 857 -360 q 778 -348 796 -358 q 713 -344 761 -337 q 651 -349 665 -350 q 622 -340 638 -347 q 596 -313 606 -333 q 583 -262 586 -293 l 582 -261 q 550 -253 565 -261 q 539 -246 543 -249 q 511 -256 529 -257 l 569 -361 q 587 -378 592 -364 q 567 -390 582 -393 q 490 -357 551 -394 q 401 -352 439 -329 q 340 -347 364 -375 q 360 -329 332 -326 l 454 -244 q 446 -240 449 -242 q 397 -246 418 -244 q 338 -279 369 -247 q 283 -369 307 -311 q 215 -428 260 -426 q 156 -404 171 -429 q 99 -395 140 -379 q 35 -390 57 -411 q -25 -386 13 -368 q -48 -415 -44 -397 q -42 -446 -51 -432 l -57 -449 q -67 -405 -72 -431 q -37 -364 -61 -379 q 3 -358 -25 -358 q 49 -371 32 -357 q 104 -371 65 -385 q 174 -385 143 -357 q 231 -395 206 -414 q 268 -341 256 -376 q 306 -276 281 -306 q 364 -232 331 -246 q 417 -217 389 -221 q 378 -219 403 -215 q 301 -202 340 -228 q 267 -160 263 -176 q 284 -135 271 -144 q 324 -120 297 -125 q 370 -115 350 -115 q 425 -150 390 -115 q 463 -182 451 -174 l 394 -87 m 539 -218 q 544 -229 544 -222 q 553 -233 549 -232 q 578 -240 561 -240 q 564 -222 572 -228 q 539 -218 550 -215 m 526 -206 l 525 -207 q 531 -206 528 -206 q 567 -203 553 -197 q 592 -221 581 -210 q 603 -236 599 -226 l 603 -236 q 649 -236 639 -228 q 681 -238 660 -244 q 693 -226 703 -232 q 675 -212 683 -219 q 648 -200 667 -206 q 603 -196 629 -194 q 559 -199 578 -197 q 529 -206 540 -201 q 526 -206 528 -206 m 438 -207 q 454 -196 443 -197 q 444 -189 450 -192 q 411 -161 433 -183 q 372 -140 389 -139 q 341 -140 354 -142 q 307 -152 328 -139 q 320 -190 286 -165 q 386 -202 354 -214 q 431 -201 418 -190 q 438 -207 433 -206 z "},"Q":{"ha":1388,"x_min":-24,"x_max":1407,"o":"m 733 466 q 786 507 733 466 q 806 651 839 547 q 670 780 774 754 q 496 701 567 806 q 526 490 425 596 q 733 466 628 385 m 1340 35 q 1339 157 1381 85 q 1208 276 1297 229 l 1176 240 q 1290 167 1231 224 q 1340 35 1349 110 m 403 604 q 397 476 385 522 q 435 395 408 431 q 507 338 463 360 q 622 317 551 317 q 743 392 692 317 q 563 372 639 340 q 456 453 488 403 q 403 604 424 503 m 1106 822 q 1033 998 1089 931 q 857 1106 978 1065 q 624 1110 736 1146 q 876 1044 754 1097 q 1106 822 997 990 m 204 321 q 224 219 201 265 q 309 119 247 172 q 528 50 371 67 q 298 165 358 107 q 204 321 238 224 m 968 1244 q 821 1300 924 1311 l 821 1306 q 951 1300 926 1328 q 1044 1404 951 1329 l 1051 1403 q 975 1247 993 1356 l 968 1244 m 1226 -282 q 1339 -240 1261 -232 l 1339 -235 q 1240 -240 1260 -219 q 1169 -161 1240 -218 l 1164 -162 q 1222 -281 1208 -199 l 1226 -282 m 588 1233 q 574 1232 588 1233 q 556 1222 560 1232 q 424 1210 553 1213 q 296 1228 296 1207 q 200 1217 285 1226 q 110 1220 115 1207 q 94 1231 106 1233 q 66 1230 82 1229 q 49 1236 50 1231 q 62 1249 47 1242 q 76 1266 76 1257 q 87 1285 75 1275 q 119 1301 99 1294 q 116 1341 114 1308 q 140 1392 118 1374 q 188 1413 161 1411 q 221 1410 215 1415 q 221 1445 217 1421 q 253 1499 225 1469 q 328 1535 282 1529 q 406 1508 375 1540 q 440 1447 438 1476 q 440 1414 442 1418 q 467 1429 446 1431 q 493 1411 488 1428 q 513 1449 492 1428 q 571 1474 535 1469 q 631 1456 607 1478 q 658 1413 656 1433 q 657 1394 660 1392 q 687 1387 675 1397 q 700 1365 699 1376 q 728 1372 710 1374 q 759 1361 747 1371 q 772 1333 771 1351 q 769 1310 774 1315 q 757 1300 764 1304 q 784 1292 776 1293 q 797 1288 792 1290 q 801 1279 803 1285 q 793 1271 799 1274 q 778 1267 788 1268 q 763 1265 769 1265 q 753 1263 756 1264 q 747 1254 750 1261 q 680 1240 744 1247 q 588 1233 615 1233 m 569 1250 q 734 1265 733 1258 q 738 1272 735 1271 q 758 1274 740 1272 q 781 1280 775 1276 q 776 1285 788 1283 q 758 1289 765 1286 q 740 1297 751 1292 q 764 1318 760 1308 q 763 1338 768 1328 q 746 1353 757 1349 q 722 1353 735 1357 q 697 1331 710 1349 q 680 1376 694 1369 q 639 1374 665 1382 q 648 1406 651 1388 q 628 1441 644 1424 q 579 1458 611 1458 q 526 1437 547 1457 q 503 1382 506 1417 q 463 1410 479 1413 q 426 1385 447 1408 q 422 1437 422 1411 q 395 1488 421 1463 q 328 1511 369 1513 q 260 1481 288 1510 q 231 1428 233 1453 q 233 1394 228 1403 q 198 1401 225 1400 q 153 1388 171 1403 q 133 1353 136 1372 q 130 1322 129 1335 q 139 1299 131 1308 q 97 1269 90 1276 q 93 1255 104 1261 q 84 1245 82 1249 q 97 1244 86 1242 q 117 1244 108 1246 q 126 1233 125 1242 q 301 1247 126 1225 q 410 1224 293 1222 q 538 1230 528 1226 q 569 1250 549 1233 m 603 -175 q 589 -171 596 -172 q 550 -192 571 -168 q 547 -194 549 -193 q 582 -192 567 -197 q 593 -189 588 -190 q 603 -175 594 -181 m 569 -150 q 544 -140 558 -146 q 501 -131 521 -131 q 472 -134 481 -131 q 460 -147 464 -137 q 467 -164 457 -156 q 493 -179 476 -172 q 517 -187 503 -183 q 535 -172 526 -181 q 569 -150 553 -153 l 569 -150 m 672 -165 q 674 -162 674 -164 l 672 -165 m 724 -133 q 763 -147 744 -129 q 776 -162 771 -156 q 799 -147 790 -156 q 817 -122 813 -132 q 817 -105 821 -112 q 799 -99 814 -97 q 769 -108 785 -101 q 731 -128 753 -114 q 724 -133 726 -131 m 704 -194 q 721 -187 711 -192 q 751 -175 733 -182 q 708 -169 733 -154 q 697 -175 703 -174 q 703 -187 701 -181 q 704 -194 704 -192 m 536 -49 q 492 -37 514 -44 q 137 225 246 35 q 36 602 28 415 q 148 933 44 789 q 440 1159 251 1076 q 817 1201 628 1242 q 1135 1020 1006 1160 q 1294 669 1264 881 q 1233 314 1324 458 q 1405 59 1433 182 q 1245 -100 1376 -64 q 976 35 1114 -136 q 767 -50 872 -28 l 719 -107 q 725 -103 722 -106 q 775 -83 749 -90 q 820 -78 801 -75 q 845 -94 839 -82 q 844 -122 851 -106 q 819 -158 838 -139 q 790 -181 807 -171 q 797 -190 794 -186 q 851 -217 810 -210 q 977 -204 893 -224 q 1081 -217 1061 -185 q 1083 -271 1101 -249 q 1097 -317 1065 -293 q 1115 -366 1128 -340 q 1136 -411 1103 -392 q 1169 -413 1151 -419 q 1197 -393 1188 -407 l 1203 -404 q 1167 -433 1193 -424 q 1118 -429 1142 -442 q 1095 -402 1106 -422 q 1092 -364 1085 -382 q 1070 -324 1099 -346 q 1057 -266 1042 -301 q 1044 -222 1072 -231 q 957 -230 1017 -212 q 859 -243 897 -247 q 797 -222 821 -239 q 765 -193 779 -210 q 724 -206 743 -201 q 694 -211 708 -210 q 678 -218 689 -215 l 753 -324 q 768 -347 778 -325 q 712 -358 740 -371 q 604 -360 683 -346 q 540 -349 554 -357 q 523 -333 525 -349 q 546 -317 521 -318 l 621 -218 q 597 -207 604 -217 q 581 -211 589 -208 q 526 -212 551 -218 q 507 -225 517 -221 q 468 -232 486 -236 q 438 -221 450 -228 q 395 -180 426 -214 q 343 -143 364 -146 q 306 -151 322 -140 q 274 -178 290 -161 q 230 -197 258 -196 q 185 -181 201 -199 q 163 -144 169 -164 q 147 -81 157 -124 q 107 -37 138 -39 q 51 -41 76 -35 q 12 -42 26 -47 q -14 -26 -3 -36 q -24 8 -25 -15 q -17 37 -24 31 q -7 40 -11 43 q -5 31 -3 38 q -7 10 -7 24 q 6 -13 -7 -3 q 51 -15 19 -24 q 105 -10 82 -7 q 141 -25 128 -12 q 160 -49 154 -37 q 175 -107 165 -61 q 202 -166 185 -153 q 234 -175 219 -179 q 264 -155 249 -171 q 301 -127 279 -139 q 347 -122 324 -115 q 386 -142 369 -128 q 433 -186 403 -156 q 490 -203 464 -217 q 492 -203 492 -203 q 471 -192 481 -197 q 437 -162 447 -178 q 431 -133 426 -146 q 451 -114 435 -121 q 495 -108 468 -107 q 551 -119 522 -108 q 597 -142 579 -131 q 603 -146 600 -144 l 536 -49 z "},"R":{"ha":1272,"x_min":-12,"x_max":1264,"o":"m 613 740 q 667 725 613 740 q 744 776 721 710 q 673 890 768 843 q 542 854 578 938 q 613 740 506 771 m 1004 663 q 1060 808 1057 738 q 1000 958 1064 878 q 803 1033 936 1038 q 969 903 910 990 q 1004 663 1029 817 m 1097 19 q 1153 166 1150 94 q 1092 317 1157 238 q 910 421 1028 397 q 1062 262 1001 350 q 1097 19 1122 174 m 486 904 q 444 825 453 858 q 438 765 436 792 q 467 701 439 739 q 538 656 494 664 q 632 681 582 649 q 519 711 557 679 q 476 787 482 743 q 486 904 471 831 m 197 575 q 120 306 142 467 q 153 111 99 146 q 286 101 208 76 q 145 194 167 110 q 197 575 124 278 m 718 143 q 699 22 699 61 q 744 -42 700 -17 q 864 -78 789 -68 q 751 -16 772 -40 q 724 35 731 8 q 718 143 718 63 m 734 -353 q 743 -351 734 -353 q 762 -328 753 -349 q 770 -293 771 -307 q 746 -262 769 -279 q 699 -252 722 -246 q 665 -269 675 -258 q 654 -301 654 -281 q 669 -336 654 -321 q 700 -355 685 -351 q 734 -353 715 -358 m 378 -117 q 383 -126 382 -121 q 394 -125 388 -126 q 446 -133 421 -125 q 464 -142 456 -136 q 481 -136 474 -140 q 503 -124 497 -129 q 510 -111 510 -118 q 499 -99 510 -104 q 472 -92 488 -93 q 431 -93 456 -92 q 392 -106 406 -94 q 378 -117 383 -112 m 239 -1 q 114 25 172 11 q 83 480 -15 58 q 209 1018 182 901 q 385 1160 236 1135 q 687 1168 533 1186 q 994 1070 840 1150 q 1140 776 1147 990 q 917 508 1132 563 q 1193 297 1096 457 q 1225 -24 1290 138 q 874 -135 1160 -186 q 640 86 588 -85 q 651 272 693 257 q 591 249 610 288 q 593 81 572 210 q 442 -29 613 -46 l 358 -111 q 388 -90 369 -103 q 437 -72 413 -74 q 485 -75 461 -71 q 524 -89 510 -79 q 538 -110 538 -99 q 527 -134 539 -122 q 492 -153 515 -146 q 483 -156 488 -154 q 494 -167 489 -161 q 538 -242 518 -192 q 577 -308 557 -293 q 615 -294 597 -324 q 655 -244 632 -265 q 703 -225 678 -224 q 742 -233 729 -226 q 768 -250 754 -239 q 789 -285 782 -261 q 782 -331 796 -308 q 872 -299 851 -297 q 911 -318 892 -300 q 947 -368 931 -336 q 985 -403 964 -400 q 1015 -397 1006 -406 q 1029 -378 1025 -387 q 1038 -372 1033 -369 q 1044 -384 1043 -375 q 1026 -411 1044 -393 q 990 -428 1007 -429 q 956 -419 972 -428 q 925 -382 939 -411 q 888 -336 911 -353 q 821 -340 865 -319 q 755 -372 776 -361 q 707 -382 733 -382 q 658 -360 681 -382 q 632 -301 635 -337 q 589 -339 625 -333 q 524 -273 553 -344 q 471 -181 494 -201 q 444 -161 457 -167 q 442 -161 443 -161 q 394 -156 414 -161 q 388 -154 390 -154 q 376 -151 381 -154 q 361 -157 371 -156 l 424 -257 q 439 -278 447 -260 q 383 -270 411 -299 q 304 -257 354 -242 q 231 -272 243 -278 q 215 -258 217 -271 q 236 -244 213 -244 l 310 -157 q 288 -142 293 -154 l 257 -142 q 213 -132 232 -140 l 211 -133 q 185 -182 190 -168 q 158 -202 179 -196 q 112 -186 138 -208 q 65 -142 86 -164 q 28 -123 44 -121 q 7 -135 13 -125 q 0 -153 1 -144 q -6 -159 -1 -161 q -13 -151 -11 -157 q -5 -126 -15 -144 q 19 -105 6 -108 q 47 -103 33 -101 q 77 -123 61 -106 q 126 -165 93 -140 q 178 -150 160 -190 q 194 -121 186 -133 q 169 -100 181 -111 q 145 -67 151 -83 q 144 -41 139 -51 q 167 -27 150 -31 q 206 -31 183 -24 q 252 -53 229 -37 q 289 -83 275 -69 q 292 -86 290 -85 q 294 -89 293 -87 l 239 -1 m 286 -125 q 296 -114 288 -118 l 294 -114 q 286 -104 292 -110 q 253 -97 272 -97 q 225 -115 239 -99 l 225 -115 q 264 -125 249 -126 q 286 -125 276 -124 m 206 -104 q 213 -97 208 -100 q 247 -78 228 -83 q 243 -72 246 -75 q 207 -52 225 -57 q 181 -49 189 -47 q 167 -58 172 -51 q 170 -74 163 -64 q 190 -94 178 -85 q 206 -104 196 -99 m 203 1115 q 56 1171 158 1182 l 56 1176 q 186 1171 161 1199 q 279 1275 186 1200 l 286 1274 q 210 1118 228 1226 l 203 1115 m 986 -325 q 892 -200 985 -246 l 894 -194 q 1001 -268 994 -232 q 1136 -231 1017 -244 l 1140 -235 q 994 -326 1065 -244 l 986 -325 m 701 1347 q 711 1381 713 1363 q 688 1414 708 1403 q 654 1422 668 1425 q 635 1417 640 1418 q 610 1471 635 1450 q 550 1490 586 1492 q 496 1466 514 1489 q 480 1424 478 1443 q 485 1396 482 1404 q 456 1395 465 1404 q 446 1369 447 1386 q 391 1373 411 1386 q 367 1344 371 1360 q 379 1314 364 1328 q 358 1306 364 1311 q 367 1301 353 1301 q 391 1295 382 1301 q 418 1290 400 1289 q 449 1294 436 1292 q 500 1301 461 1296 q 536 1304 521 1303 q 614 1285 529 1293 l 622 1285 q 622 1300 621 1292 q 637 1337 622 1322 q 674 1354 651 1351 q 701 1347 689 1356 m 722 1361 q 746 1379 731 1372 q 793 1372 774 1392 q 797 1406 794 1378 q 828 1461 799 1433 q 911 1485 857 1489 q 987 1454 965 1482 q 1013 1406 1008 1426 q 1014 1374 1017 1385 q 1043 1385 1019 1379 q 1100 1379 1067 1390 q 1149 1340 1133 1368 q 1150 1279 1164 1313 q 1264 1231 1163 1257 q 1217 1210 1229 1214 q 1181 1211 1204 1207 q 1147 1204 1157 1215 q 1044 1200 1136 1193 q 940 1210 951 1207 q 800 1190 943 1190 q 653 1200 657 1190 q 647 1211 650 1210 q 635 1213 643 1213 q 615 1215 626 1214 q 596 1219 603 1215 q 587 1231 589 1224 q 591 1241 585 1238 q 606 1247 597 1244 q 643 1257 615 1249 q 628 1269 635 1263 q 626 1272 626 1271 q 533 1288 528 1272 q 492 1283 517 1285 q 442 1278 460 1281 q 406 1274 425 1275 q 367 1289 386 1272 q 360 1290 365 1290 q 341 1290 354 1289 q 328 1296 328 1292 q 356 1311 328 1300 q 347 1335 347 1317 q 363 1369 346 1353 q 404 1388 379 1386 q 438 1385 421 1389 q 447 1403 436 1393 q 471 1408 458 1414 q 467 1438 467 1415 q 492 1483 467 1460 q 553 1508 517 1507 q 619 1486 590 1510 q 651 1431 649 1463 q 674 1434 657 1433 q 708 1421 690 1435 q 725 1383 726 1407 q 722 1361 725 1371 m 724 1342 l 719 1331 q 717 1311 718 1322 q 692 1340 710 1336 q 656 1333 674 1343 q 636 1299 639 1324 q 639 1286 636 1292 l 646 1272 q 671 1253 654 1263 q 643 1246 654 1249 q 622 1239 632 1243 q 619 1231 611 1235 q 649 1224 626 1226 q 674 1222 671 1222 q 678 1213 676 1221 q 808 1205 679 1206 q 928 1225 938 1204 q 1140 1216 1139 1208 q 1151 1225 1142 1224 q 1184 1222 1160 1226 q 1242 1229 1208 1218 q 1129 1274 1157 1250 q 1135 1294 1133 1282 q 1130 1327 1138 1307 q 1086 1365 1122 1347 q 1004 1349 1050 1382 q 994 1397 996 1367 q 960 1449 993 1426 q 892 1465 928 1471 q 835 1442 857 1460 q 810 1397 814 1425 q 807 1354 807 1369 q 750 1367 779 1371 q 724 1342 732 1364 z "},"S":{"ha":1231,"x_min":-4,"x_max":1396,"o":"m 1085 711 q 1132 824 1133 768 q 1060 945 1131 879 q 872 1032 990 1011 q 1034 903 968 974 q 1085 711 1100 832 m 436 424 q 402 378 408 413 q 399 316 396 343 q 433 250 403 289 q 527 198 464 211 q 636 246 590 185 q 496 265 536 233 q 441 340 456 296 q 436 424 426 383 m 449 1200 q 539 1193 458 1200 q 624 1197 619 1186 q 640 1206 628 1207 q 667 1205 651 1204 q 683 1210 682 1206 q 669 1222 685 1215 q 656 1237 654 1229 q 646 1252 657 1244 q 615 1267 635 1260 q 618 1300 621 1271 q 595 1346 615 1329 q 549 1363 575 1363 q 517 1357 524 1363 q 515 1388 519 1368 q 485 1434 511 1408 q 413 1463 458 1460 q 339 1439 368 1467 q 309 1387 310 1411 q 308 1357 308 1363 q 270 1347 289 1360 q 254 1321 251 1333 q 215 1333 238 1336 q 183 1319 193 1331 q 172 1287 172 1308 q 177 1258 171 1265 q 190 1244 183 1251 q 157 1237 165 1239 q 142 1231 149 1235 q 138 1222 135 1228 q 147 1211 140 1215 q 164 1206 153 1207 q 183 1205 175 1206 q 195 1203 192 1204 q 201 1192 199 1201 q 327 1183 204 1183 q 449 1200 450 1183 m 849 -406 q 835 -408 849 -406 q 790 -410 821 -410 q 729 -387 760 -411 q 719 -385 728 -385 q 690 -382 711 -385 q 669 -372 669 -379 q 714 -347 668 -365 q 699 -309 700 -337 q 726 -254 699 -281 q 793 -226 754 -228 q 846 -243 821 -226 q 863 -205 844 -219 q 908 -203 882 -190 q 904 -150 901 -186 q 941 -78 907 -114 q 1035 -42 975 -43 q 1140 -78 1094 -40 q 1189 -168 1185 -117 q 1226 -165 1200 -165 q 1283 -190 1251 -164 q 1316 -254 1315 -215 q 1293 -314 1317 -293 q 1342 -335 1321 -328 q 1354 -354 1360 -344 q 1360 -371 1349 -364 q 1386 -381 1371 -378 q 1394 -388 1401 -385 q 1371 -392 1388 -392 q 1345 -393 1354 -393 q 1331 -397 1336 -393 q 1321 -412 1325 -400 q 1146 -419 1317 -425 q 997 -392 985 -417 q 932 -397 969 -396 q 849 -406 876 -401 m 856 -389 q 867 -387 856 -389 q 944 -378 878 -386 q 1006 -374 979 -378 q 1133 -410 994 -394 q 1300 -403 1292 -407 q 1312 -392 1308 -400 q 1320 -385 1315 -385 q 1337 -386 1325 -386 q 1356 -385 1349 -386 q 1350 -379 1363 -383 q 1336 -367 1338 -375 q 1339 -353 1335 -358 q 1303 -332 1343 -347 q 1269 -317 1289 -326 q 1300 -251 1303 -289 q 1265 -193 1297 -212 q 1208 -179 1232 -174 q 1175 -187 1185 -185 q 1135 -94 1175 -131 q 1036 -58 1096 -58 q 944 -98 976 -58 q 915 -169 913 -137 q 921 -218 917 -201 q 874 -216 890 -201 q 857 -258 858 -231 q 763 -251 797 -231 q 722 -300 728 -272 q 742 -351 715 -328 q 706 -365 717 -357 q 721 -374 696 -374 q 761 -385 746 -374 q 806 -394 776 -396 q 856 -389 835 -392 m 439 1215 q 335 1194 449 1194 q 220 1202 221 1194 q 217 1210 219 1210 q 191 1214 214 1211 q 160 1221 168 1217 q 164 1228 153 1225 q 186 1234 175 1232 q 211 1242 197 1236 q 190 1262 196 1256 q 187 1289 185 1268 q 203 1317 189 1310 q 233 1324 217 1325 q 260 1304 250 1322 q 286 1340 268 1332 q 321 1346 304 1349 q 321 1378 321 1356 q 345 1422 321 1400 q 410 1444 369 1444 q 476 1419 450 1444 q 506 1374 503 1394 q 503 1342 508 1353 q 537 1350 511 1349 q 581 1338 563 1351 q 603 1310 599 1325 q 605 1282 607 1294 q 599 1261 603 1269 q 639 1237 647 1243 q 642 1226 631 1231 q 650 1217 653 1221 q 638 1215 647 1214 q 619 1215 628 1217 q 610 1206 610 1213 q 439 1215 610 1199 m 254 931 q 231 840 233 897 q 289 709 228 782 q 478 619 350 636 q 292 738 339 669 q 254 931 244 806 m 144 372 q 122 281 125 339 q 178 151 118 224 q 369 61 239 78 q 179 179 231 107 q 144 372 128 251 m 474 -33 q 261 33 346 -12 q 89 215 142 97 q 76 450 36 332 q 230 581 115 568 q 431 533 344 593 q 519 422 518 474 q 563 359 519 371 q 614 378 606 347 q 603 435 622 408 q 499 513 583 463 q 303 614 415 563 q 165 813 192 665 q 274 1074 138 960 q 628 1174 410 1188 q 977 1083 846 1160 q 1155 918 1108 1006 q 1175 757 1201 831 q 1082 647 1149 683 q 891 647 1015 611 q 756 756 767 683 q 697 813 746 828 q 674 741 649 797 q 850 644 699 685 q 1049 556 1001 604 q 1120 444 1096 508 q 1135 304 1144 379 q 1075 138 1126 229 q 915 -8 1024 47 q 724 -51 842 -47 l 607 -149 q 629 -178 638 -160 q 594 -196 621 -197 l 657 -303 q 678 -321 685 -307 q 656 -331 672 -335 q 571 -297 639 -335 q 474 -290 515 -267 q 406 -285 433 -312 q 426 -265 397 -262 l 532 -183 q 511 -150 501 -169 q 515 -144 515 -142 q 501 -128 515 -129 q 471 -148 488 -125 q 438 -181 454 -171 q 406 -190 421 -192 q 382 -181 392 -187 q 344 -143 372 -175 q 298 -110 315 -111 q 274 -122 281 -110 q 264 -153 267 -133 q 251 -195 261 -174 q 224 -223 242 -217 q 188 -228 206 -229 q 136 -219 171 -226 q 90 -236 101 -211 q 76 -283 79 -261 q 64 -317 74 -306 q 43 -334 54 -328 q 15 -331 32 -340 q -4 -312 -3 -321 q -3 -302 -6 -304 q 3 -306 -1 -300 q 19 -315 8 -311 q 42 -313 29 -319 q 57 -276 54 -307 q 69 -227 60 -246 q 92 -201 79 -208 q 117 -194 106 -194 q 165 -203 128 -194 q 217 -205 201 -212 q 238 -179 232 -197 q 245 -140 243 -161 q 265 -101 247 -118 q 302 -90 283 -85 q 335 -108 321 -96 q 376 -149 349 -121 q 423 -162 403 -176 q 456 -129 443 -147 q 483 -108 469 -111 q 509 -108 497 -106 q 532 -129 521 -111 q 535 -135 533 -132 q 549 -136 542 -135 l 474 -33 m 994 163 q 1064 301 1053 229 q 1018 468 1075 374 q 822 599 961 563 q 642 669 683 635 q 593 749 601 704 q 626 840 585 794 q 560 789 567 824 q 557 726 554 754 q 590 660 560 699 q 665 613 621 621 q 820 561 710 604 q 982 417 931 518 q 994 163 1033 317 z "},"T":{"ha":1201,"x_min":22,"x_max":1240,"o":"m 1088 792 q 1112 919 1119 860 q 1040 1035 1104 978 q 868 1069 976 1092 q 1024 985 961 1049 q 1088 792 1086 922 m 765 56 q 869 119 832 76 q 903 240 906 161 q 793 574 901 319 q 859 221 863 303 q 765 56 856 139 m 289 -215 q 367 -223 297 -217 q 444 -220 436 -229 q 469 -214 451 -211 q 497 -215 488 -217 q 532 -199 506 -212 q 446 -158 456 -178 q 446 -110 457 -132 q 410 -78 435 -87 q 367 -74 385 -69 q 344 -82 349 -78 q 344 -58 347 -75 q 324 -17 340 -40 q 268 8 308 6 q 205 -12 228 11 q 181 -56 182 -35 q 179 -83 181 -78 q 144 -78 165 -68 q 118 -111 122 -87 q 90 -99 106 -96 q 63 -112 74 -101 q 51 -142 51 -124 q 55 -166 50 -160 q 67 -178 60 -172 q 39 -185 46 -183 q 27 -189 32 -186 q 24 -198 22 -192 q 31 -207 26 -204 q 45 -211 36 -210 q 60 -213 54 -212 q 69 -215 67 -214 q 74 -223 71 -215 q 185 -231 78 -231 q 289 -215 292 -231 m 281 -203 q 190 -219 288 -219 q 92 -212 93 -218 q 90 -206 92 -207 q 72 -203 89 -206 q 49 -198 54 -201 q 51 -191 43 -194 q 67 -185 58 -187 q 88 -179 75 -183 q 63 -142 61 -162 q 77 -115 64 -122 q 103 -110 90 -108 q 122 -133 117 -112 q 148 -87 126 -92 q 189 -99 169 -83 q 192 -64 190 -86 q 211 -27 194 -42 q 254 -8 228 -12 q 305 -22 281 -4 q 330 -65 329 -40 q 338 -103 331 -89 q 399 -90 372 -76 q 432 -121 426 -104 q 436 -147 438 -137 q 432 -164 435 -157 q 515 -200 451 -182 q 473 -205 492 -208 q 447 -203 454 -201 q 440 -210 440 -204 q 281 -203 439 -215 m 314 1171 q 97 1311 264 1292 l 100 1321 q 306 1264 274 1318 q 493 1396 317 1313 l 503 1390 q 325 1172 392 1335 l 314 1171 m 413 207 q 419 121 411 163 q 463 51 428 79 q 561 29 499 24 q 452 99 476 64 q 413 207 428 135 m 115 747 q 135 663 110 699 q 218 632 161 628 q 288 651 275 636 q 201 654 229 644 q 159 676 174 664 q 115 747 144 689 m 668 -185 q 685 -161 669 -168 q 668 -147 676 -154 q 654 -179 656 -154 l 654 -185 l 668 -185 m 653 -135 q 621 -124 639 -128 q 569 -115 590 -117 q 533 -118 549 -114 q 517 -131 517 -122 q 524 -149 517 -140 q 551 -169 531 -158 q 601 -182 571 -181 q 631 -183 617 -183 q 632 -172 632 -178 q 644 -142 633 -153 q 653 -135 647 -139 m 803 -131 q 821 -139 811 -132 q 856 -174 843 -157 q 903 -158 885 -167 q 935 -140 924 -151 q 944 -121 947 -129 q 930 -108 940 -112 q 896 -101 919 -103 q 844 -112 872 -100 q 803 -131 821 -124 m 785 -160 q 793 -171 790 -164 q 803 -174 797 -172 q 822 -176 811 -176 q 815 -169 818 -174 q 785 -160 801 -153 m 569 -42 q 474 -28 524 -37 q 383 615 265 10 q 153 581 228 547 q 47 699 79 615 q 35 864 15 782 q 155 1009 56 946 q 421 1103 254 1072 q 726 1138 588 1133 q 940 1135 864 1143 q 1088 1078 1015 1126 q 1176 933 1161 1029 q 1129 742 1190 838 q 829 688 1068 647 q 910 459 854 589 q 966 214 967 329 q 931 57 965 99 q 843 -3 906 26 l 783 -115 l 783 -114 q 838 -87 806 -100 q 902 -74 871 -75 q 953 -83 933 -74 q 977 -106 974 -92 q 968 -140 981 -121 q 928 -172 956 -158 q 886 -192 908 -183 q 907 -194 894 -193 q 1019 -172 944 -197 q 1113 -173 1094 -146 q 1119 -222 1132 -200 q 1135 -262 1106 -243 q 1157 -304 1165 -281 q 1178 -343 1149 -328 q 1210 -342 1194 -349 q 1232 -322 1225 -336 l 1240 -331 q 1210 -359 1232 -349 q 1165 -361 1189 -369 q 1142 -339 1154 -357 q 1135 -304 1131 -321 q 1113 -270 1140 -287 q 1097 -220 1086 -253 q 1081 -181 1107 -187 q 1003 -197 1056 -175 q 917 -217 951 -218 q 858 -203 882 -217 q 850 -200 854 -201 q 804 -196 829 -201 q 792 -193 797 -194 q 767 -212 785 -207 l 867 -318 q 894 -332 896 -314 q 876 -353 893 -350 q 779 -340 861 -362 q 681 -363 714 -324 q 611 -379 649 -403 q 625 -350 596 -356 l 700 -218 q 671 -204 678 -215 q 658 -206 664 -206 q 650 -207 654 -207 q 644 -222 647 -215 q 622 -246 636 -239 q 596 -253 608 -253 q 542 -249 583 -254 q 485 -251 500 -243 q 464 -276 469 -260 q 458 -310 458 -292 q 438 -344 457 -329 q 398 -356 419 -360 q 361 -343 376 -353 q 315 -312 346 -333 q 262 -304 283 -290 q 226 -334 240 -318 q 199 -353 213 -350 q 171 -356 185 -357 q 144 -341 157 -356 q 132 -319 131 -326 q 138 -311 133 -312 q 145 -316 143 -310 q 155 -331 147 -322 q 178 -339 163 -339 q 210 -318 194 -339 q 244 -287 226 -297 q 276 -278 261 -278 q 304 -284 292 -279 q 350 -313 317 -289 q 402 -337 383 -337 q 428 -326 421 -336 q 438 -299 436 -317 q 447 -261 439 -281 q 475 -235 456 -242 q 514 -228 494 -228 q 572 -233 533 -229 q 621 -215 611 -237 q 624 -208 622 -212 q 597 -207 611 -208 q 533 -190 561 -203 q 492 -161 506 -178 q 481 -129 478 -144 q 503 -103 483 -114 q 553 -92 522 -93 q 614 -96 583 -90 q 631 -100 622 -97 l 563 -43 l 569 -42 m 611 1372 q 768 1429 660 1442 l 768 1436 q 629 1429 657 1460 q 531 1540 629 1463 l 524 1538 q 604 1375 586 1488 l 611 1372 m 1040 486 q 1135 521 1069 528 l 1135 525 q 1051 521 1068 539 q 992 588 1051 540 l 988 586 q 1036 488 1025 556 l 1040 486 z "},"U":{"ha":1290,"x_min":22,"x_max":1303,"o":"m 461 768 q 474 906 482 842 q 388 988 465 971 q 224 963 311 1006 q 379 952 301 983 q 461 768 457 921 m 1042 815 q 1022 947 1049 883 q 919 1042 994 1011 q 771 1040 843 1072 q 922 992 851 1031 q 1042 815 992 954 m 483 372 q 483 290 472 317 q 508 237 493 263 q 553 197 524 211 q 629 181 582 182 q 710 231 676 181 q 594 210 642 197 q 523 261 546 224 q 483 372 500 299 m 207 171 q 240 72 211 115 q 335 -15 268 29 q 561 -58 403 -60 q 319 28 386 -22 q 207 171 251 79 m 897 36 q 917 -9 893 22 q 986 -53 942 -40 q 1076 -44 1031 -65 q 965 -23 1010 -46 q 897 36 919 0 m 521 -236 q 543 -218 522 -224 l 540 -215 l 539 -214 q 512 -207 528 -210 q 472 -199 496 -204 q 431 -199 447 -194 q 406 -209 414 -204 q 397 -221 399 -214 q 406 -234 396 -228 q 434 -243 417 -240 q 476 -247 451 -246 q 514 -239 500 -247 q 521 -236 518 -237 m 636 -222 q 671 -214 650 -218 q 708 -195 694 -207 q 726 -175 722 -183 q 728 -160 731 -167 q 713 -152 726 -153 q 685 -156 700 -151 q 647 -170 669 -160 q 614 -194 624 -181 q 606 -208 610 -203 q 614 -208 611 -207 q 632 -219 624 -211 q 636 -222 633 -221 m 450 -108 q 258 -40 342 -93 q 99 275 131 40 q 28 742 67 510 q 266 1024 -10 975 q 522 856 542 1074 q 523 481 501 638 q 588 297 544 325 q 694 297 631 268 q 724 479 757 326 q 605 796 692 632 q 633 1044 518 960 q 919 1096 747 1129 q 1102 880 1092 1063 q 1146 510 1113 697 q 1247 216 1179 324 q 1301 45 1315 108 q 1224 -50 1288 -18 q 1054 -94 1160 -82 q 861 -1 949 -106 q 678 -101 788 -75 l 639 -150 q 647 -147 643 -149 q 694 -134 669 -137 q 735 -135 718 -131 q 756 -151 751 -140 q 752 -178 761 -162 q 724 -207 743 -193 q 679 -231 706 -221 q 643 -240 660 -237 q 644 -242 643 -240 q 657 -273 647 -257 q 697 -283 667 -289 q 742 -276 726 -278 q 773 -278 757 -275 q 797 -295 789 -281 q 807 -324 804 -310 q 817 -346 810 -337 q 839 -353 824 -354 q 878 -330 854 -351 q 910 -302 901 -308 q 932 -294 919 -296 q 959 -300 944 -293 q 988 -322 974 -307 q 1015 -335 1003 -336 q 1033 -326 1028 -335 q 1040 -313 1039 -318 q 1044 -309 1040 -308 q 1049 -315 1047 -310 q 1042 -334 1051 -321 q 1022 -349 1033 -347 q 1000 -349 1011 -350 q 978 -335 989 -347 q 947 -314 967 -322 q 905 -325 928 -306 q 871 -353 882 -344 q 844 -367 860 -362 q 811 -361 828 -372 q 792 -335 794 -350 q 785 -308 790 -319 q 768 -291 781 -296 q 723 -294 756 -286 q 680 -302 690 -303 q 658 -298 669 -301 q 639 -282 647 -294 q 628 -249 631 -269 q 625 -242 626 -244 l 621 -242 q 601 -257 617 -250 l 681 -346 q 696 -367 703 -347 q 639 -366 671 -390 q 560 -362 607 -342 q 488 -389 500 -393 q 469 -376 474 -390 q 489 -361 465 -362 l 529 -294 q 475 -303 506 -301 q 366 -303 440 -304 q 266 -317 292 -301 q 251 -362 240 -332 q 255 -408 261 -392 q 226 -431 249 -424 q 166 -432 204 -439 q 121 -418 128 -425 q 117 -408 114 -411 q 135 -409 121 -404 q 168 -417 149 -414 q 215 -414 188 -419 q 233 -374 242 -408 q 233 -320 224 -340 q 267 -292 243 -300 q 322 -284 290 -285 q 425 -285 353 -283 q 519 -278 497 -286 q 542 -262 533 -271 q 525 -251 531 -260 q 517 -256 521 -254 q 465 -268 489 -269 q 417 -259 440 -267 q 381 -240 394 -251 q 369 -216 368 -228 q 383 -194 369 -204 q 421 -178 396 -183 q 473 -178 446 -174 q 519 -190 500 -182 l 450 -108 m 879 1135 q 784 1125 868 1133 q 695 1128 700 1117 q 678 1138 690 1140 q 651 1137 667 1136 q 633 1142 635 1138 q 647 1154 632 1147 q 660 1169 661 1161 q 672 1186 660 1178 q 704 1201 683 1194 q 699 1237 697 1207 q 723 1284 701 1267 q 772 1303 744 1301 q 804 1299 799 1304 q 806 1331 801 1310 q 838 1380 810 1353 q 912 1412 865 1407 q 990 1388 958 1417 q 1023 1333 1021 1360 q 1024 1303 1025 1307 q 1059 1292 1044 1304 q 1072 1268 1074 1279 q 1114 1281 1090 1283 q 1153 1267 1138 1279 q 1169 1231 1168 1254 q 1165 1201 1171 1208 q 1150 1188 1158 1193 q 1185 1178 1175 1179 q 1201 1172 1194 1176 q 1206 1161 1208 1168 q 1197 1151 1204 1154 q 1178 1145 1190 1147 q 1158 1142 1167 1143 q 1145 1140 1149 1142 q 1138 1130 1142 1139 q 1007 1119 1135 1121 q 879 1135 879 1117 m 888 1154 q 992 1134 879 1132 q 1107 1144 1106 1136 q 1111 1153 1108 1151 q 1135 1156 1114 1154 q 1165 1163 1157 1158 q 1163 1172 1174 1168 q 1141 1178 1153 1176 q 1114 1185 1129 1181 q 1149 1210 1143 1196 q 1148 1241 1156 1224 q 1124 1262 1140 1258 q 1092 1262 1108 1265 q 1065 1244 1075 1258 q 1039 1283 1057 1275 q 1004 1288 1021 1290 q 1003 1319 1004 1297 q 978 1364 1003 1342 q 914 1385 954 1386 q 848 1358 874 1383 q 819 1312 822 1333 q 822 1282 817 1290 q 788 1289 814 1288 q 746 1276 763 1290 q 725 1247 729 1263 q 722 1219 721 1231 q 731 1199 724 1207 q 690 1173 683 1179 q 687 1161 697 1167 q 678 1152 676 1156 q 691 1151 681 1149 q 710 1151 701 1153 q 719 1142 718 1150 q 888 1154 719 1135 m 583 1250 q 436 1306 539 1317 l 436 1311 q 567 1306 542 1333 q 660 1410 567 1335 l 667 1408 q 590 1253 608 1361 l 583 1250 m 960 -242 q 1072 -200 994 -192 l 1072 -194 q 974 -200 993 -179 q 903 -121 974 -178 l 897 -122 q 956 -240 942 -158 l 960 -242 z "},"V":{"ha":1193,"x_min":15,"x_max":1254,"o":"m 1089 990 q 1088 1103 1104 1054 q 1006 1190 1071 1153 q 851 1189 940 1226 q 1000 1144 936 1188 q 1089 990 1064 1101 m 328 297 q 375 180 351 219 q 420 99 399 140 q 485 33 442 58 q 603 2 529 7 q 733 72 678 -3 q 554 32 632 14 q 438 110 476 50 q 328 297 400 171 m 650 -165 q 658 -153 650 -158 l 657 -151 q 651 -147 654 -150 l 647 -144 q 633 -139 640 -142 q 604 -125 621 -133 q 597 -121 600 -122 q 558 -109 575 -110 q 531 -112 540 -108 q 519 -123 522 -115 q 526 -139 517 -131 q 550 -153 535 -147 q 568 -161 557 -157 q 588 -167 576 -164 l 589 -168 q 628 -171 611 -175 q 650 -165 640 -168 m 583 -57 q 556 -56 567 -57 q 446 -5 510 -50 q 330 131 382 40 q 176 448 278 221 q 36 831 75 675 q 81 1088 -3 988 q 376 1181 164 1189 q 573 998 588 1172 q 585 746 558 824 q 653 667 611 668 q 703 716 696 667 q 650 939 711 765 q 647 1176 589 1113 q 841 1269 704 1240 q 1071 1235 978 1299 q 1172 1056 1164 1172 q 1130 727 1181 939 q 1062 394 1079 515 q 1028 198 1044 274 q 946 47 1013 122 q 786 -37 890 -17 l 718 -136 q 742 -111 728 -125 q 787 -83 763 -90 q 836 -76 811 -76 q 876 -83 861 -76 q 895 -101 892 -90 q 888 -126 899 -112 q 856 -153 878 -140 q 828 -165 843 -160 q 844 -183 838 -175 q 899 -210 858 -204 q 1009 -168 939 -217 q 1124 -164 1079 -119 q 1124 -243 1168 -208 q 1131 -304 1081 -278 q 1174 -358 1181 -331 q 1193 -399 1168 -385 q 1235 -406 1218 -412 q 1255 -408 1251 -400 q 1235 -426 1258 -417 q 1194 -428 1213 -436 q 1163 -398 1176 -419 q 1152 -357 1149 -376 q 1104 -310 1156 -337 q 1096 -242 1053 -282 q 1101 -177 1139 -203 q 1006 -196 1064 -151 q 912 -237 949 -240 q 849 -217 875 -235 q 800 -172 822 -199 q 800 -172 800 -172 q 761 -174 779 -175 q 749 -172 754 -174 q 742 -175 744 -175 q 729 -182 738 -179 l 811 -267 q 831 -285 835 -265 q 772 -288 806 -311 q 694 -292 739 -265 q 624 -319 638 -325 q 606 -309 610 -322 q 624 -293 601 -296 l 679 -192 q 656 -181 663 -193 q 624 -187 642 -185 q 581 -186 600 -190 l 581 -187 q 563 -240 565 -225 q 540 -266 560 -256 q 491 -259 521 -276 q 437 -225 461 -242 q 397 -214 413 -208 q 378 -230 381 -219 q 375 -248 375 -240 q 370 -256 375 -256 q 362 -249 365 -256 q 365 -224 358 -243 q 384 -198 371 -204 q 412 -192 397 -192 q 446 -205 426 -192 q 501 -236 465 -218 q 550 -211 538 -254 q 560 -179 554 -193 q 528 -164 543 -172 q 499 -136 508 -150 q 494 -110 490 -122 q 514 -92 497 -99 q 553 -89 531 -86 q 602 -102 576 -92 q 644 -125 628 -112 q 646 -126 644 -125 q 651 -129 649 -128 l 583 -57 m 738 -140 l 738 -140 q 751 -131 743 -135 q 803 -139 776 -114 q 814 -150 808 -144 q 842 -137 831 -146 q 862 -120 857 -126 q 866 -107 867 -114 q 853 -97 865 -100 q 824 -97 840 -94 q 785 -106 808 -99 q 750 -126 761 -114 q 738 -140 743 -135 m 203 -7 q 56 49 158 60 l 56 54 q 186 49 161 76 q 279 153 186 78 l 286 151 q 210 -4 228 104 l 203 -7 m 351 -139 q 464 -97 386 -89 l 464 -92 q 365 -97 385 -76 q 294 -18 365 -75 l 289 -19 q 347 -137 333 -56 l 351 -139 m 156 -385 q 61 -260 154 -306 l 64 -254 q 171 -328 164 -292 q 306 -290 186 -304 l 310 -294 q 164 -386 235 -304 l 156 -385 m 498 1238 q 486 1238 498 1238 q 470 1228 474 1238 q 352 1217 467 1219 q 238 1235 238 1215 q 151 1224 226 1232 q 72 1227 76 1215 q 57 1237 68 1239 q 32 1235 46 1235 q 17 1241 18 1236 q 28 1253 15 1246 q 41 1268 42 1260 q 51 1285 40 1276 q 81 1300 61 1293 q 76 1335 74 1306 q 97 1381 78 1364 q 141 1400 117 1399 q 169 1396 165 1401 q 171 1428 167 1407 q 200 1477 175 1450 q 267 1508 225 1504 q 336 1484 308 1513 q 366 1430 364 1456 q 367 1400 368 1404 q 390 1414 372 1415 q 414 1397 408 1413 q 432 1431 413 1413 q 483 1453 451 1450 q 538 1438 515 1457 q 561 1399 560 1418 q 560 1383 563 1381 q 586 1376 575 1385 q 599 1357 597 1367 q 624 1363 607 1364 q 651 1353 640 1361 q 663 1328 661 1344 q 659 1307 664 1313 q 649 1299 654 1301 q 673 1291 667 1292 q 684 1288 679 1290 q 688 1280 689 1285 q 681 1272 686 1275 q 669 1268 676 1269 q 654 1267 661 1267 q 645 1265 647 1267 q 641 1258 643 1264 q 581 1245 639 1251 q 498 1238 522 1239 m 476 1256 q 619 1267 618 1263 q 622 1274 619 1272 q 639 1276 624 1275 q 660 1281 654 1278 q 656 1286 665 1285 q 640 1290 646 1288 q 624 1296 635 1292 q 644 1315 640 1306 q 644 1332 649 1324 q 629 1344 639 1340 q 609 1344 619 1347 q 586 1325 599 1340 q 572 1364 585 1358 q 536 1363 560 1369 q 544 1390 547 1374 q 527 1421 542 1406 q 485 1435 513 1436 q 439 1416 457 1433 q 419 1369 421 1399 q 385 1394 399 1396 q 353 1372 371 1392 q 349 1417 350 1394 q 326 1460 349 1439 q 268 1481 304 1482 q 209 1456 232 1481 q 184 1409 186 1431 q 186 1381 182 1388 q 156 1386 179 1385 q 117 1374 132 1388 q 99 1345 103 1361 q 97 1317 96 1329 q 104 1297 97 1306 q 67 1272 61 1278 q 65 1260 74 1265 q 57 1251 56 1254 q 68 1249 58 1247 q 85 1250 78 1251 q 93 1242 93 1249 q 244 1253 93 1235 q 339 1233 238 1232 q 449 1238 440 1235 q 476 1256 458 1240 m 515 817 q 511 879 515 817 q 504 1015 507 942 q 416 1105 501 1088 q 253 1094 331 1122 q 414 1065 360 1096 q 471 956 468 1035 q 475 781 474 878 q 517 621 476 685 q 654 560 558 557 q 771 649 750 563 q 645 592 715 579 q 549 648 575 604 q 515 817 524 692 z "},"W":{"ha":1397,"x_min":18,"x_max":1372,"o":"m 493 835 q 515 946 521 894 q 452 1047 508 997 q 301 1076 396 1096 q 438 1003 383 1058 q 493 835 492 949 m 783 272 q 799 182 789 226 q 856 97 808 138 q 982 71 903 56 q 852 128 888 85 q 783 272 817 171 m 428 1203 q 308 1191 414 1201 q 197 1195 203 1181 q 176 1208 192 1210 q 142 1206 161 1206 q 120 1213 122 1207 q 136 1228 118 1219 q 153 1247 154 1236 q 167 1267 153 1257 q 208 1288 182 1278 q 203 1332 200 1294 q 233 1391 206 1369 q 294 1414 260 1413 q 335 1408 328 1415 q 336 1449 331 1422 q 376 1510 342 1476 q 469 1551 411 1544 q 567 1522 528 1557 q 608 1453 606 1486 q 610 1414 611 1419 q 654 1400 636 1415 q 671 1371 672 1385 q 723 1388 693 1390 q 772 1369 753 1385 q 792 1324 790 1353 q 786 1286 794 1296 q 768 1269 778 1276 q 811 1257 799 1258 q 833 1250 824 1256 q 839 1236 842 1244 q 827 1224 836 1228 q 803 1217 818 1219 q 778 1213 789 1214 q 762 1210 767 1213 q 753 1197 757 1208 q 588 1183 749 1186 q 428 1203 428 1181 m 439 1232 q 573 1207 429 1204 q 718 1219 717 1210 q 724 1231 719 1229 q 755 1235 728 1232 q 792 1244 782 1238 q 790 1255 803 1250 q 762 1263 776 1260 q 728 1271 747 1265 q 772 1303 764 1285 q 771 1342 781 1321 q 740 1369 761 1364 q 699 1369 719 1374 q 665 1347 678 1364 q 631 1396 654 1386 q 588 1401 608 1406 q 587 1442 588 1414 q 555 1499 586 1471 q 473 1525 524 1526 q 390 1492 422 1524 q 353 1433 357 1460 q 357 1394 350 1406 q 313 1403 346 1401 q 259 1388 281 1406 q 233 1349 238 1369 q 229 1314 228 1329 q 240 1289 231 1299 q 189 1256 181 1264 q 184 1241 197 1249 q 174 1229 171 1233 q 190 1228 176 1225 q 213 1228 203 1231 q 225 1217 224 1226 q 439 1232 226 1207 m 911 -406 q 969 -300 906 -344 l 965 -296 q 894 -365 896 -336 q 789 -351 881 -349 l 786 -357 q 907 -407 843 -354 l 911 -406 m 614 1021 q 519 1146 613 1100 l 522 1151 q 629 1078 622 1114 q 764 1115 644 1101 l 768 1111 q 622 1019 693 1101 l 614 1021 m 1151 -421 q 1090 -428 1144 -422 q 1033 -426 1036 -433 q 1022 -419 1031 -418 q 1004 -420 1014 -421 q 993 -417 994 -419 q 1001 -409 992 -414 q 1010 -399 1011 -404 q 1017 -388 1010 -393 q 1039 -378 1025 -383 q 1035 -356 1033 -375 q 1051 -325 1038 -336 q 1083 -313 1065 -314 q 1103 -315 1100 -312 q 1104 -294 1101 -308 q 1125 -262 1107 -279 q 1173 -242 1143 -244 q 1223 -258 1203 -239 q 1244 -293 1243 -276 q 1246 -314 1246 -310 q 1268 -320 1258 -312 q 1276 -335 1278 -328 q 1303 -326 1289 -325 q 1328 -336 1318 -328 q 1340 -359 1339 -344 q 1336 -378 1340 -374 q 1326 -387 1332 -383 q 1349 -394 1342 -393 q 1360 -397 1356 -394 q 1363 -405 1365 -400 q 1357 -412 1361 -410 q 1345 -415 1353 -414 q 1331 -417 1338 -417 q 1323 -419 1325 -418 q 1319 -425 1321 -419 q 1234 -432 1317 -431 q 1151 -421 1151 -433 m 1157 -410 q 1224 -422 1151 -424 q 1298 -415 1297 -421 q 1301 -410 1299 -410 q 1317 -408 1303 -410 q 1337 -403 1332 -407 q 1335 -397 1342 -400 q 1321 -394 1328 -394 q 1303 -389 1314 -393 q 1326 -373 1322 -382 q 1326 -353 1331 -364 q 1310 -340 1321 -342 q 1288 -340 1299 -337 q 1272 -350 1278 -342 q 1255 -326 1267 -331 q 1232 -324 1243 -321 q 1231 -301 1232 -315 q 1215 -273 1231 -287 q 1174 -260 1200 -258 q 1132 -277 1149 -261 q 1113 -307 1115 -293 q 1115 -326 1111 -321 q 1092 -322 1108 -324 q 1066 -330 1076 -321 q 1052 -349 1056 -339 q 1050 -367 1049 -358 q 1056 -381 1051 -375 q 1029 -397 1025 -393 q 1027 -405 1033 -401 q 1022 -410 1021 -408 q 1030 -411 1022 -412 q 1042 -410 1038 -410 q 1047 -416 1047 -411 q 1157 -410 1047 -421 m 1100 -122 q 1119 -114 1111 -118 q 1142 -100 1133 -108 q 1149 -84 1151 -92 q 1137 -73 1146 -76 q 1110 -70 1128 -69 q 1072 -82 1093 -71 q 1064 -86 1068 -83 q 1065 -86 1064 -86 q 1094 -114 1083 -97 q 1100 -122 1097 -117 m 1018 -126 q 1042 -132 1028 -129 q 1079 -129 1057 -136 q 1056 -106 1068 -110 q 1022 -106 1038 -100 l 1021 -106 q 1011 -112 1015 -108 l 1010 -114 q 1018 -126 1018 -119 m 874 13 q 814 50 839 28 q 731 211 758 100 q 678 217 703 322 q 614 38 654 111 q 419 -49 574 -35 q 201 22 264 -64 q 51 581 138 108 q 111 1113 -36 1053 q 396 1149 258 1172 q 581 1017 533 1126 q 540 762 628 908 q 501 586 453 615 q 564 689 550 557 q 668 815 578 821 q 800 691 758 808 q 877 617 842 574 q 810 772 913 660 q 730 1001 708 883 q 894 1175 751 1119 q 1223 1173 1038 1231 q 1365 602 1408 1115 q 1200 33 1322 89 q 1099 -3 1147 8 l 1017 -90 q 1022 -87 1019 -89 q 1025 -86 1024 -86 q 1066 -63 1040 -74 q 1115 -50 1092 -53 q 1154 -53 1138 -47 q 1174 -72 1171 -60 q 1169 -97 1178 -83 q 1139 -125 1160 -111 q 1108 -140 1125 -133 q 1119 -172 1114 -154 q 1167 -197 1131 -215 q 1222 -166 1203 -179 q 1256 -153 1242 -153 q 1284 -159 1271 -153 q 1303 -185 1297 -165 q 1306 -210 1310 -204 q 1298 -217 1303 -217 q 1293 -209 1293 -217 q 1290 -191 1293 -201 q 1272 -175 1288 -181 q 1231 -186 1256 -169 q 1177 -220 1207 -203 q 1128 -227 1147 -237 q 1106 -201 1108 -217 q 1089 -149 1103 -186 l 1088 -147 q 1044 -149 1068 -151 q 1013 -142 1026 -146 q 989 -153 1006 -154 l 1044 -254 q 1063 -270 1067 -257 q 1044 -281 1058 -283 q 974 -253 1031 -286 q 896 -249 929 -226 q 838 -246 863 -272 q 857 -228 833 -226 l 939 -143 q 924 -133 928 -139 q 906 -135 915 -135 q 860 -131 886 -136 q 847 -128 853 -131 q 822 -172 825 -142 q 807 -225 821 -203 q 769 -259 793 -247 q 724 -276 746 -271 q 633 -287 703 -281 q 538 -305 563 -293 q 505 -333 514 -317 q 496 -365 496 -350 q 476 -395 496 -379 q 438 -417 456 -411 q 394 -420 421 -424 q 358 -406 367 -417 q 347 -380 349 -394 q 363 -344 344 -365 q 392 -297 382 -324 q 350 -258 401 -271 q 274 -239 299 -246 q 233 -217 250 -232 q 230 -176 217 -201 q 260 -138 243 -151 q 285 -128 278 -125 q 281 -143 293 -132 q 259 -171 268 -154 q 260 -203 250 -187 q 326 -231 269 -219 q 397 -248 383 -242 q 422 -267 411 -254 q 427 -301 433 -281 q 397 -348 421 -321 q 382 -387 372 -375 q 408 -401 392 -400 q 444 -390 425 -403 q 467 -363 464 -378 q 479 -326 469 -349 q 521 -290 489 -304 q 585 -272 553 -276 q 684 -260 618 -267 q 767 -225 750 -254 q 785 -172 785 -196 q 803 -133 786 -147 q 821 -119 811 -125 q 811 -114 817 -117 q 780 -87 790 -101 q 773 -62 769 -74 q 792 -44 776 -51 q 832 -37 807 -37 q 881 -44 857 -37 q 926 -72 906 -51 q 950 -97 940 -86 l 874 13 m 926 -106 q 931 -101 928 -103 q 918 -87 925 -96 q 883 -67 907 -75 q 844 -58 860 -60 q 815 -58 828 -56 q 802 -68 803 -61 q 806 -81 801 -75 q 825 -99 811 -87 q 842 -107 832 -104 q 894 -100 863 -97 q 926 -106 918 -101 m 419 663 q 380 581 381 635 q 429 501 379 526 q 532 521 479 476 q 440 544 474 510 q 419 663 406 578 m 149 557 q 197 230 164 360 q 287 51 231 100 q 438 21 343 1 q 283 88 325 36 q 149 557 240 139 m 1263 838 q 1288 974 1296 911 q 1212 1099 1281 1038 q 1026 1135 1143 1160 q 1193 1045 1126 1113 q 1263 838 1260 978 m 771 592 q 765 620 771 592 q 751 671 758 649 q 728 706 744 693 q 676 728 711 719 q 619 697 640 738 q 679 697 661 706 q 715 674 697 689 q 748 588 733 660 q 791 486 763 517 q 884 463 819 456 q 949 574 949 469 q 876 502 926 508 q 804 515 825 496 q 771 592 783 535 z "},"X":{"ha":1360,"x_min":17,"x_max":1313,"o":"m 600 1253 q 464 1332 567 1326 l 465 1338 q 593 1310 572 1342 q 700 1397 597 1339 l 708 1396 q 607 1254 643 1358 l 600 1253 m 775 1332 q 719 1478 796 1408 l 724 1483 q 806 1382 810 1418 q 946 1379 826 1400 l 949 1374 q 782 1328 874 1386 l 775 1332 m 1169 -412 q 1100 -407 1142 -411 q 1053 -403 1074 -404 q 940 -421 1061 -421 q 809 -412 813 -421 q 803 -400 806 -403 q 793 -397 801 -397 q 773 -397 785 -397 q 756 -392 761 -396 q 761 -387 750 -389 q 781 -380 772 -385 q 785 -368 789 -375 q 796 -353 781 -361 q 832 -337 813 -349 q 815 -293 814 -321 q 842 -246 817 -265 q 885 -228 867 -226 q 911 -232 903 -229 q 951 -166 917 -194 q 1028 -139 985 -137 q 1099 -168 1072 -140 q 1126 -223 1125 -196 q 1122 -261 1128 -250 q 1155 -264 1142 -251 q 1167 -294 1168 -276 q 1208 -282 1186 -282 q 1258 -303 1238 -283 q 1276 -353 1278 -324 q 1269 -378 1276 -367 q 1282 -385 1272 -381 q 1298 -392 1299 -387 q 1283 -399 1297 -397 q 1256 -399 1268 -401 l 1256 -399 q 1253 -403 1254 -401 q 1199 -419 1228 -421 q 1169 -412 1183 -419 m 1149 -392 q 1174 -396 1160 -396 q 1240 -393 1222 -406 q 1258 -376 1257 -381 q 1244 -369 1260 -372 q 1245 -361 1238 -368 q 1252 -339 1253 -354 q 1228 -308 1251 -324 q 1151 -318 1206 -293 q 1142 -276 1153 -286 q 1092 -282 1132 -265 q 1107 -239 1104 -265 q 1090 -190 1110 -212 q 1028 -165 1071 -167 q 956 -188 985 -164 q 926 -251 926 -212 q 903 -246 919 -250 q 863 -254 888 -242 q 836 -293 839 -267 q 856 -340 833 -319 q 833 -349 844 -344 q 807 -364 804 -360 q 810 -373 810 -368 q 800 -381 810 -378 q 796 -384 790 -383 q 809 -385 801 -385 q 820 -385 817 -386 q 826 -390 824 -385 q 835 -398 829 -394 q 953 -406 840 -401 q 1046 -383 1054 -397 q 1090 -386 1064 -385 q 1149 -392 1124 -389 m 158 378 q 103 267 113 322 q 138 142 93 211 q 290 65 183 72 q 144 174 189 88 q 158 378 100 260 m 1138 15 q 1186 156 1197 75 q 1108 321 1175 236 q 922 433 1040 406 q 1082 257 1011 360 q 1138 15 1153 154 m 776 222 q 754 103 763 168 q 797 10 746 38 q 906 -24 847 -18 q 817 20 864 -14 q 776 222 769 54 m 1179 679 q 1235 790 1225 735 q 1199 915 1244 846 q 1047 992 1154 985 q 1170 876 1129 950 q 1179 679 1211 801 m 414 -151 q 431 -153 422 -153 l 433 -154 q 431 -150 432 -153 q 411 -135 422 -137 q 414 -146 414 -139 q 414 -151 415 -149 m 468 -157 l 469 -158 q 511 -153 494 -161 q 534 -140 528 -146 q 541 -128 540 -135 q 531 -116 542 -121 q 503 -110 519 -111 q 463 -110 488 -108 q 435 -115 446 -111 q 436 -117 435 -117 q 468 -157 456 -139 m 319 -153 q 288 -153 306 -153 q 244 -140 264 -150 l 244 -142 q 215 -188 221 -175 q 188 -208 208 -201 q 142 -190 167 -214 q 97 -145 117 -167 q 60 -125 78 -124 q 38 -136 43 -126 q 32 -153 33 -146 q 26 -160 31 -161 q 18 -151 21 -158 q 26 -127 15 -144 q 51 -107 38 -110 q 80 -107 65 -104 q 110 -128 94 -110 q 158 -172 126 -146 q 210 -158 189 -197 q 226 -129 218 -140 q 200 -106 213 -118 q 178 -74 183 -89 q 178 -47 172 -58 q 201 -34 185 -36 q 241 -40 218 -32 q 286 -63 264 -47 q 321 -94 308 -79 q 322 -97 322 -96 q 329 -101 326 -100 l 272 -7 q 206 17 240 4 q 47 313 -3 101 q 414 586 96 524 q 158 1015 110 793 q 445 1222 206 1238 q 708 1071 685 1206 q 672 860 732 936 q 635 747 613 785 q 697 722 658 710 q 752 929 735 735 q 1042 1066 769 1124 q 1313 797 1315 1008 q 942 551 1311 585 q 1264 184 1238 371 q 1249 -62 1290 -3 q 919 -89 1207 -122 q 686 93 631 -56 q 697 293 742 242 q 611 302 653 344 q 613 121 569 260 q 536 -42 656 -18 q 474 -47 507 -49 l 415 -103 q 418 -104 417 -103 l 419 -103 q 469 -87 444 -87 q 519 -92 494 -86 q 556 -108 543 -97 q 571 -130 569 -118 q 558 -153 572 -142 q 522 -171 544 -164 q 483 -176 504 -176 q 526 -197 499 -190 q 639 -163 565 -206 q 753 -169 713 -121 q 748 -248 794 -217 q 749 -309 701 -279 q 784 -342 797 -339 q 722 -312 771 -344 q 720 -244 674 -281 q 731 -180 767 -208 q 633 -191 694 -151 q 537 -225 572 -231 q 475 -199 501 -219 q 451 -175 463 -187 q 425 -169 436 -174 q 407 -164 415 -168 q 390 -171 401 -169 l 451 -271 q 465 -294 475 -275 q 409 -284 436 -314 q 331 -269 382 -254 q 257 -281 271 -289 q 242 -265 243 -279 q 261 -254 240 -251 l 339 -168 q 319 -153 325 -165 m 318 -135 q 329 -125 321 -129 l 328 -125 q 317 -114 324 -119 q 286 -107 303 -106 q 257 -125 272 -108 q 294 -136 278 -137 q 318 -135 307 -135 m 239 -112 q 246 -106 242 -108 q 281 -87 261 -93 q 283 -87 282 -87 q 276 -81 279 -85 q 241 -60 258 -65 q 215 -57 224 -56 q 201 -65 206 -58 q 203 -81 196 -71 q 222 -101 210 -92 q 239 -112 229 -107 m 554 898 q 528 827 554 898 q 524 681 501 756 q 625 591 546 607 q 746 651 704 575 q 592 687 658 625 q 577 849 525 749 q 643 1008 629 949 q 617 1113 657 1068 q 508 1160 578 1157 q 581 1085 554 1131 q 554 898 607 1040 z "},"Y":{"ha":1267,"x_min":10,"x_max":1256,"o":"m 138 939 q 139 811 125 893 q 213 669 153 729 q 385 572 274 610 q 215 708 279 646 q 138 939 151 769 m 561 57 q 496 170 500 90 q 496 304 492 250 q 470 183 475 253 q 488 83 465 113 q 561 57 511 53 m 903 -111 l 904 -111 q 939 -131 925 -118 q 947 -139 943 -133 q 965 -126 958 -132 q 985 -106 978 -117 q 987 -88 992 -94 q 972 -80 982 -82 q 945 -83 963 -78 q 910 -104 928 -87 q 903 -111 906 -108 m 854 -151 q 865 -161 864 -154 l 890 -161 q 928 -150 907 -162 q 899 -132 913 -133 q 867 -139 881 -131 q 856 -150 860 -144 q 854 -151 856 -150 m 685 -53 q 571 -33 631 -49 q 396 145 389 10 q 419 376 403 281 q 248 566 436 472 q 60 930 60 660 q 326 1209 60 1200 q 589 1034 592 1218 q 617 817 586 850 q 697 818 649 785 q 706 1035 744 851 q 939 1253 668 1219 q 1249 1069 1210 1288 q 1126 727 1289 851 q 970 509 963 603 q 1038 306 978 415 q 1068 103 1097 197 q 913 -29 1040 14 l 856 -126 q 861 -121 858 -124 q 864 -119 863 -121 q 899 -87 876 -103 q 945 -62 922 -71 q 986 -57 968 -54 q 1010 -71 1004 -60 q 1010 -97 1015 -82 q 988 -131 1006 -112 q 960 -154 975 -143 q 976 -183 968 -167 q 1031 -198 1000 -225 q 1079 -153 1063 -171 q 1111 -132 1096 -135 q 1140 -132 1126 -129 q 1165 -153 1154 -135 q 1174 -178 1176 -171 q 1167 -186 1172 -186 q 1161 -178 1163 -186 q 1154 -161 1160 -171 q 1131 -150 1149 -151 q 1093 -172 1113 -149 q 1047 -219 1074 -194 q 999 -236 1021 -243 q 972 -215 978 -229 q 942 -168 965 -201 l 940 -167 q 897 -178 922 -176 q 865 -179 879 -179 q 844 -194 860 -192 l 925 -282 q 944 -294 946 -281 q 929 -310 943 -308 q 851 -299 915 -319 q 772 -314 800 -283 q 714 -324 743 -344 q 729 -300 704 -306 l 790 -197 q 774 -192 779 -196 q 757 -197 765 -194 q 728 -203 743 -201 q 703 -226 715 -215 q 641 -253 678 -247 q 541 -218 604 -258 q 442 -207 478 -178 q 449 -270 406 -236 q 447 -319 493 -304 q 405 -362 400 -335 q 397 -405 410 -390 q 368 -430 385 -419 q 326 -433 351 -440 q 304 -416 300 -425 q 324 -413 308 -407 q 365 -402 340 -419 q 382 -357 390 -385 q 412 -313 374 -329 q 413 -271 450 -297 q 417 -196 375 -244 q 535 -190 460 -147 q 651 -225 611 -233 q 696 -204 681 -218 q 656 -197 675 -203 q 618 -179 632 -190 q 606 -156 604 -168 q 620 -132 607 -143 q 659 -116 633 -121 q 710 -112 685 -111 q 761 -129 736 -112 q 767 -128 764 -128 l 685 -53 m 765 -179 q 765 -172 765 -176 q 769 -160 767 -165 q 749 -176 760 -162 q 746 -181 747 -178 l 750 -181 q 765 -179 758 -181 m 711 -183 q 744 -143 724 -165 q 747 -140 746 -142 q 717 -135 735 -135 q 674 -135 692 -133 q 647 -141 657 -136 q 636 -153 636 -146 q 642 -167 636 -161 q 666 -180 649 -172 q 708 -185 683 -187 l 711 -183 m 142 -156 q 132 -158 142 -156 q 100 -161 122 -160 q 54 -143 78 -162 q 47 -142 53 -142 q 25 -142 40 -143 q 10 -135 10 -140 q 42 -118 10 -131 q 31 -90 32 -111 q 50 -51 31 -69 q 99 -31 69 -32 q 136 -33 117 -29 q 148 -12 135 -24 q 175 -6 161 0 q 171 27 171 1 q 199 80 171 53 q 270 109 228 107 q 347 83 313 111 q 383 19 381 56 q 409 23 390 22 q 449 8 428 24 q 469 -35 471 -8 q 454 -79 468 -62 q 499 -94 485 -87 q 507 -112 510 -106 q 511 -123 504 -118 q 529 -131 518 -128 q 535 -137 540 -135 q 518 -140 529 -139 q 500 -140 507 -140 q 490 -144 493 -140 q 483 -155 488 -147 q 357 -162 479 -162 q 247 -146 240 -162 q 199 -150 228 -149 q 142 -156 163 -153 m 149 -138 q 157 -137 149 -138 q 208 -129 164 -136 q 250 -126 233 -128 q 340 -149 243 -139 q 452 -140 446 -143 q 461 -133 458 -137 q 466 -128 464 -128 q 477 -128 468 -128 q 491 -126 486 -128 q 487 -123 496 -125 q 477 -116 478 -121 q 479 -108 476 -111 q 454 -93 482 -104 q 433 -85 444 -87 q 452 -39 454 -65 q 426 0 450 -12 q 387 9 403 13 q 364 3 371 6 q 336 66 364 42 q 267 88 308 90 q 204 60 225 86 q 185 11 183 33 q 192 -21 188 -11 q 158 -22 168 -11 q 146 -51 147 -32 q 83 -47 106 -32 q 56 -81 60 -62 q 69 -115 51 -99 q 45 -124 51 -118 q 56 -129 39 -129 q 83 -136 72 -129 q 114 -142 93 -143 q 149 -138 135 -140 m 271 303 q 119 361 225 372 l 119 367 q 254 361 229 389 q 350 468 254 390 l 357 467 q 279 307 297 418 l 271 303 m 1000 -417 q 1117 -374 1036 -365 l 1117 -368 q 1015 -374 1035 -351 q 942 -292 1015 -350 l 936 -293 q 996 -415 982 -331 l 1000 -417 m 883 39 q 988 123 968 61 q 960 296 1007 185 q 850 478 914 407 q 926 261 886 393 q 883 39 965 129 m 1172 972 q 1198 1069 1200 1024 q 1149 1163 1196 1115 q 1015 1197 1101 1210 q 1133 1125 1088 1176 q 1172 972 1178 1074 m 531 897 q 529 942 531 897 q 526 1033 528 988 q 476 1126 524 1079 q 343 1160 429 1174 q 460 1089 415 1140 q 502 985 504 1038 q 505 840 500 933 q 585 704 510 746 q 721 743 661 663 q 578 754 624 703 q 531 897 533 806 z "}}}
